<?xml version="1.0" standalone="no"?>
<!DOCTYPE svg PUBLIC "-//W3C//DTD SVG 20010904//EN"
 "http://www.w3.org/TR/2001/REC-SVG-20010904/DTD/svg10.dtd">
<svg version="1.0" xmlns="http://www.w3.org/2000/svg"
 width="300.000000pt" height="400.000000pt" viewBox="0 0 300.000000 400.000000"
 preserveAspectRatio="xMidYMid meet">
<metadata>
Created by potrace 1.10, written by Peter Selinger 2001-2011
</metadata>
<g transform="translate(0.000000,400.000000) scale(0.100000,-0.100000)"
fill="#dddddd" stroke="none">
<path d="M2425 3963 c14 -21 25 -41 25 -45 0 -4 24 -49 53 -100 29 -51 71
-124 92 -163 44 -80 43 -80 50 -73 3 2 -4 22 -15 43 -11 22 -20 45 -20 53 0 7
-4 11 -9 8 -5 -3 -12 4 -16 17 -4 12 -8 24 -9 27 -3 9 -45 75 -53 85 -5 6 -20
33 -33 60 -31 65 -70 125 -82 125 -5 0 3 -17 17 -37z"/>
<path d="M2490 3996 c0 -11 30 -66 36 -66 2 0 -3 15 -12 33 -19 36 -24 44 -24
33z"/>
<path d="M2537 3905 c14 -36 87 -165 91 -161 4 4 -75 156 -90 171 -6 6 -6 3
-1 -10z"/>
<path d="M2655 3685 c15 -27 32 -54 38 -60 6 -5 -2 13 -18 40 -15 28 -32 55
-38 60 -6 6 2 -12 18 -40z"/>
<path d="M2805 3583 c-121 -28 -209 -100 -239 -197 -6 -17 -8 -17 -29 -3 -30
19 -97 38 -97 27 0 -5 -16 7 -35 26 -20 19 -40 34 -46 34 -5 0 -7 5 -3 12 4 7
3 8 -4 4 -6 -4 -22 0 -35 9 -20 13 -24 13 -24 1 0 -8 3 -14 6 -14 14 3 40 -15
35 -23 -3 -5 -2 -8 3 -7 4 2 19 -5 33 -15 14 -10 18 -17 10 -17 -10 0 -8 -5 6
-16 10 -8 13 -13 7 -9 -7 3 -13 2 -13 -3 0 -5 17 -14 37 -20 29 -9 39 -9 45 1
5 8 8 7 8 -4 0 -9 11 -24 25 -33 24 -16 25 -15 25 2 0 25 -10 34 -25 22 -8 -7
-12 -5 -12 5 0 20 23 19 45 -3 16 -17 18 -17 50 1 17 10 32 23 32 29 0 5 4 7
9 3 6 -3 8 6 5 21 -5 28 25 64 55 64 13 0 13 2 2 9 -10 7 -4 13 25 27 22 10
42 23 46 28 5 7 8 4 8 -5 0 -9 7 -20 16 -23 8 -3 13 -10 9 -15 -3 -5 -1 -12 5
-16 15 -9 12 17 -4 41 -16 23 -16 23 44 27 17 1 30 7 30 12 0 6 5 2 11 -7 5
-10 16 -18 23 -18 7 0 30 -11 50 -25 21 -14 41 -23 46 -20 12 7 1 42 -18 57
-13 11 -15 11 -8 -2 4 -8 0 -6 -8 4 -9 11 -16 17 -16 13 0 -4 -8 -4 -17 1 -23
13 -93 21 -118 15z"/>
<path d="M2930 3446 c56 -58 70 -66 70 -42 0 8 -21 29 -47 48 -77 55 -81 54
-23 -6z"/>
<path d="M2258 3433 c12 -2 22 -8 22 -13 0 -5 -6 -7 -14 -4 -22 9 -119 -41
-156 -81 -19 -21 -28 -34 -20 -30 8 5 5 -3 -7 -16 -41 -45 -101 -215 -83 -233
12 -12 13 -29 1 -22 -5 3 -16 -6 -25 -19 -9 -14 -21 -23 -26 -20 -5 3 -12 0
-16 -6 -4 -8 -3 -9 4 -5 7 4 12 4 12 1 0 -7 -106 -151 -127 -173 -7 -7 -13
-16 -13 -20 1 -4 16 11 35 33 32 37 34 38 33 15 -1 -14 -5 -27 -8 -30 -3 -3
-13 -28 -21 -56 -14 -44 -14 -55 -2 -77 17 -33 18 -33 19 -2 1 14 -2 25 -7 25
-5 0 -9 7 -9 15 0 8 5 15 11 15 6 0 8 7 5 16 -3 8 -2 12 3 9 8 -4 23 22 26 45
0 3 4 11 8 18 5 6 5 12 0 12 -4 0 -3 4 3 8 6 4 25 36 43 71 17 35 43 80 56 99
18 27 21 38 12 44 -9 6 -9 12 0 26 9 15 9 22 0 32 -10 10 -8 12 5 7 15 -5 17
-1 13 31 -3 29 -2 33 6 19 9 -15 12 -15 25 -3 8 8 14 21 14 28 -1 8 -5 7 -14
-5 -9 -11 -17 -14 -20 -8 -4 6 4 20 18 32 13 12 27 32 30 45 4 13 11 24 17 24
6 0 6 -7 -1 -21 -7 -11 -9 -23 -7 -26 3 -3 13 10 22 27 9 18 12 29 6 26 -6 -4
-11 -3 -11 2 0 6 27 30 60 55 33 24 57 47 53 50 -3 4 14 7 38 7 28 0 39 3 31
9 -8 4 -13 12 -13 17 1 5 -11 10 -26 11 -21 1 -22 0 -5 -4z m-344 -575 c-9
-14 -23 2 -17 18 4 12 8 13 14 3 4 -7 5 -17 3 -21z"/>
<path d="M2312 3400 c0 -24 4 -30 20 -30 13 0 18 5 15 14 -3 8 -1 17 6 20 7 3
3 4 -8 3 -12 -1 -19 3 -17 11 1 6 -2 12 -6 12 -5 0 -9 -13 -10 -30z"/>
<path d="M2776 3412 c29 -26 111 -90 122 -96 6 -4 12 -3 12 3 0 9 -125 101
-137 101 -4 0 -3 -4 3 -8z"/>
<path d="M2229 3357 c-19 -17 -44 -43 -54 -57 -10 -14 -3 -9 16 10 19 19 48
45 64 57 17 12 26 22 20 23 -5 0 -26 -15 -46 -33z"/>
<path d="M515 3369 c-203 -3 -402 -7 -442 -8 l-72 -1 1 -30 1 -30 351 5 c193
3 390 7 438 10 l86 5 6 -28 c2 -15 7 -52 10 -82 3 -30 24 -232 47 -448 23
-216 40 -394 38 -396 -2 -2 -218 -29 -479 -60 -261 -32 -481 -59 -488 -61 -6
-3 -12 -14 -12 -26 0 -23 -7 -22 164 -3 22 3 47 10 55 17 12 10 13 9 7 -1 -6
-10 1 -12 31 -8 21 2 37 8 36 12 -1 5 14 9 33 9 19 0 34 -4 34 -10 0 -5 5 -4
11 2 6 6 18 9 26 6 8 -3 18 -1 22 5 9 15 91 24 91 10 0 -6 7 -5 17 3 11 10 14
10 9 2 -5 -9 0 -13 14 -13 14 0 19 4 14 13 -5 8 -2 7 9 -2 15 -12 17 -12 12 1
-3 8 0 15 7 16 17 1 100 9 166 17 34 3 52 2 52 -5 0 -6 10 -2 22 9 12 12 38
23 57 26 20 3 51 8 68 11 19 3 37 13 44 25 11 21 10 40 -11 199 -5 41 -12 98
-15 125 -12 117 -25 233 -31 279 -4 34 -2 46 6 41 7 -5 9 1 4 19 -5 20 -2 26
10 26 10 0 16 -9 16 -25 0 -14 4 -25 10 -25 5 0 12 11 16 25 7 30 20 32 27 5
3 -13 0 -20 -9 -20 -14 0 -31 -46 -20 -57 3 -4 6 1 6 10 0 24 27 21 33 -3 3
-12 0 -20 -7 -20 -6 0 -17 -13 -23 -30 -6 -16 -7 -30 -2 -30 5 0 9 7 9 15 0 8
7 15 15 15 10 0 14 -12 13 -44 -1 -52 7 -67 28 -59 13 5 13 7 2 14 -10 6 -10
11 -1 20 14 14 33 3 33 -20 0 -13 -12 -21 -42 -27 -37 -8 -43 -13 -46 -36 -2
-16 1 -28 7 -28 6 0 10 8 8 18 -1 9 3 18 8 19 6 1 9 -5 9 -12 -1 -8 14 -24 32
-36 36 -22 45 -53 18 -63 -12 -5 -15 -2 -12 12 8 28 -10 52 -37 52 -14 0 -26
-3 -26 -7 -7 -38 -5 -51 6 -47 7 3 11 14 8 25 -7 25 13 25 27 0 16 -31 12 -41
-15 -41 -18 0 -25 -5 -25 -20 0 -11 5 -20 10 -20 6 0 10 7 10 15 0 8 5 15 10
15 6 0 10 -7 10 -15 0 -8 6 -15 13 -16 6 0 2 -5 -11 -11 -24 -12 -32 -34 -29
-85 2 -36 17 -58 17 -25 0 27 11 28 28 2 10 -17 10 -21 -3 -25 -8 -3 -22 -7
-30 -10 -15 -4 -16 -30 -2 -52 5 -7 5 -17 2 -23 -3 -5 -1 -18 4 -27 9 -16 10
-16 11 5 0 13 6 22 16 22 11 0 14 -8 12 -32 -3 -33 -3 -33 40 -31 31 2 42 -1
39 -10 -2 -8 -22 -11 -58 -10 -71 2 -259 -19 -259 -29 0 -4 -9 -8 -20 -8 -11
0 -36 -6 -54 -14 -18 -7 -39 -11 -47 -7 -8 4 -30 4 -49 0 -19 -3 -27 -7 -17
-8 18 -1 25 -31 7 -31 -5 0 -10 4 -10 9 0 5 -21 12 -47 15 -88 12 -122 10
-143 -9 -17 -15 -24 -16 -49 -5 -20 8 -35 9 -48 2 -10 -5 -49 -13 -87 -16 -41
-4 -77 -13 -87 -22 -13 -12 -22 -13 -38 -5 -30 16 -106 14 -121 -4 -7 -9 -20
-13 -29 -10 -12 3 -16 -2 -16 -19 0 -15 5 -22 15 -20 8 1 71 8 140 14 69 6
204 20 300 30 207 22 277 28 389 36 47 3 88 7 92 10 4 2 10 -2 12 -8 4 -10 6
-10 6 0 1 14 31 17 31 2 0 -7 -50 -22 -82 -25 -11 0 -22 -15 -11 -15 6 0 9 -9
6 -20 -3 -11 -8 -18 -12 -16 -4 3 -13 0 -21 -5 -11 -7 4 -9 47 -7 47 2 64 -1
68 -11 3 -8 4 -15 3 -16 -9 -9 -130 -20 -134 -13 -3 4 11 8 30 8 20 0 36 4 36
9 0 6 -16 7 -35 4 -22 -3 -35 -2 -35 5 0 24 -32 43 -62 36 -21 -4 -33 -2 -39
7 -6 10 -9 11 -9 2 0 -7 -9 -13 -20 -13 -11 0 -20 6 -20 13 0 18 -35 19 -68 1
-27 -14 -26 -14 16 -8 23 4 42 3 42 -3 0 -5 -8 -10 -17 -11 -10 -1 -27 -4 -38
-6 -11 -2 -30 -5 -42 -5 -15 -1 -23 -7 -23 -18 0 -11 3 -14 8 -7 8 12 239 40
249 30 4 -3 0 -7 -8 -7 -8 -1 -25 -3 -39 -6 -14 -2 -37 -5 -52 -6 -14 -1 -30
-6 -35 -10 -4 -5 24 -7 64 -4 55 4 73 2 77 -9 3 -8 0 -14 -7 -14 -7 0 -8 -3
-2 -8 6 -4 12 -14 14 -22 2 -8 4 -19 6 -25 1 -5 6 -29 10 -52 4 -24 12 -43 17
-43 6 0 7 11 4 24 -5 22 -3 24 27 22 59 -4 69 -25 45 -92 -6 -18 -8 -40 -3
-50 12 -29 14 -44 5 -44 -12 0 -20 -28 -14 -45 4 -10 20 -15 50 -15 34 0 42 3
38 15 -5 11 1 15 17 15 20 0 21 -2 9 -11 -11 -8 -8 -9 15 -4 40 9 42 13 17 30
-12 9 -19 23 -17 35 5 24 -29 123 -44 128 -6 2 -11 -1 -11 -8 0 -6 5 -8 10 -5
6 3 10 -3 10 -13 0 -13 -9 -21 -25 -24 -14 -3 -25 -2 -25 3 0 4 10 10 23 12
18 3 16 5 -8 6 -26 2 -27 3 -10 11 15 7 16 9 4 9 -9 1 -19 10 -22 21 -4 16 0
20 19 20 13 0 24 4 24 9 0 4 -12 7 -27 4 -27 -3 -27 -3 -5 7 13 5 28 8 33 4
17 -10 9 -33 -13 -37 -17 -3 -15 -5 9 -6 26 -1 31 2 28 18 -2 11 3 22 11 25 8
3 14 13 14 22 0 12 -4 14 -12 6 -7 -5 -40 -13 -73 -16 -33 -4 -67 -9 -76 -12
-14 -4 -36 23 -27 31 8 8 128 21 128 14 0 -4 -10 -10 -22 -12 -20 -4 -19 -4 5
-6 18 -1 27 4 27 14 0 9 8 19 18 23 14 5 17 13 11 32 -4 15 -7 18 -8 8 -1 -9
-6 -20 -13 -24 -6 -4 -8 -3 -4 4 3 5 1 12 -5 14 -5 2 -7 11 -4 21 4 9 12 14
18 10 5 -3 7 -2 4 3 -10 18 8 33 32 27 16 -4 21 -11 18 -24 -3 -12 -1 -17 5
-13 7 5 9 -2 4 -20 -4 -17 -2 -26 5 -26 8 0 10 12 5 38 -3 20 -6 46 -6 57 0
17 -2 17 -10 5 -6 -9 -10 -11 -10 -3 0 7 -6 10 -14 7 -16 -6 -30 11 -21 26 5
8 11 8 20 0 10 -8 16 -7 24 7 6 10 11 15 12 11 3 -15 8 -34 45 -158 7 -25 15
-65 18 -90 3 -24 17 -89 30 -145 29 -119 41 -192 26 -157 -14 34 -19 26 -8
-13 6 -19 14 -32 18 -30 9 6 19 -55 13 -72 -3 -6 -12 -14 -21 -16 -15 -4 -15
-5 -1 -6 31 -2 42 24 31 76 -12 52 -5 133 10 133 5 0 6 5 2 11 -4 8 -12 3 -21
-12 -8 -13 -12 -17 -9 -8 2 9 -1 22 -7 29 -9 10 -9 11 3 5 13 -8 13 -7 0 9 -8
10 -22 55 -32 100 -25 117 -25 116 18 109 39 -6 64 12 64 46 0 12 -2 12 -12
-2 -7 -9 -31 -19 -54 -23 l-41 -6 -27 137 c-19 97 -24 140 -17 145 6 3 53 12
103 19 50 6 94 14 98 16 3 2 3 43 -2 92 -7 86 -48 638 -48 652 0 4 27 15 59
25 33 10 94 38 137 62 43 24 79 44 81 44 2 0 3 -6 3 -14 0 -16 49 -19 68 -4
16 14 15 53 -3 68 -18 15 -52 4 -60 -20 -9 -28 -35 -34 -35 -7 1 35 44 77 80
77 26 0 60 -49 60 -88 0 -50 -29 -77 -92 -86 -27 -4 -48 -12 -48 -18 0 -7 15
-8 41 -4 26 4 46 2 55 -5 18 -15 18 -29 0 -29 -17 0 -41 -28 -32 -37 4 -4 10
-3 14 3 4 6 17 14 30 18 26 9 28 23 6 54 -8 12 -11 22 -5 22 25 0 51 45 51 88
0 36 -5 49 -30 72 -50 47 -126 24 -136 -42 -5 -28 -15 -45 -38 -60 -17 -12
-33 -25 -36 -29 -11 -15 -64 -31 -68 -20 -2 6 -8 11 -14 11 -6 0 -8 -6 -5 -14
4 -10 -7 -19 -38 -29 l-43 -15 -6 41 c-3 23 -8 83 -11 132 -3 50 -9 102 -11
118 l-6 27 -176 -2 c-97 -1 -343 -5 -547 -9z m722 -154 c7 -77 14 -200 17
-272 5 -124 4 -133 -13 -133 -14 0 -17 6 -13 25 2 14 8 25 13 25 5 0 9 5 9 10
0 6 -7 10 -16 10 -13 0 -15 7 -10 35 7 33 -5 48 -19 25 -7 -12 -45 -14 -45 -2
0 19 13 52 20 52 4 0 10 -10 14 -22 4 -17 8 -20 16 -12 17 17 -9 54 -38 54
-20 0 -22 4 -16 23 8 28 10 30 23 22 6 -3 9 -11 6 -16 -4 -5 -2 -9 4 -9 5 0
13 5 17 11 9 14 -16 30 -38 25 -10 -2 -18 0 -18 5 0 5 -3 9 -8 9 -4 0 -6 -18
-4 -40 3 -33 1 -40 -13 -40 -15 0 -17 7 -12 40 3 23 1 40 -5 40 -5 0 -7 -4 -3
-9 3 -5 1 -12 -5 -16 -5 -3 -10 1 -10 9 0 12 -11 16 -49 16 -28 0 -53 -4 -56
-10 -7 -12 -45 -14 -45 -2 1 37 30 73 30 37 0 -8 7 -15 15 -15 8 0 15 9 15 20
0 11 5 20 11 20 6 0 13 -9 16 -20 3 -11 12 -20 19 -20 17 0 18 12 2 29 -10 11
-10 13 0 7 6 -4 12 -2 12 3 0 12 -11 14 -47 11 -18 -1 -23 4 -23 23 0 27 -9
39 -21 31 -5 -3 -4 -14 1 -25 9 -17 7 -19 -17 -18 -15 0 -23 3 -17 5 7 3 10
14 7 24 -3 11 -10 17 -17 13 -7 -4 -8 -3 -1 5 6 5 19 12 30 15 18 4 18 5 -2 6
-30 1 -33 46 -4 54 14 3 17 0 14 -13 -3 -10 0 -21 7 -25 7 -4 14 1 17 14 7 27
21 27 25 -1 3 -24 28 -38 28 -15 0 36 -42 58 -108 57 -19 0 -22 4 -16 28 4 19
3 23 -4 13 -5 -7 -15 -11 -21 -7 -6 4 -173 7 -373 6 -199 0 -359 2 -357 5 3 2
207 8 455 11 247 4 451 8 452 10 2 1 38 2 80 1 l77 -2 12 -140z m363 -40 c0
-8 -9 -15 -20 -15 -22 0 -27 15 -7 23 21 9 27 7 27 -8z m-512 -143 c2 -15 -2
-22 -12 -22 -9 0 -16 -4 -16 -10 0 -5 7 -10 15 -10 8 0 16 -7 17 -15 0 -8 1
-21 2 -27 1 -15 -23 -18 -25 -3 -1 6 -5 21 -10 34 -6 15 -6 28 2 37 6 8 7 14
2 14 -5 0 -10 7 -10 15 0 24 32 13 35 -13z m52 -51 c0 -5 3 -16 6 -25 4 -11 0
-16 -14 -16 -15 0 -18 5 -14 25 4 23 22 36 22 16z m-40 -115 c-5 -5 -16 -6
-24 -3 -13 5 -14 11 -4 32 l12 26 12 -23 c7 -13 9 -27 4 -32z m50 24 c0 -18
-5 -30 -13 -30 -9 0 -14 12 -15 30 0 20 4 30 14 30 9 0 14 -11 14 -30z m53 10
c6 -22 -7 -34 -28 -26 -17 6 -8 46 10 46 7 0 15 -9 18 -20z m-49 -72 c6 -26
-4 -40 -21 -30 -13 8 -7 52 7 52 4 0 10 -10 14 -22z m49 2 c3 -13 0 -20 -9
-20 -8 0 -14 9 -14 20 0 11 4 20 9 20 5 0 11 -9 14 -20z m12 -62 l8 -23 4 23
c4 21 33 32 33 13 0 -5 2 -16 5 -23 6 -15 -4 -17 -88 -21 -36 -1 -46 1 -42 11
3 8 5 18 5 23 0 5 5 9 10 9 6 0 10 -7 10 -15 0 -8 7 -15 16 -15 8 0 12 5 9 10
-7 11 2 30 14 30 5 0 12 -10 16 -22z m-102 -1 c3 -8 1 -20 -4 -28 -8 -12 -10
-12 -19 1 -5 8 -10 21 -10 28 0 16 27 16 33 -1z m51 -71 c-2 -23 17 -20 23 4
6 23 23 27 23 5 0 -8 7 -15 15 -15 8 0 15 7 15 15 0 8 5 15 10 15 6 0 10 -6
10 -14 0 -8 6 -17 13 -19 6 -3 -2 -6 -20 -6 -17 -1 -34 -5 -37 -10 -7 -10 -82
-9 -78 2 1 4 2 16 2 28 0 12 5 19 13 16 6 -2 11 -12 11 -21z m109 -56 c3 -11
4 -20 2 -20 -2 0 -10 -3 -19 -6 -11 -4 -16 0 -16 13 0 36 24 45 33 13z m-148
-15 c0 -10 -6 -20 -14 -23 -10 -3 -12 0 -8 12 4 10 3 15 -3 11 -11 -7 -14 8
-3 19 12 11 28 0 28 -19z m48 4 c6 -23 27 -17 27 7 0 20 17 17 22 -4 4 -14 -4
-21 -35 -30 -46 -15 -50 -13 -41 22 8 31 20 34 27 5z m51 -48 c4 -5 3 -17 0
-26 -5 -13 -8 -14 -15 -3 -5 7 -9 19 -9 26 0 14 16 16 24 3z m46 -11 c0 -11
-4 -20 -10 -20 -5 0 -10 9 -10 20 0 11 5 20 10 20 6 0 10 -9 10 -20z m-142
-12 c-4 -31 -25 -34 -25 -3 0 15 5 25 14 25 9 0 13 -8 11 -22z m52 18 c0 -2 3
-11 6 -20 4 -12 0 -16 -15 -16 -14 0 -21 6 -21 20 0 11 7 20 15 20 8 0 15 -2
15 -4z m-97 -26 c4 -14 0 -20 -12 -20 -10 0 -17 8 -18 20 -1 11 4 20 11 20 8
0 16 -9 19 -20z m197 -41 c0 -24 -23 -21 -28 4 -2 10 3 17 12 17 10 0 16 -9
16 -21z m-145 -14 c0 -10 -6 -20 -12 -22 -8 -3 -13 5 -13 22 0 17 5 25 13 23
6 -3 12 -13 12 -23z m50 8 c0 -23 16 -26 22 -5 6 26 20 29 25 5 2 -13 -7 -22
-31 -30 -42 -15 -50 -11 -43 22 4 24 27 31 27 8z m104 -80 c1 -7 -5 -13 -13
-13 -13 0 -16 34 -6 60 2 7 18 -32 19 -47z m-49 17 c0 -11 -7 -20 -15 -20 -8
0 -15 9 -15 20 0 11 7 20 15 20 8 0 15 -9 15 -20z m-100 -5 c10 -12 10 -18 1
-29 -8 -10 -9 -16 -1 -21 15 -9 12 -45 -4 -45 -8 0 -13 10 -12 28 1 23 -4 28
-29 32 -31 5 -49 40 -21 40 8 0 20 -8 25 -17 9 -16 10 -16 11 5 0 26 12 29 30
7z m50 6 c0 -5 3 -16 6 -25 4 -11 0 -16 -12 -16 -13 0 -19 8 -20 25 -1 15 3
25 12 25 8 0 14 -4 14 -9z m54 -63 c6 -24 -6 -44 -22 -34 -11 6 -4 56 8 56 4
0 10 -10 14 -22z m49 2 c4 -15 0 -20 -13 -20 -13 0 -17 5 -13 20 3 11 9 20 13
20 4 0 10 -9 13 -20z m-95 -13 c2 -10 -3 -17 -12 -17 -10 0 -16 9 -16 21 0 24
23 21 28 -4z m-110 -109 c3 -25 0 -26 -47 -29 -36 -3 -52 0 -56 9 -12 32 -4
41 38 45 59 5 62 4 65 -25z m-130 -18 c-2 -6 -7 -11 -11 -11 -3 0 -20 -4 -37
-9 -21 -6 -30 -5 -30 3 0 7 -4 6 -10 -3 -9 -13 -10 -13 -10 0 0 10 -3 11 -8 4
-7 -12 -82 -25 -82 -14 0 3 5 12 10 20 9 13 10 13 10 0 0 -11 3 -11 8 -3 4 6
28 13 52 15 25 2 60 4 78 6 22 2 33 -1 30 -8z m-210 -27 c2 -8 -6 -13 -22 -13
-17 0 -26 5 -26 16 0 19 41 16 48 -3z m-222 -4 c10 -17 -13 -36 -27 -22 -12
12 -4 33 11 33 5 0 12 -5 16 -11z m99 0 c4 -6 4 -13 0 -17 -3 -3 -10 0 -15 8
-7 10 -10 11 -10 3 0 -8 -13 -13 -30 -13 -29 0 -38 9 -23 23 10 11 71 8 78 -4z
m435 -4 c7 -9 10 -18 6 -22 -3 -3 -6 -1 -6 5 0 7 -7 12 -15 12 -8 0 -15 5 -15
10 0 15 16 12 30 -5z m-630 -21 c0 -9 -7 -14 -17 -12 -25 5 -28 28 -4 28 12 0
21 -6 21 -16z m-53 -10 c2 -7 -10 -14 -26 -16 -20 -3 -28 -1 -24 6 5 8 3 8 -8
1 -24 -18 -69 -18 -69 -1 0 11 13 16 48 19 64 5 75 4 79 -9z m-140 -21 c-3 -3
-11 -2 -17 2 -9 6 -9 10 1 16 14 8 27 -7 16 -18z m763 17 c0 -5 -15 -10 -32
-9 -31 1 -32 1 -8 9 35 11 40 11 40 0z m-880 -12 c0 6 9 12 20 12 21 0 27 -15
10 -25 -5 -3 -10 0 -10 7 0 9 -2 10 -8 1 -4 -6 -24 -14 -45 -18 -30 -6 -37 -4
-37 8 0 18 51 28 62 12 5 -6 8 -5 8 3z m900 -18 c0 -5 -12 -10 -27 -10 -16 0
-38 -3 -50 -6 -13 -4 -23 -2 -23 4 0 9 22 15 83 20 9 1 17 -2 17 -8z m-40 -79
c-48 -15 -126 -23 -115 -13 10 11 54 18 110 20 29 0 29 0 5 -7z m-50 -31 c-14
-4 -36 -8 -50 -8 l-25 0 25 8 c14 4 36 8 50 8 l25 0 -25 -8z m90 -182 c0 -4
-16 -8 -35 -8 -46 0 -46 15 0 16 19 0 35 -3 35 -8z m32 -23 c12 -16 9 -25 -8
-25 -10 0 -14 -6 -11 -14 4 -9 -1 -17 -11 -19 -9 -2 -5 -3 11 -1 15 2 27 -1
27 -8 0 -6 -3 -9 -6 -6 -3 3 -29 0 -57 -8 -62 -17 -57 -16 -57 -5 0 5 10 11
23 13 12 2 21 9 20 16 -2 6 7 12 20 13 21 1 21 1 -3 9 -26 8 -19 14 25 23 11
3 -2 3 -30 0 -54 -5 -54 12 0 19 41 5 49 5 57 -7z"/>
<path d="M1062 3318 c2 -6 10 -14 16 -16 7 -2 10 2 6 12 -7 18 -28 22 -22 4z"/>
<path d="M1020 3289 c0 -5 5 -7 10 -4 6 3 10 2 10 -4 0 -6 7 -8 15 -5 8 4 12
10 9 15 -7 13 -44 11 -44 -2z"/>
<path d="M1079 3271 c-12 -4 -14 -12 -8 -26 8 -19 8 -19 15 3 7 24 34 31 34 8
0 -25 17 -27 22 -3 3 18 -1 22 -21 23 -14 1 -33 -1 -42 -5z"/>
<path d="M990 3210 c0 -5 7 -10 15 -10 8 0 15 5 15 10 0 6 -7 10 -15 10 -8 0
-15 -4 -15 -10z"/>
<path d="M1056 3212 c-18 -2 -30 -11 -33 -23 -3 -10 -10 -19 -17 -19 -6 0 -4
-4 4 -9 18 -12 30 -5 30 20 0 26 24 24 38 -3 l11 -23 7 23 c3 12 10 22 15 22
5 0 9 4 9 9 0 6 -8 9 -17 8 -10 -1 -31 -3 -47 -5z"/>
<path d="M1124 3195 c-3 -8 1 -22 10 -30 15 -15 16 -14 16 9 0 14 5 26 10 26
6 0 10 -7 10 -15 0 -8 7 -15 15 -15 8 0 15 6 15 14 0 27 -67 37 -76 11z"/>
<path d="M1084 3142 c-8 -5 -8 -15 -2 -32 7 -19 11 -22 18 -10 5 8 5 19 0 26
-6 6 -7 14 -3 17 9 9 1 9 -13 -1z"/>
<path d="M1140 3125 c-10 -12 -10 -19 -2 -27 9 -9 12 -7 12 9 0 12 6 24 13 26
7 4 8 6 1 6 -6 1 -17 -6 -24 -14z"/>
<path d="M2380 3350 c0 -5 9 -14 20 -20 22 -12 27 -1 8 18 -14 14 -28 16 -28
2z"/>
<path d="M2261 3331 c-10 -6 -3 -9 22 -8 20 0 34 5 31 9 -7 11 -35 10 -53 -1z"/>
<path d="M2554 3329 c-7 -11 18 -31 44 -35 19 -3 14 9 -13 29 -17 12 -26 14
-31 6z"/>
<path d="M2745 3330 c3 -5 -1 -10 -9 -10 -9 0 -16 -7 -16 -16 0 -14 1 -14 16
0 8 9 20 16 25 16 6 0 7 5 4 10 -3 6 -11 10 -16 10 -6 0 -7 -4 -4 -10z"/>
<path d="M2686 3305 c4 -16 7 -35 7 -42 0 -7 4 -10 8 -7 4 2 3 18 -1 35 -12
41 -24 53 -14 14z"/>
<path d="M2775 3280 c-3 -5 -3 -10 1 -10 4 0 0 -8 -9 -18 -13 -14 -14 -21 -5
-30 7 -7 8 -12 2 -12 -6 0 -16 -11 -22 -25 -11 -23 -10 -24 8 -13 10 7 17 15
14 19 -2 4 0 11 6 14 8 5 7 11 -1 21 -9 11 -8 15 5 20 10 4 15 12 12 19 -3 8
4 11 20 9 13 -1 22 2 18 7 -7 12 -41 12 -49 -1z"/>
<path d="M2847 3273 c-4 -3 0 -17 9 -30 11 -18 12 -24 2 -22 -23 3 -38 -1 -38
-9 0 -4 15 -6 34 -4 27 3 33 7 29 23 -3 10 -9 16 -14 13 -8 -5 -13 9 -10 29 1
9 -4 9 -12 0z"/>
<path d="M2944 3271 c4 -6 16 -16 28 -22 15 -8 18 -8 14 0 -4 6 -16 16 -28 22
-15 8 -18 8 -14 0z"/>
<path d="M2209 3253 c-12 -16 -12 -17 1 -7 8 7 24 14 35 17 19 4 19 5 -1 6
-12 0 -28 -7 -35 -16z"/>
<path d="M2150 3235 c-7 -13 -17 -22 -21 -19 -4 2 -10 0 -13 -5 -4 -5 2 -8 11
-7 9 2 19 8 21 14 2 7 7 10 11 8 4 -3 8 4 8 15 2 25 -1 24 -17 -6z"/>
<path d="M2453 3253 c4 -3 -1 -15 -10 -26 -17 -19 -17 -19 2 -16 22 5 35 49
14 49 -7 0 -9 -3 -6 -7z"/>
<path d="M2803 3244 c0 -8 4 -14 9 -14 4 0 8 5 8 11 0 5 6 7 13 3 6 -4 8 -3 4
1 -13 15 -34 14 -34 -1z"/>
<path d="M2716 3221 c-10 -11 -16 -26 -14 -33 3 -8 12 0 22 20 19 37 17 40 -8
13z"/>
<path d="M2242 3191 c-16 -45 -15 -50 4 -23 8 12 14 30 12 40 -3 11 -8 6 -16
-17z"/>
<path d="M852 3199 c2 -6 8 -10 13 -10 5 0 11 4 13 10 2 6 -4 11 -13 11 -9 0
-15 -5 -13 -11z"/>
<path d="M718 3193 c12 -2 30 -2 40 0 9 3 -1 5 -23 4 -22 0 -30 -2 -17 -4z"/>
<path d="M2290 3179 c-7 -11 -9 -23 -7 -26 3 -2 8 5 12 18 6 17 9 19 16 8 6
-9 9 -10 9 -2 0 22 -19 24 -30 2z"/>
<path d="M2356 3173 c-4 -18 -12 -33 -17 -33 -5 0 -9 -6 -9 -13 0 -8 -7 -29
-16 -47 -18 -36 -31 -136 -14 -110 5 8 10 25 10 38 0 13 4 20 10 17 6 -3 10
-1 10 4 0 6 -4 11 -10 11 -11 0 -6 18 27 88 13 29 23 58 20 65 -2 6 -7 -3 -11
-20z"/>
<path d="M2416 3176 c-8 -29 -1 -30 17 -3 12 19 12 24 2 24 -8 0 -16 -10 -19
-21z"/>
<path d="M2883 3180 c28 -22 47 -26 47 -9 0 7 9 0 21 -15 11 -14 25 -26 31
-26 5 0 -3 14 -19 30 -29 31 -53 39 -53 18 0 -6 -7 -4 -18 5 -10 10 -22 17
-27 17 -4 0 4 -9 18 -20z"/>
<path d="M2189 3163 c-13 -16 -17 -23 -10 -16 11 10 17 9 28 -5 13 -16 13 -15
5 3 -8 14 -6 22 6 32 10 7 12 13 6 13 -6 0 -21 -12 -35 -27z"/>
<path d="M2448 3168 c-8 -13 -21 -34 -28 -48 -12 -25 -12 -25 7 -5 18 19 47
75 39 75 -2 0 -10 -10 -18 -22z"/>
<path d="M2501 3149 c-19 -25 -24 -47 -27 -117 -3 -66 -2 -81 6 -63 6 14 8 31
6 38 -7 18 8 89 28 136 20 45 17 47 -13 6z"/>
<path d="M2105 3123 l-28 -38 34 32 c18 18 30 35 27 38 -3 3 -18 -11 -33 -32z"/>
<path d="M2252 3135 c-17 -37 -14 -45 4 -12 9 16 14 31 11 33 -2 2 -9 -7 -15
-21z"/>
<path d="M792 3139 c2 -6 7 -10 11 -10 4 1 16 1 27 1 11 0 20 5 20 10 0 6 -14
10 -31 10 -17 0 -29 -5 -27 -11z"/>
<path d="M690 3130 c10 -7 -14 -10 -77 -10 -51 0 -93 -3 -93 -7 0 -5 45 -7
100 -5 79 3 100 6 100 18 0 8 -10 14 -22 14 -19 0 -20 -2 -8 -10z"/>
<path d="M2132 3117 c-12 -13 -22 -31 -22 -41 0 -9 -4 -15 -9 -11 -5 3 -13 0
-17 -6 -5 -8 -3 -9 6 -4 9 6 12 4 8 -7 -4 -8 0 -15 8 -15 7 0 11 4 8 9 -3 4 1
17 9 29 15 20 35 10 22 -11 -3 -6 1 -7 10 -4 14 6 14 8 -1 25 -12 13 -14 23
-8 29 7 7 16 4 29 -10 17 -18 17 -21 1 -46 -10 -14 -16 -28 -14 -30 3 -2 15
14 27 36 12 22 19 40 14 39 -21 -4 -24 2 -12 19 13 15 12 16 -3 4 -14 -11 -18
-11 -25 3 -8 13 -12 12 -31 -8z"/>
<path d="M1507 3111 c-40 -26 -47 -36 -12 -18 42 23 62 37 50 36 -5 0 -22 -8
-38 -18z"/>
<path d="M2670 3095 c10 -12 10 -15 -1 -15 -11 0 -11 -2 1 -10 14 -9 7 -14
-13 -11 -4 1 -3 -7 2 -18 6 -10 8 -21 5 -24 -3 -3 0 -15 6 -27 6 -12 14 -19
17 -16 4 3 12 1 20 -6 12 -10 13 -7 7 18 -8 35 -14 43 -14 21 0 -9 -5 -19 -12
-23 -8 -5 -9 -2 -5 11 4 9 2 24 -4 31 -13 16 12 59 27 46 5 -4 0 3 -10 16 -11
12 -23 22 -29 22 -5 0 -4 -7 3 -15z"/>
<path d="M2413 3082 c-6 -4 -16 -25 -22 -46 -11 -41 -8 -64 4 -27 3 12 11 18
17 15 7 -4 8 -2 4 5 -4 6 -4 21 -1 32 6 17 9 19 16 8 6 -9 9 -10 9 -2 0 16
-13 23 -27 15z"/>
<path d="M2933 3076 c-15 -18 15 -49 36 -37 9 6 10 11 2 15 -6 4 -15 5 -20 2
-5 -4 -7 3 -4 14 6 23 3 25 -14 6z"/>
<path d="M597 3073 c18 -2 50 -2 70 0 21 2 7 4 -32 4 -38 0 -55 -2 -38 -4z"/>
<path d="M2223 3073 c-7 -3 -13 -9 -13 -15 0 -6 7 -4 17 3 15 12 16 12 10 -3
-3 -10 -3 -19 1 -22 4 -3 8 4 9 14 2 22 -6 29 -24 23z"/>
<path d="M338 3063 c28 -2 76 -2 105 0 28 2 5 3 -53 3 -58 0 -81 -1 -52 -3z"/>
<path d="M2561 3028 c1 -37 2 -39 9 -18 12 36 12 60 0 60 -5 0 -10 -19 -9 -42z"/>
<path d="M2619 3048 c-7 -12 -13 -45 -14 -73 0 -28 -3 -55 -6 -60 -7 -12 -5
-63 3 -70 7 -7 29 95 23 105 -3 5 0 32 6 60 12 57 7 74 -12 38z"/>
<path d="M157 3053 c18 -2 50 -2 70 0 21 2 7 4 -32 4 -38 0 -55 -2 -38 -4z"/>
<path d="M2690 3045 c0 -8 5 -15 10 -15 6 0 10 7 10 15 0 8 -4 15 -10 15 -5 0
-10 -7 -10 -15z"/>
<path d="M2762 3020 c1 -22 6 -40 10 -40 5 0 5 12 2 26 -4 16 -2 29 5 34 9 5
8 9 -4 13 -13 6 -15 0 -13 -33z"/>
<path d="M507 3038 c-7 -4 10 -8 36 -8 28 0 46 4 42 10 -6 10 -60 9 -78 -2z"/>
<path d="M600 3040 c0 -13 70 -13 90 0 11 7 0 10 -37 10 -29 0 -53 -4 -53 -10z"/>
<path d="M1440 3040 c-10 -6 -5 -9 18 -8 18 1 35 5 38 10 7 11 -37 10 -56 -2z"/>
<path d="M1905 3018 l-16 -33 20 25 c20 24 26 40 16 40 -2 0 -12 -15 -20 -32z"/>
<path d="M2346 3010 c-5 -25 -12 -52 -16 -60 -9 -17 -23 -156 -15 -148 3 3 8
23 10 44 2 22 5 39 6 39 1 0 3 9 5 20 2 11 8 40 14 64 6 25 9 54 7 65 -2 13
-6 3 -11 -24z"/>
<path d="M400 3030 c0 -12 34 -12 70 0 20 7 16 8 -22 9 -27 1 -48 -3 -48 -9z"/>
<path d="M2202 3028 c-7 -7 -12 -19 -12 -27 1 -11 5 -8 13 7 13 23 27 20 27
-5 0 -8 -4 -11 -10 -8 -6 3 -7 -1 -4 -9 8 -20 24 -11 24 13 0 26 -23 44 -38
29z"/>
<path d="M1305 3015 c-39 -17 -21 -18 25 0 19 7 28 14 20 14 -8 0 -28 -6 -45
-14z"/>
<path d="M2808 3002 c-4 -12 -2 -20 3 -16 5 3 9 -3 10 -13 0 -10 3 -13 5 -7 3
6 1 21 -4 34 l-9 24 -5 -22z"/>
<path d="M2267 3003 c-15 -27 -38 -116 -33 -129 3 -9 2 -23 -3 -32 -6 -11 -5
-28 3 -47 10 -25 13 -26 19 -12 4 10 3 16 -2 12 -15 -9 -18 28 -5 56 7 14 17
56 22 92 8 64 8 76 -1 60z"/>
<path d="M660 2990 l-35 -7 32 -2 c17 0 35 4 38 9 3 6 5 9 3 9 -2 -1 -19 -5
-38 -9z"/>
<path d="M2530 2982 c-14 -16 -16 -32 -11 -87 3 -32 18 1 26 58 8 52 7 53 -15
29z"/>
<path d="M558 2983 c12 -2 32 -2 45 0 12 2 2 4 -23 4 -25 0 -35 -2 -22 -4z"/>
<path d="M2649 2964 c-5 -95 -4 -163 2 -189 19 -84 40 -150 50 -159 7 -8 7 -3
0 17 -14 35 -14 73 -1 42 8 -18 9 -18 8 5 0 14 -4 39 -8 55 l-8 30 -1 -35 c-1
-30 -3 -32 -12 -17 -6 10 -13 75 -16 145 -5 121 -11 169 -14 106z"/>
<path d="M328 2973 c23 -2 59 -2 80 0 20 2 1 4 -43 4 -44 0 -61 -2 -37 -4z"/>
<path d="M2191 2954 c-6 -15 -10 -29 -7 -31 2 -2 7 5 11 18 6 17 9 19 16 8 5
-8 9 -9 9 -4 0 6 -4 16 -8 23 -6 9 -12 5 -21 -14z"/>
<path d="M40 2960 l-45 -7 53 -1 c33 -1 51 2 47 8 -3 6 -7 9 -8 8 -1 0 -22 -4
-47 -8z"/>
<path d="M173 2963 c9 -2 25 -2 35 0 9 3 1 5 -18 5 -19 0 -27 -2 -17 -5z"/>
<path d="M2420 2933 c-3 -23 -2 -39 3 -34 5 5 7 24 5 42 -3 33 -4 33 -8 -8z"/>
<path d="M2849 2968 c-7 -28 -5 -38 7 -38 16 0 19 26 4 35 -5 3 -10 5 -11 3z"/>
<path d="M2773 2913 c-1 -26 3 -53 8 -59 5 -7 9 -16 8 -20 -5 -28 2 -57 11
-48 7 7 7 26 0 60 -6 27 -11 64 -12 82 -2 49 -13 38 -15 -15z"/>
<path d="M1615 2940 c17 -4 39 -8 50 -8 16 0 15 2 -5 8 -14 4 -36 8 -50 8 -22
0 -22 -1 5 -8z"/>
<path d="M2283 2931 c-1 -9 -4 -34 -7 -56 -3 -22 -4 -33 0 -25 31 79 33 88 21
93 -7 3 -13 -3 -14 -12z"/>
<path d="M2366 2941 c-3 -5 -3 -17 1 -27 4 -12 3 -15 -5 -10 -15 9 -16 -33 -2
-54 8 -11 9 -8 6 13 -3 15 -1 27 3 27 12 0 20 49 10 55 -4 3 -10 1 -13 -4z"/>
<path d="M2470 2918 c-1 -22 -1 -22 -15 -4 -13 18 -14 18 -12 -2 0 -11 5 -20
10 -19 6 1 11 -13 13 -31 3 -38 14 -56 15 -26 0 10 2 38 4 62 2 23 -1 42 -6
42 -5 0 -9 -10 -9 -22z"/>
<path d="M2555 2921 c-3 -10 -1 -29 4 -42 9 -21 10 -19 10 19 1 45 -4 54 -14
23z"/>
<path d="M608 2923 c12 -2 30 -2 40 0 9 3 -1 5 -23 4 -22 0 -30 -2 -17 -4z"/>
<path d="M2106 2912 c-3 -5 -7 -21 -10 -37 -7 -35 9 -20 18 18 6 26 2 35 -8
19z"/>
<path d="M2856 2885 c6 -39 11 -52 17 -44 2 2 -2 22 -10 44 l-13 40 6 -40z"/>
<path d="M2876 2893 c4 -16 11 -36 15 -45 13 -24 12 -47 -1 -28 -7 11 -10 11
-10 2 0 -7 -5 -10 -12 -6 -7 5 -8 3 -3 -6 4 -7 9 -33 10 -59 1 -25 5 -56 9
-68 4 -12 2 -24 -4 -28 -5 -3 -10 -11 -10 -16 0 -6 5 -7 11 -3 8 4 9 -11 3
-52 -11 -89 -8 -155 7 -165 19 -11 24 -2 10 15 -9 11 -9 16 -1 21 15 9 10 227
-5 237 -7 5 -7 8 1 8 6 0 9 20 7 51 -3 35 -1 49 7 44 12 -7 4 36 -11 67 -5 9
-9 26 -9 37 0 12 -5 21 -10 21 -6 0 -8 -11 -4 -27z"/>
<path d="M2738 2884 c-9 -14 3 -94 13 -94 10 0 10 44 0 80 -4 14 -10 20 -13
14z"/>
<path d="M653 2873 c15 -2 37 -2 50 0 12 2 0 4 -28 4 -27 0 -38 -2 -22 -4z"/>
<path d="M2408 2858 c-2 -13 -1 -34 3 -48 5 -19 7 -14 8 23 1 50 -4 62 -11 25z"/>
<path d="M2537 2874 c-3 -3 -3 -28 0 -55 3 -29 2 -49 -4 -49 -5 0 -10 -7 -10
-16 0 -14 2 -14 14 2 8 12 13 40 12 71 -1 29 -3 53 -4 53 -1 0 -4 -3 -8 -6z"/>
<path d="M538 2863 c18 -2 45 -2 60 0 15 2 0 4 -33 4 -33 0 -45 -2 -27 -4z"/>
<path d="M1018 2848 c3 -13 1 -19 -5 -15 -6 4 -8 -3 -5 -19 3 -19 7 -22 13
-12 11 17 11 55 0 62 -5 4 -7 -4 -3 -16z"/>
<path d="M2376 2833 c-4 -21 -9 -47 -11 -58 -3 -11 -2 -15 1 -9 3 7 14 10 25
7 15 -4 18 -2 13 12 -5 13 -9 14 -15 3 -5 -7 -6 7 -3 35 8 56 -1 64 -10 10z"/>
<path d="M2713 2850 c4 -14 7 -43 8 -65 0 -30 2 -35 8 -20 8 19 -4 94 -16 105
-3 3 -3 -6 0 -20z"/>
<path d="M337 2853 c18 -2 50 -2 70 0 21 2 7 4 -32 4 -38 0 -55 -2 -38 -4z"/>
<path d="M131 2841 c-10 -6 1 -8 30 -4 24 3 46 7 48 9 10 9 -65 3 -78 -5z"/>
<path d="M548 2833 c12 -2 30 -2 40 0 9 3 -1 5 -23 4 -22 0 -30 -2 -17 -4z"/>
<path d="M2081 2768 c-1 -71 -1 -72 14 -44 8 15 13 40 10 55 -5 22 -4 23 4 6
8 -16 10 -13 10 20 0 31 -2 36 -9 20 -7 -17 -9 -17 -9 -2 -1 9 -5 17 -10 17
-4 0 -9 -33 -10 -72z"/>
<path d="M418 2823 c18 -2 45 -2 60 0 15 2 0 4 -33 4 -33 0 -45 -2 -27 -4z"/>
<path d="M2340 2798 c0 -42 -10 -79 -20 -73 -4 2 -5 -8 -2 -23 l5 -27 9 30
c16 54 25 125 17 125 -5 0 -9 -15 -9 -32z"/>
<path d="M2453 2790 c0 -25 2 -35 4 -22 2 12 2 32 0 45 -2 12 -4 2 -4 -23z"/>
<path d="M2607 2813 c-2 -10 -8 -26 -12 -35 -4 -10 -3 -18 3 -18 5 0 12 14 16
32 7 34 2 50 -7 21z"/>
<path d="M238 2813 c12 -2 30 -2 40 0 9 3 -1 5 -23 4 -22 0 -30 -2 -17 -4z"/>
<path d="M2136 2798 c-8 -32 -7 -58 2 -58 4 0 8 18 9 40 3 45 -2 52 -11 18z"/>
<path d="M118 2803 c12 -2 32 -2 45 0 12 2 2 4 -23 4 -25 0 -35 -2 -22 -4z"/>
<path d="M303 2783 c15 -2 37 -2 50 0 12 2 0 4 -28 4 -27 0 -38 -2 -22 -4z"/>
<path d="M468 2773 c12 -2 32 -2 45 0 12 2 2 4 -23 4 -25 0 -35 -2 -22 -4z"/>
<path d="M2756 2755 c8 -37 14 -45 14 -19 0 10 -5 26 -10 34 -8 11 -9 7 -4
-15z"/>
<path d="M2950 2755 c0 -14 4 -25 9 -25 4 0 6 11 3 25 -2 14 -6 25 -8 25 -2 0
-4 -11 -4 -25z"/>
<path d="M78 2763 c13 -3 19 -9 16 -15 -4 -7 -2 -8 5 -4 17 11 3 26 -22 25
-22 -2 -22 -2 1 -6z"/>
<path d="M2207 2751 c-3 -14 -1 -18 9 -14 8 3 14 11 14 19 0 21 -17 17 -23 -5z"/>
<path d="M2265 2724 c-3 -26 -9 -54 -12 -63 -4 -9 -3 -13 1 -9 4 3 11 21 15
40 5 18 11 43 15 56 4 12 3 22 -2 22 -5 0 -13 -21 -17 -46z"/>
<path d="M2370 2739 c0 -5 -4 -8 -9 -5 -5 4 -7 -3 -4 -14 3 -11 9 -18 13 -15
12 7 19 45 9 45 -5 0 -9 -5 -9 -11z"/>
<path d="M2737 2730 c-8 -25 -3 -53 26 -155 11 -37 16 -46 22 -33 4 10 3 30
-2 45 -6 16 -8 43 -6 60 2 18 -1 41 -6 50 -8 14 -9 10 -5 -17 5 -25 3 -32 -4
-25 -6 6 -12 30 -14 55 -3 39 -5 41 -11 20z"/>
<path d="M2451 2710 c0 -33 1 -34 10 -11 6 16 6 28 -1 35 -7 7 -10 -1 -9 -24z"/>
<path d="M2822 2710 c0 -19 2 -27 5 -17 2 9 2 25 0 35 -3 9 -5 1 -5 -18z"/>
<path d="M2548 2725 c-4 -4 -4 -14 -1 -23 4 -9 2 -13 -4 -9 -5 3 -10 -1 -10
-9 0 -13 2 -13 15 -1 7 8 12 22 10 32 -1 9 -6 14 -10 10z"/>
<path d="M2938 2708 c-3 -7 -2 -24 2 -38 l6 -25 6 27 c6 29 -6 60 -14 36z"/>
<path d="M2122 2648 c-10 -30 -10 -31 3 -14 13 17 21 46 12 46 -1 0 -8 -15
-15 -32z"/>
<path d="M2834 2658 c-3 -12 -7 -49 -7 -82 0 -34 -2 -51 -4 -38 -2 12 -9 20
-14 17 -12 -8 -12 -55 1 -55 6 0 10 -17 10 -37 0 -49 15 -74 23 -41 9 31 9 40
-1 34 -5 -3 -9 8 -9 24 0 17 5 27 10 23 6 -3 7 -1 3 5 -4 7 -4 17 0 24 8 12 8
26 3 111 -3 43 -5 45 -15 15z"/>
<path d="M1789 2660 c-9 -5 -57 -13 -105 -16 -88 -7 -154 -25 -154 -42 0 -5 9
-17 20 -27 20 -18 20 -18 -5 -45 l-26 -27 23 -15 c13 -8 31 -17 41 -21 10 -4
17 -17 17 -32 0 -41 44 -75 96 -75 33 0 44 -4 44 -16 0 -8 5 -12 10 -9 6 4 -3
25 -22 51 -32 45 -45 56 -35 30 3 -8 0 -19 -7 -25 -10 -9 -19 -6 -37 8 -22 17
-23 22 -13 59 9 34 8 42 -4 47 -8 3 -12 8 -8 12 3 3 -3 12 -14 20 -23 16 -27
58 -7 66 8 3 28 4 45 3 18 -1 32 3 33 8 0 6 4 2 9 -9 6 -13 9 -15 9 -5 1 12 3
13 10 1 7 -11 10 -9 16 8 3 12 10 19 15 16 12 -7 70 22 70 35 0 12 -1 12 -21
0z m-169 -164 c0 -8 -4 -17 -9 -21 -12 -7 -24 12 -16 25 9 15 25 12 25 -4z"/>
<path d="M2312 2649 c-8 -12 -9 -18 -3 -14 19 11 12 -11 -9 -30 -11 -10 -20
-14 -20 -10 0 5 -18 -16 -40 -46 -22 -30 -43 -59 -47 -64 -4 -6 -9 -17 -11
-25 -3 -21 48 40 59 70 5 14 26 34 47 45 20 11 38 26 38 33 1 6 2 17 3 23 0 5
6 7 11 4 6 -4 7 -12 3 -18 -4 -7 1 -6 10 2 13 10 15 17 6 27 -6 8 -15 12 -19
9 -5 -3 -10 -1 -12 5 -2 6 -9 1 -16 -11z"/>
<path d="M2552 2635 c-1 -17 -9 -40 -17 -52 -11 -16 -12 -22 -3 -25 9 -3 8
-15 -6 -45 -15 -35 -24 -42 -55 -47 -37 -6 -91 -45 -91 -65 0 -5 14 3 31 19
34 30 66 43 74 30 3 -4 14 -6 24 -3 28 7 86 -14 122 -44 16 -14 32 -23 35 -20
3 2 -9 16 -25 30 -16 13 -28 27 -25 30 3 3 -1 5 -8 4 -7 0 -32 3 -55 7 l-42 8
19 39 c11 21 20 45 20 54 0 8 9 15 20 15 11 0 20 5 20 10 0 6 -6 10 -14 10
-10 0 -16 13 -19 38 -3 32 -4 33 -5 7z"/>
<path d="M1790 2615 c-7 -8 -15 -35 -17 -58 -4 -35 -2 -44 10 -44 9 0 13 6 10
14 -3 7 -1 19 5 26 8 10 14 77 7 77 -2 0 -8 -7 -15 -15z"/>
<path d="M2964 2613 c3 -10 7 -43 11 -73 3 -30 8 -72 11 -92 3 -20 1 -45 -4
-55 -6 -12 -5 -28 3 -48 11 -26 13 -14 13 100 0 91 -5 138 -14 158 -16 30 -28
36 -20 10z"/>
<path d="M2600 2591 c0 -5 6 -12 13 -14 9 -4 9 -6 -1 -6 -7 -1 -10 -6 -6 -12
9 -15 24 9 17 28 -6 15 -23 18 -23 4z"/>
<path d="M2698 2593 c6 -2 9 -10 6 -15 -4 -7 -2 -8 4 -4 7 4 12 1 12 -6 0 -20
44 -118 54 -118 4 0 5 7 2 16 -3 9 -9 28 -13 42 -3 15 -10 29 -14 32 -4 3 -9
12 -11 20 -4 17 -28 40 -43 39 -5 0 -4 -3 3 -6z"/>
<path d="M448 2583 c12 -2 32 -2 45 0 12 2 2 4 -23 4 -25 0 -35 -2 -22 -4z"/>
<path d="M2214 2582 c3 -6 -3 -16 -14 -22 -19 -10 -20 -30 -1 -30 15 0 31 49
19 56 -7 4 -8 3 -4 -4z"/>
<path d="M2496 2575 c-11 -8 -35 -15 -53 -15 -27 0 -35 -5 -43 -25 -12 -30
-24 -34 -15 -4 7 21 7 21 -24 3 -17 -10 -31 -21 -31 -24 0 -5 58 -5 70 0 3 1
9 2 14 1 5 -1 16 1 25 5 9 4 18 8 21 9 14 3 64 34 56 35 -5 0 -3 7 4 15 16 19
1 19 -24 0z"/>
<path d="M2120 2561 c0 -7 -4 -10 -9 -7 -10 6 -25 -24 -16 -32 3 -3 5 0 5 7 0
7 5 9 10 6 11 -7 26 22 16 32 -3 4 -6 1 -6 -6z"/>
<path d="M1677 2554 c-4 -4 -2 -13 4 -20 7 -8 7 -14 -1 -19 -15 -9 -12 -35 5
-35 10 0 15 10 15 28 0 30 -13 56 -23 46z"/>
<path d="M1916 2523 c-19 -18 -27 -22 -23 -11 4 12 2 15 -10 11 -11 -4 -14
-15 -10 -40 4 -20 2 -31 -4 -28 -5 4 -9 -5 -9 -19 0 -33 -18 -43 -35 -20 -8
11 -15 15 -15 9 0 -5 -5 -3 -11 5 -8 12 -9 10 -4 -9 5 -15 4 -21 -4 -17 -5 4
-13 22 -17 41 -6 34 -24 49 -24 20 0 -35 25 -64 71 -84 47 -19 49 -21 49 -60
0 -22 -4 -43 -10 -46 -5 -3 -10 -17 -10 -31 0 -14 -6 -27 -13 -30 -8 -3 -14
-10 -15 -17 -10 -66 -15 -85 -26 -81 -20 8 -18 -44 2 -55 16 -9 21 0 45 82 15
51 29 99 30 107 1 8 6 18 12 22 5 4 9 49 8 100 -1 82 2 97 21 123 46 61 46 70
2 28z m-39 -150 c-3 -3 -11 -2 -17 2 -8 5 -7 11 2 22 12 15 13 14 16 -1 2 -10
1 -20 -1 -23z"/>
<path d="M2007 2536 c-11 -28 -8 -39 9 -32 8 3 12 2 9 -4 -8 -13 11 -13 36 0
26 14 25 33 -2 25 -14 -5 -25 -1 -33 10 -12 17 -13 17 -19 1z"/>
<path d="M638 2513 c12 -2 32 -2 45 0 12 2 2 4 -23 4 -25 0 -35 -2 -22 -4z"/>
<path d="M1946 2504 c-3 -7 -2 -14 1 -17 6 -7 43 15 43 25 0 12 -39 5 -44 -8z"/>
<path d="M538 2503 c12 -2 30 -2 40 0 9 3 -1 5 -23 4 -22 0 -30 -2 -17 -4z"/>
<path d="M1711 2475 c0 -11 4 -27 9 -35 9 -13 10 -13 9 0 0 8 -4 24 -9 35 -9
20 -9 20 -9 0z"/>
<path d="M143 2463 c9 -2 25 -2 35 0 9 3 1 5 -18 5 -19 0 -27 -2 -17 -5z"/>
<path d="M1520 2411 c0 -59 0 -60 27 -58 16 1 28 -3 28 -10 0 -20 20 -15 20 5
0 10 -9 18 -22 20 -26 4 -29 12 -11 30 9 9 8 12 -5 12 -12 0 -17 8 -17 30 0
17 -4 30 -10 30 -6 0 -10 -26 -10 -59z"/>
<path d="M2095 2429 c22 -19 43 -33 47 -32 12 4 30 -38 25 -58 -3 -10 -1 -22
4 -25 6 -3 9 11 8 35 -3 36 -8 43 -48 69 -71 45 -79 47 -36 11z"/>
<path d="M1964 2435 c-10 -8 -14 -14 -9 -14 6 0 19 6 29 14 11 8 15 15 10 15
-6 0 -19 -7 -30 -15z"/>
<path d="M33 2433 c9 -2 25 -2 35 0 9 3 1 5 -18 5 -19 0 -27 -2 -17 -5z"/>
<path d="M120 2426 c0 -2 18 -6 39 -8 22 -2 37 0 35 4 -5 8 -74 11 -74 4z"/>
<path d="M1975 2410 c-19 -10 -32 -13 -28 -7 3 6 1 7 -6 3 -7 -5 -9 -16 -5
-28 4 -15 3 -18 -6 -13 -9 5 -11 4 -6 -3 4 -7 16 -12 28 -12 13 0 18 -5 15
-14 -6 -15 21 -26 58 -25 15 0 13 4 -11 14 -52 23 -59 40 -28 64 15 12 35 21
46 21 18 0 18 -1 4 -16 -19 -19 -20 -25 -3 -46 9 -13 23 -15 60 -11 58 7 61
24 10 56 -53 33 -88 38 -128 17z m115 -35 c0 -8 -4 -15 -9 -15 -5 0 -11 7 -15
15 -3 9 0 15 9 15 8 0 15 -7 15 -15z"/>
<path d="M2440 2414 l-25 -15 25 5 c14 3 28 6 33 6 4 0 7 5 7 10 0 14 -10 12
-40 -6z"/>
<path d="M2501 2406 c-17 -32 -11 -58 18 -72 19 -10 27 -9 42 4 10 9 19 22 19
29 0 19 18 16 42 -7 12 -11 34 -20 50 -20 31 0 38 18 11 26 -10 3 -40 16 -68
29 -80 36 -100 38 -114 11z m69 -37 c-10 -17 -30 -27 -30 -13 0 15 22 44 31
39 5 -4 5 -13 -1 -26z m-41 -24 c1 -5 -6 -2 -15 7 -10 9 -13 21 -8 29 5 9 9 8
15 -7 4 -10 8 -23 8 -29z"/>
<path d="M2335 2410 c3 -5 1 -10 -5 -10 -6 0 -9 -4 -5 -9 3 -6 14 -9 25 -8 18
1 18 2 3 19 -17 20 -28 24 -18 8z"/>
<path d="M133 2403 c9 -2 25 -2 35 0 9 3 1 5 -18 5 -19 0 -27 -2 -17 -5z"/>
<path d="M413 2383 c9 -2 25 -2 35 0 9 3 1 5 -18 5 -19 0 -27 -2 -17 -5z"/>
<path d="M308 2373 c12 -2 30 -2 40 0 9 3 -1 5 -23 4 -22 0 -30 -2 -17 -4z"/>
<path d="M2380 2361 c0 -6 12 -13 28 -16 63 -14 65 -14 55 -4 -6 6 -21 11 -34
13 -14 1 -30 6 -37 10 -7 4 -12 3 -12 -3z"/>
<path d="M148 2353 c12 -2 30 -2 40 0 9 3 -1 5 -23 4 -22 0 -30 -2 -17 -4z"/>
<path d="M1534 2332 c-7 -5 -8 -78 -5 -215 4 -116 2 -212 -3 -217 -5 -5 -4
-26 2 -49 12 -50 -5 -56 -37 -15 -28 35 -27 79 1 98 15 11 18 16 7 16 -8 0
-22 -9 -32 -20 -19 -23 -87 -29 -87 -7 -1 23 -25 44 -57 50 -42 8 -43 -6 -1
-18 38 -12 74 -71 56 -92 -6 -7 -17 -79 -24 -160 -14 -151 -16 -157 -63 -170
-30 -7 -62 -34 -55 -45 3 -4 1 -8 -5 -8 -5 0 -18 -3 -28 -7 -15 -6 -16 -4 -5
9 20 25 -26 31 -100 14 -35 -8 -85 -19 -113 -24 -47 -9 -46 -9 24 -6 69 3 111
8 154 20 12 4 17 0 17 -14 0 -16 -10 -22 -52 -28 -29 -5 -63 -7 -75 -6 -13 2
-23 -2 -23 -7 0 -25 75 -23 155 5 30 10 41 10 47 1 6 -9 8 -9 8 0 0 7 7 10 15
7 25 -10 17 -34 -15 -40 -16 -4 -27 -10 -24 -15 3 -5 17 -3 32 5 25 13 28 12
49 -13 l23 -26 -22 -7 c-39 -11 -76 -9 -81 5 -2 6 -3 4 -1 -6 2 -12 -2 -17
-11 -13 -7 2 -16 -1 -18 -8 -4 -11 2 -12 26 -6 113 28 115 28 138 4 26 -28 21
-36 -25 -39 -18 -1 -38 -5 -44 -9 -13 -8 -65 -18 -104 -20 -36 -1 -26 -13 16
-18 27 -3 33 -1 29 12 -3 10 2 8 14 -6 25 -27 59 -36 74 -17 7 8 15 10 18 4 4
-5 21 -2 43 9 26 12 40 14 47 7 7 -7 11 -7 11 -1 0 5 -5 15 -12 22 -8 8 -8 12
-1 12 6 0 18 -10 26 -23 9 -12 16 -17 16 -11 1 5 -13 23 -30 40 -24 23 -29 25
-24 9 4 -11 -23 12 -59 50 -66 71 -89 109 -38 64 26 -23 26 -22 -3 11 -16 19
-36 38 -42 43 -19 12 -16 35 7 47 10 6 23 10 27 9 23 -4 43 2 38 11 -3 5 0 7
8 4 15 -5 26 18 32 71 2 17 7 41 10 55 8 29 8 38 2 65 -3 11 2 28 11 38 14 15
13 17 -1 17 -22 0 -21 16 4 56 11 19 18 38 14 44 -3 6 4 10 16 10 18 0 20 -3
11 -12 -9 -9 -4 -18 20 -40 18 -16 42 -31 54 -34 17 -5 21 -11 18 -31 -6 -33
4 -63 22 -63 8 0 14 4 14 9 0 5 8 7 19 4 10 -3 21 -1 24 4 3 5 -4 10 -15 10
-27 2 -48 24 -31 30 9 3 10 10 4 21 -4 9 -6 45 -3 80 3 48 8 62 18 58 8 -3 14
-2 14 3 0 5 -9 11 -21 14 -16 4 -19 10 -14 28 4 12 3 19 -2 16 -5 -4 -10 0
-10 8 0 8 3 12 7 10 4 -2 7 2 7 10 0 8 -5 11 -10 8 -5 -3 -7 0 -5 8 3 8 1 26
-3 42 -5 16 -4 25 2 22 5 -4 9 -2 9 4 0 5 -5 11 -10 13 -6 2 -4 11 5 23 9 11
14 14 10 8 -4 -9 -1 -11 11 -6 15 6 15 7 0 15 -11 6 -15 16 -11 29 4 10 2 19
-3 19 -5 0 -10 30 -11 67 -2 75 -2 75 -17 65z m-150 -1073 c-11 -4 -41 -12
-67 -18 -47 -11 -67 -8 -67 8 0 13 50 20 56 9 4 -6 9 -6 13 -1 13 19 56 31 70
20 11 -9 10 -12 -5 -18z"/>
<path d="M2349 2309 c8 -15 22 -31 31 -37 13 -8 16 -6 15 10 -1 11 -9 24 -18
30 -10 5 -15 13 -12 18 3 5 -3 8 -13 7 -17 -1 -18 -3 -3 -28z"/>
<path d="M2978 2296 c4 -6 9 -33 13 -61 l6 -50 2 61 c1 47 -2 61 -14 61 -8 0
-11 -5 -7 -11z"/>
<path d="M750 2280 l-35 -7 43 -2 c23 0 42 4 42 9 0 6 -3 9 -7 9 -5 -1 -24 -5
-43 -9z"/>
<path d="M2182 2267 c-6 -7 -13 -37 -16 -67 -3 -29 -9 -56 -13 -59 -10 -8 -13
-41 -3 -41 4 0 13 18 20 40 7 22 18 40 24 40 6 0 5 5 -2 12 -7 7 -12 19 -12
28 0 13 1 13 10 0 8 -13 11 -13 22 -1 7 8 8 11 2 8 -16 -9 -28 24 -13 33 7 5
8 10 1 14 -5 3 -15 0 -20 -7z"/>
<path d="M2614 2259 c22 -5 43 -6 47 -2 4 5 -13 9 -39 10 l-47 1 39 -9z"/>
<path d="M1643 2184 c-2 -48 0 -52 23 -57 l25 -4 -20 21 c-27 28 -27 39 0 31
14 -5 25 -1 34 12 23 29 17 41 -22 44 l-38 4 -2 -51z m38 13 c-13 -13 -26 -3
-16 12 3 6 11 8 17 5 6 -4 6 -10 -1 -17z"/>
<path d="M2530 2220 c0 -5 7 -10 15 -10 8 0 15 5 15 10 0 6 -7 10 -15 10 -8 0
-15 -4 -15 -10z"/>
<path d="M1741 2166 c2 -25 6 -46 9 -46 11 0 10 79 -1 85 -6 5 -9 -9 -8 -39z"/>
<path d="M1887 2196 c-4 -10 -3 -24 1 -30 5 -6 12 -25 15 -43 5 -26 3 -31 -8
-26 -8 3 -15 1 -15 -5 0 -5 9 -12 20 -15 24 -6 27 -27 3 -27 -22 0 -14 -6 21
-14 26 -6 28 -5 17 8 -8 9 -11 16 -8 16 3 0 0 12 -8 26 -7 14 -11 43 -9 63 3
24 1 31 -5 22 -7 -11 -10 -7 -13 15 -2 24 -4 26 -11 10z"/>
<path d="M842 2171 c-7 -4 -25 -6 -42 -5 -17 1 -33 -3 -36 -8 -4 -7 14 -8 52
-3 32 3 60 8 62 10 7 7 -26 12 -36 6z"/>
<path d="M1703 2128 c2 -12 8 -23 14 -25 6 -2 8 7 6 22 -6 31 -24 34 -20 3z"/>
<path d="M2334 2136 c1 -9 8 -22 14 -28 17 -17 15 -73 -3 -88 -8 -7 -33 -11
-58 -9 -35 3 -43 1 -44 -13 -1 -14 2 -15 23 -6 16 8 31 8 46 1 20 -9 28 -5 55
25 17 19 36 31 42 27 28 -17 6 26 -33 64 -27 26 -44 37 -42 27z"/>
<path d="M460 2130 c-7 -5 -26 -7 -41 -5 -16 2 -31 0 -34 -4 -3 -5 26 -8 65
-7 43 0 65 5 60 10 -13 13 -35 16 -50 6z"/>
<path d="M1852 2079 c-16 -67 -15 -86 3 -86 12 0 15 15 15 69 0 37 -1 68 -3
68 -2 0 -9 -23 -15 -51z"/>
<path d="M2082 2101 c-9 -25 -9 -50 -2 -71 1 -3 6 9 10 25 5 17 12 40 15 53
11 33 -11 27 -23 -7z"/>
<path d="M276 2108 c7 -11 54 -10 54 1 0 5 -13 8 -29 7 -16 0 -27 -4 -25 -8z"/>
<path d="M1650 2024 c0 -88 2 -95 18 -88 9 4 29 7 44 6 27 -1 27 -1 27 66 l-1
68 -38 22 c-22 12 -41 22 -44 22 -4 0 -6 -43 -6 -96z m66 31 c3 -11 1 -32 -5
-47 -7 -18 -6 -29 2 -37 8 -8 5 -11 -11 -11 -23 0 -30 14 -12 25 14 9 12 25
-2 23 -9 -2 -13 10 -14 34 -1 30 2 36 18 35 10 -1 21 -11 24 -22z"/>
<path d="M448 2096 c-27 -5 -48 -13 -48 -17 0 -4 17 -3 37 2 37 8 52 5 40 -7
-3 -3 -30 -10 -59 -14 -39 -5 -45 -8 -23 -10 41 -4 55 -3 87 3 23 5 29 2 34
-19 4 -14 14 -25 25 -25 22 -2 28 -3 50 -13 10 -4 23 -7 30 -5 28 3 50 -1 45
-10 -3 -4 6 -6 19 -3 17 3 25 0 25 -9 0 -12 2 -12 9 0 5 7 14 10 20 6 8 -5 5
-13 -11 -27 l-23 -21 23 6 c12 3 22 1 22 -3 0 -5 -10 -11 -22 -13 -20 -4 -19
-4 5 -6 18 -1 27 4 27 14 0 8 7 15 15 15 20 0 19 29 -2 52 -11 12 -16 32 -14
54 2 28 0 33 -14 28 -13 -5 -14 -8 -3 -15 10 -7 10 -9 1 -9 -18 0 -16 -25 2
-44 19 -19 20 -32 0 -16 -8 7 -25 10 -40 6 -14 -4 -25 -2 -25 3 0 5 10 12 23
14 17 3 15 5 -8 5 -16 1 -47 -2 -67 -7 -22 -5 -38 -5 -38 0 0 5 9 9 19 9 10 0
21 7 25 15 3 9 17 15 33 14 l28 -1 -30 -8 -30 -8 36 -1 c27 -1 36 3 36 15 0
14 -9 16 -61 11 -42 -4 -55 -3 -41 4 17 8 16 9 -7 6 -16 -3 -28 -1 -28 3 0 5
-18 6 -40 3 -26 -4 -40 -2 -40 6 0 6 16 11 37 11 20 0 33 3 30 7 -10 9 -56 9
-109 -1z m132 -66 c0 -5 -11 -10 -25 -10 -14 0 -25 5 -25 10 0 6 11 10 25 10
14 0 25 -4 25 -10z"/>
<path d="M80 2083 l-55 -12 63 4 c37 3 62 1 62 -5 0 -6 -10 -10 -23 -10 -13 0
-28 -5 -35 -12 -9 -9 -12 -9 -12 0 0 7 -5 12 -11 12 -8 0 -8 -4 1 -14 6 -8 18
-12 27 -9 8 3 19 0 24 -8 7 -11 9 -11 9 4 0 9 3 16 8 15 19 -5 52 15 52 33 0
22 -20 23 -110 2z"/>
<path d="M625 2080 c3 -5 18 -10 32 -10 32 0 22 13 -13 18 -16 2 -23 -1 -19
-8z"/>
<path d="M2970 2075 c0 -9 4 -14 9 -10 5 3 12 -5 14 -17 4 -16 5 -14 4 6 -2
31 -27 50 -27 21z"/>
<path d="M1794 2041 c4 -5 1 -11 -5 -13 -8 -3 -6 -10 5 -21 27 -26 36 -20 20
13 -9 17 -18 30 -20 30 -3 0 -3 -4 0 -9z"/>
<path d="M1101 2029 c0 -9 17 -103 39 -209 22 -106 41 -203 42 -215 1 -13 5
-22 9 -19 5 3 -63 362 -84 442 -4 15 -5 15 -6 1z"/>
<path d="M808 1999 c-3 -7 -4 -26 -4 -41 1 -16 -3 -28 -9 -28 -6 0 -7 -3 0 -8
6 -4 12 -14 14 -22 2 -8 7 -29 11 -47 l8 -31 -52 -7 c-28 -4 -60 -9 -71 -11
-42 -8 -119 -14 -107 -8 6 3 10 9 7 14 -6 10 -55 0 -55 -11 0 -5 7 -6 15 -3 8
4 15 1 15 -5 0 -9 -44 -17 -72 -12 -5 0 -8 -4 -8 -10 0 -6 8 -8 18 -5 28 8
112 18 177 21 67 4 95 9 122 23 10 5 27 8 38 6 34 -5 49 10 36 35 -7 12 -9 26
-6 31 3 5 0 12 -6 16 -9 5 -10 -3 -6 -29 4 -29 2 -37 -9 -37 -8 0 -12 5 -9 10
3 6 0 10 -7 10 -9 0 -9 3 2 10 8 5 10 10 4 10 -6 0 -11 6 -12 13 -5 45 -29
128 -34 116z"/>
<path d="M1898 2003 c-15 -4 -17 -19 -17 -115 l0 -110 72 7 c92 9 127 26 62
29 -11 1 -19 7 -17 14 1 6 -2 12 -8 12 -5 0 -10 -4 -10 -9 0 -14 -54 -24 -58
-11 -3 9 -7 9 -14 -1 -6 -10 -8 -7 -6 11 1 14 -1 31 -5 38 -9 13 29 32 64 32
25 0 24 10 -3 65 -23 44 -27 47 -60 38z m42 -67 c-11 -5 -19 -15 -16 -23 3 -8
-2 -13 -14 -13 -27 0 -25 25 2 44 12 9 19 16 15 16 -5 0 -5 5 -1 12 5 7 11 5
21 -8 12 -17 11 -20 -7 -28z"/>
<path d="M903 1993 c9 -2 25 -2 35 0 9 3 1 5 -18 5 -19 0 -27 -2 -17 -5z"/>
<path d="M2986 1951 c-3 -26 -2 -59 3 -72 8 -19 10 -8 10 49 1 39 -1 72 -3 72
-2 0 -6 -22 -10 -49z"/>
<path d="M2194 1959 c-5 -8 -3 -9 5 -4 8 4 18 -1 27 -14 20 -28 36 -27 32 2
-3 25 -51 37 -64 16z"/>
<path d="M2490 1927 c22 -38 37 -132 19 -122 -16 11 -9 -12 9 -28 26 -23 29
-22 36 18 5 27 1 45 -18 79 -13 24 -23 47 -20 50 2 3 1 4 -2 1 -4 -2 -15 6
-26 18 -17 19 -17 17 2 -16z"/>
<path d="M661 1929 c-13 -10 -35 -19 -50 -19 -78 1 -144 -10 -171 -30 -17 -12
-30 -23 -30 -26 0 -2 21 -3 48 -2 36 1 40 2 14 5 -29 4 -30 6 -17 19 8 9 19
13 25 9 18 -11 212 18 217 33 10 24 -11 31 -36 11z"/>
<path d="M1307 1935 c3 -9 -4 -18 -18 -24 -22 -9 -22 -10 -3 -10 19 -1 44 16
44 30 0 4 -7 9 -14 12 -10 4 -13 1 -9 -8z"/>
<path d="M2693 1895 c0 -22 2 -30 4 -17 2 12 2 30 0 40 -3 9 -5 -1 -4 -23z"/>
<path d="M2915 1897 c-38 -62 -47 -79 -37 -73 12 7 65 96 60 101 -2 2 -12 -11
-23 -28z"/>
<path d="M753 1903 c-22 -3 -30 -8 -27 -18 4 -9 -5 -15 -28 -18 -18 -3 -6 -3
27 -1 32 2 63 8 67 12 5 5 -6 7 -24 6 -18 -2 -24 -1 -13 2 11 3 24 10 30 15 5
5 7 8 5 7 -3 0 -19 -3 -37 -5z"/>
<path d="M1651 1825 c4 -76 7 -89 27 -105 13 -11 29 -17 37 -13 11 4 8 12 -15
33 -34 32 -42 80 -13 80 15 0 14 2 -3 15 -19 14 -18 14 4 15 15 0 22 -6 22
-18 0 -10 6 -24 13 -31 10 -11 8 -11 -13 -1 l-25 13 19 -22 c27 -30 34 -26 32
20 -2 37 -7 44 -45 71 l-43 29 3 -86z"/>
<path d="M2080 1891 c0 -4 19 -13 43 -20 23 -7 49 -17 58 -21 10 -5 48 -7 85
-4 164 12 214 12 214 -2 0 -8 5 -14 11 -14 6 0 9 8 7 18 -2 13 -17 18 -63 23
-33 4 -72 10 -88 14 -22 6 -26 4 -22 -7 13 -33 -91 -28 -212 10 -18 6 -33 7
-33 3z"/>
<path d="M610 1880 c-32 -7 -33 -7 -7 -9 16 0 26 -5 22 -10 -7 -13 -48 -10
-57 4 -5 6 -8 3 -8 -7 0 -13 8 -18 25 -18 15 0 24 -5 23 -12 -2 -8 10 -14 30
-16 24 -2 32 1 32 12 0 12 11 16 38 17 20 1 51 5 67 10 20 5 7 6 -35 2 -36 -3
-75 -9 -87 -14 -18 -7 -23 -5 -23 7 0 8 4 13 8 10 4 -2 8 4 8 15 0 10 0 18 -1
18 0 -1 -16 -5 -35 -9z"/>
<path d="M1960 1875 c35 -20 57 -20 40 0 -7 8 -24 15 -39 15 l-26 -1 25 -14z"/>
<path d="M1852 1855 c-1 -16 -4 -78 -6 -138 -1 -59 -6 -110 -10 -114 -3 -3 -6
0 -6 8 0 10 -9 14 -27 13 -16 -1 -30 -3 -33 -4 -3 -1 -8 -2 -12 -1 -11 2 -10
-27 2 -50 11 -19 4 -24 -27 -20 -7 1 -13 -5 -13 -12 0 -8 -6 -20 -14 -27 -8
-6 -12 -18 -9 -25 3 -10 21 -1 62 33 31 26 67 54 79 62 22 15 23 19 20 160 -2
80 -5 132 -6 115z m-44 -257 c7 -7 12 -16 12 -20 0 -13 -37 -9 -49 5 -20 24
14 38 37 15z"/>
<path d="M523 1863 c30 -8 18 -23 -20 -25 -21 -1 -48 -2 -60 -3 -25 -1 -44
-14 -22 -16 98 -8 129 0 129 33 0 12 -7 18 -22 17 -17 -1 -19 -2 -5 -6z"/>
<path d="M361 1851 c-9 -6 -5 -8 13 -8 14 0 26 3 26 8 0 11 -21 11 -39 0z"/>
<path d="M1780 1852 c0 -9 21 -32 30 -32 3 0 7 10 7 22 2 18 0 20 -7 8 -7 -10
-10 -11 -10 -2 0 6 -4 12 -10 12 -5 0 -10 -4 -10 -8z"/>
<path d="M265 1830 c-4 -6 -11 -8 -16 -5 -5 4 -9 1 -9 -4 0 -15 13 -14 36 4
10 8 14 15 7 15 -6 0 -15 -5 -18 -10z"/>
<path d="M2942 1820 c-14 -22 -7 -24 38 -10 25 8 25 8 2 9 -13 1 -20 6 -17 11
3 6 2 10 -2 10 -5 0 -14 -9 -21 -20z"/>
<path d="M703 1823 c9 -2 25 -2 35 0 9 3 1 5 -18 5 -19 0 -27 -2 -17 -5z"/>
<path d="M1228 1823 c12 -2 30 -2 40 0 9 3 -1 5 -23 4 -22 0 -30 -2 -17 -4z"/>
<path d="M326 1812 c-3 -5 10 -8 30 -7 46 3 52 10 9 13 -18 1 -36 -1 -39 -6z"/>
<path d="M200 1791 c0 -4 11 -6 25 -3 14 2 25 6 25 8 0 2 -11 4 -25 4 -14 0
-25 -4 -25 -9z"/>
<path d="M1780 1789 c0 -5 5 -9 11 -9 5 0 7 -4 4 -10 -3 -6 1 -7 9 -4 22 8 20
21 -4 27 -11 3 -20 1 -20 -4z"/>
<path d="M2060 1791 c0 -17 12 -41 21 -41 5 0 9 11 9 25 0 16 -6 25 -15 25 -8
0 -15 -4 -15 -9z"/>
<path d="M2815 1759 c-42 -43 -170 -132 -244 -169 -24 -12 -87 -33 -139 -46
-137 -35 -136 -40 5 -20 86 13 160 42 201 79 12 11 22 16 22 11 0 -5 4 -4 8 1
4 6 30 28 57 50 46 36 92 80 124 119 26 31 5 16 -34 -25z"/>
<path d="M2006 1723 c-39 -50 -45 -66 -21 -57 8 4 15 9 15 13 0 3 11 19 25 35
21 25 33 56 21 56 -2 0 -20 -21 -40 -47z"/>
<path d="M2303 1757 c-3 -7 -3 -9 1 -5 5 4 19 3 32 -2 14 -6 26 -6 29 0 4 6 0
10 -7 11 -7 0 -21 2 -30 4 -10 2 -21 -2 -25 -8z"/>
<path d="M1740 1736 c0 -31 6 -34 13 -6 3 11 1 23 -4 26 -5 3 -9 -6 -9 -20z"/>
<path d="M1880 1685 l0 -74 36 21 c34 20 35 22 16 29 -28 10 -45 45 -38 75 4
14 2 24 -4 24 -6 0 -10 -31 -10 -75z"/>
<path d="M755 1716 c-24 -24 -65 -40 -65 -26 0 5 8 11 18 13 16 4 16 5 -1 6
-10 0 -21 -7 -24 -16 -4 -10 -11 -22 -17 -26 -11 -9 95 -2 142 9 18 4 24 3 17
-3 -14 -14 -160 -37 -176 -28 -8 5 -10 4 -5 -3 4 -7 1 -12 -6 -13 -30 -2 -72
-11 -98 -22 -8 -4 -24 -5 -35 -3 -11 2 -22 0 -25 -4 -3 -4 -32 -11 -65 -15
-81 -10 -100 -13 -100 -15 0 -2 -32 -9 -65 -14 -47 -6 -80 -18 -80 -28 0 -5 4
-7 8 -4 4 2 13 -3 19 -13 9 -15 8 -17 -11 -16 -11 1 -26 -2 -33 -7 -6 -5 -20
-9 -30 -8 -10 1 -21 1 -25 0 -10 -3 -16 -4 -60 -13 -21 -5 -38 -12 -38 -17 0
-13 -6 -14 173 17 106 19 157 32 157 40 0 7 12 13 28 14 28 1 62 5 100 14 12
3 22 1 22 -5 0 -5 8 -10 18 -10 14 0 15 2 2 10 -13 8 -12 10 5 11 13 1 9 4
-10 8 -16 4 -33 3 -36 -2 -4 -5 -8 -5 -10 1 -3 6 -22 7 -51 2 -27 -4 -48 -3
-48 1 0 5 15 10 33 13 17 3 56 10 85 15 28 4 52 5 52 0 0 -4 -10 -10 -22 -12
l-23 -4 23 -2 c12 0 25 -8 28 -16 4 -8 14 -15 23 -15 13 0 14 2 2 9 -10 7 -1
11 32 16 25 4 51 4 58 -1 8 -4 10 -3 5 4 -5 8 1 12 17 12 14 0 24 6 24 15 0
10 -10 15 -26 15 -21 0 -23 -2 -11 -11 11 -7 5 -8 -22 -3 -22 3 -38 2 -38 -3
0 -5 -14 -7 -31 -5 -40 6 -21 18 41 25 25 4 99 15 165 27 66 11 126 20 133 20
22 0 13 -30 -10 -31 -21 -1 -20 -2 4 -9 34 -10 185 9 166 21 -7 5 -11 9 -8 9
3 0 20 4 38 9 20 6 32 6 32 0 0 -5 -10 -9 -22 -9 -12 0 -19 -3 -15 -6 3 -3 20
-3 37 1 31 7 31 7 11 22 -12 8 -18 19 -15 25 5 8 1 9 -11 4 -15 -5 -16 -4 -6
8 10 12 9 13 -8 9 -12 -3 -21 -10 -21 -17 0 -6 -4 -5 -9 3 -8 12 -19 12 -71 2
-34 -7 -64 -10 -67 -7 -3 3 -5 17 -5 31 0 22 -4 25 -37 24 l-36 -1 30 -8 30
-7 -29 -8 c-19 -5 -31 -4 -36 5 -14 23 -61 20 -85 -4z m69 -11 c3 -8 0 -15 -7
-15 -7 0 -23 -3 -37 -5 -22 -5 -22 -4 -5 4 20 10 20 10 0 10 -17 1 -17 3 -5
11 22 14 47 12 54 -5z m61 -25 c-3 -5 -15 -10 -26 -10 -11 0 -17 5 -14 10 3 6
15 10 26 10 11 0 17 -4 14 -10z m155 1 c-20 -12 -107 -25 -98 -16 7 8 66 22
98 24 13 0 13 -1 0 -8z m47 -17 c-10 -10 -137 -32 -137 -23 0 4 24 12 53 17
65 12 92 14 84 6z m-747 -113 c0 -4 -26 -13 -57 -20 -65 -12 -73 -13 -73 -6 0
7 0 6 67 21 32 7 59 13 61 13 1 1 2 -3 2 -8z"/>
<path d="M2394 1695 c-9 -21 -2 -26 13 -10 8 9 9 16 3 20 -6 3 -13 -1 -16 -10z"/>
<path d="M2896 1683 c-4 -17 -23 -57 -42 -90 -19 -32 -24 -47 -13 -33 28 32
72 127 66 143 -2 6 -7 -2 -11 -20z"/>
<path d="M2981 1689 c-12 -20 -13 -20 -26 -2 -13 17 -14 17 -21 0 -3 -10 -4
-21 0 -24 3 -4 6 2 6 13 0 16 2 16 10 4 9 -15 -6 -44 -20 -35 -4 3 -10 -8 -13
-23 -3 -15 -17 -44 -31 -64 -14 -21 -23 -38 -19 -38 3 0 -17 -19 -45 -41 -28
-23 -49 -47 -45 -52 4 -6 15 0 26 14 11 13 24 23 28 22 5 -2 8 1 6 5 -1 5 13
21 31 36 17 15 30 31 27 36 -3 4 2 11 11 14 8 3 13 10 9 15 -3 6 5 19 17 30
12 12 23 28 24 37 1 9 13 27 25 40 12 13 20 26 18 29 -3 2 -11 -5 -18 -16z"/>
<path d="M825 1621 c20 -8 20 -8 0 -13 -16 -5 -15 -6 6 -7 17 -1 26 4 26 14 0
10 -10 15 -26 14 -23 0 -24 -1 -6 -8z"/>
<path d="M733 1613 c-38 -5 -47 -34 -10 -32 30 2 86 16 67 18 -13 1 -13 2 0
11 16 11 8 11 -57 3z"/>
<path d="M1095 1606 c-33 -6 -59 -14 -57 -18 1 -5 2 -12 2 -16 0 -4 10 -8 21
-9 21 -2 21 -1 3 13 -16 14 -17 15 -2 10 10 -3 20 -1 23 4 4 6 18 10 33 10 15
0 34 5 42 10 18 12 13 11 -65 -4z"/>
<path d="M2953 1590 c-3 -11 -10 -17 -16 -13 -6 3 -7 1 -3 -5 4 -6 0 -25 -9
-43 -9 -17 -15 -33 -13 -35 5 -5 32 29 37 47 2 8 7 26 11 42 5 15 6 27 3 27
-3 0 -7 -9 -10 -20z"/>
<path d="M20 1570 l-25 -8 28 -1 c15 -1 27 4 27 9 0 6 -1 10 -2 9 -2 -1 -14
-5 -28 -9z"/>
<path d="M816 1554 c-121 -25 -516 -97 -593 -109 -24 -4 -43 -10 -43 -15 0 -7
255 33 289 45 27 10 157 27 223 30 83 3 238 34 235 48 -1 5 4 12 12 15 8 2 11
0 7 -6 -3 -5 1 -13 10 -16 22 -9 23 -8 17 14 -6 24 -7 24 -157 -6z"/>
<path d="M1095 1571 c9 -9 66 -8 71 1 3 5 -13 8 -35 7 -22 -2 -38 -5 -36 -8z"/>
<path d="M2241 1539 c-1 -19 -27 -44 -33 -32 -3 4 -3 2 -1 -6 5 -18 -15 -41
-31 -35 -8 3 -16 -2 -20 -12 -5 -14 -4 -15 9 -4 25 21 17 -2 -12 -33 -16 -17
-22 -27 -15 -23 16 9 15 6 -5 -40 -9 -22 -18 -44 -19 -51 -1 -7 -15 -24 -31
-38 -15 -15 -23 -24 -16 -21 6 4 14 2 18 -4 3 -5 -1 -10 -9 -10 -9 0 -16 -5
-16 -11 0 -5 6 -7 13 -3 6 4 5 -1 -4 -12 -9 -10 -14 -25 -12 -32 3 -8 -4 -16
-16 -19 -12 -3 -21 -9 -21 -14 0 -5 7 -6 15 -3 11 5 13 2 9 -10 -3 -9 -11 -15
-18 -14 -6 2 -21 -7 -34 -20 l-22 -22 28 -1 c19 0 22 -2 11 -7 -11 -5 -14 -13
-9 -27 8 -22 19 -2 80 150 15 39 60 133 99 210 39 77 69 144 67 150 -3 5 -5 3
-5 -6z"/>
<path d="M1806 1449 c21 -55 111 -189 124 -186 11 3 70 -34 66 -41 -3 -5 0
-14 6 -22 8 -12 9 -12 4 2 -4 13 1 20 17 24 12 3 29 21 38 40 17 36 13 49 -11
33 -10 -5 -11 -9 -3 -9 7 0 10 -7 7 -15 -4 -8 -11 -12 -17 -8 -6 4 -7 1 -2 -7
6 -10 4 -12 -9 -7 -14 5 -17 3 -12 -8 9 -24 0 -19 -73 39 -66 53 -97 98 -132
194 -6 17 -15 32 -19 32 -5 0 2 -28 16 -61z"/>
<path d="M547 1473 c-42 -8 -75 -19 -71 -24 3 -5 13 -5 24 1 15 8 20 6 25 -9
5 -16 24 -31 45 -35 3 -1 11 -5 19 -10 10 -6 12 -5 7 2 -4 8 0 12 12 12 10 0
27 8 36 19 15 17 15 20 2 34 -12 12 -13 17 -3 20 22 10 -16 5 -96 -10z m87
-28 c3 -9 0 -15 -8 -15 -7 0 -28 -3 -45 -6 -26 -5 -30 -4 -25 9 3 9 18 18 32
20 15 2 30 5 33 6 4 0 9 -6 13 -14z"/>
<path d="M1675 1449 c-4 -6 -5 -13 -2 -16 7 -7 27 6 27 18 0 12 -17 12 -25 -2z"/>
<path d="M2254 1436 c-3 -14 -9 -24 -13 -22 -3 2 -7 -17 -8 -42 -1 -44 -1 -45
6 -12 5 19 13 48 20 64 6 16 9 31 7 34 -3 2 -8 -7 -12 -22z"/>
<path d="M216 1410 c-200 -38 -281 -59 -166 -44 30 4 71 8 92 8 20 1 34 5 31
10 -3 5 6 7 21 4 14 -3 26 -1 26 5 0 6 3 7 7 4 3 -4 12 -2 20 5 7 6 16 8 19 5
3 -3 20 -1 37 4 18 5 50 12 73 14 48 5 102 24 69 24 -11 0 -114 -18 -229 -39z"/>
<path d="M95 1420 l-30 -8 35 0 c19 0 44 3 55 8 18 8 18 9 -5 8 -14 0 -38 -4
-55 -8z"/>
<path d="M2720 1408 c-19 -12 -50 -34 -68 -50 -18 -15 -45 -30 -60 -34 -44 -9
-82 -26 -82 -35 0 -5 12 -3 26 3 20 9 30 9 47 -2 20 -12 21 -12 8 3 -12 15
-11 17 3 17 18 0 57 20 67 34 4 5 11 6 17 2 6 -3 14 -1 18 5 4 8 3 9 -4 5 -7
-4 -12 -4 -12 -1 0 10 27 35 38 35 5 0 15 7 22 15 15 19 31 10 23 -13 -5 -14
-3 -15 8 -4 11 10 11 14 -1 27 -13 12 -19 12 -50 -7z"/>
<path d="M1645 1412 c-5 -4 -10 -16 -10 -27 0 -11 -8 -36 -19 -55 -11 -19 -21
-39 -23 -45 -9 -45 -14 -63 -29 -104 -10 -25 -25 -57 -34 -71 -10 -14 -15 -30
-13 -36 7 -20 -22 -33 -126 -61 -105 -27 -131 -41 -45 -23 27 6 66 13 87 17
37 6 38 5 32 -19 -3 -13 -7 -31 -8 -39 -2 -8 -6 -20 -11 -28 -5 -7 -9 -22 -10
-31 -1 -17 -43 -72 -113 -149 -17 -19 -30 -38 -27 -42 2 -5 -11 -24 -31 -43
-19 -19 -35 -38 -35 -42 0 -3 -14 -22 -30 -41 -17 -19 -28 -38 -25 -44 4 -5 1
-9 -5 -9 -6 0 -9 -4 -6 -9 3 -5 -4 -19 -17 -33 -12 -13 -21 -31 -19 -41 2 -9
-2 -17 -8 -17 -7 0 -9 -7 -6 -16 4 -9 1 -23 -5 -30 -9 -11 -8 -14 1 -14 9 0
10 -3 2 -13 -9 -10 -3 -16 24 -26 33 -12 39 -11 66 9 16 12 31 20 32 18 10
-11 14 -68 5 -68 -6 0 -7 -5 -4 -10 4 -6 8 -22 11 -35 9 -52 14 -71 28 -110
17 -48 11 -53 -52 -49 -26 1 -109 5 -185 8 -143 5 -162 9 -153 31 3 8 0 16 -7
18 -7 3 -4 8 7 13 16 6 12 10 -25 18 -39 10 -54 8 -129 -17 -47 -15 -91 -25
-97 -22 -7 2 -13 0 -13 -5 0 -9 -32 -22 -60 -25 -8 -1 -30 -9 -47 -18 -18 -10
-33 -15 -33 -12 0 3 -18 -4 -40 -15 -22 -11 -40 -17 -40 -13 0 5 -5 0 -11 -10
-6 -10 -9 -20 -7 -22 2 -3 88 24 191 58 103 34 187 61 187 59 0 -3 -13 -31
-30 -63 -16 -33 -26 -59 -22 -59 10 0 48 58 67 102 8 21 19 38 24 38 5 0 16 3
25 6 12 5 16 0 16 -19 0 -14 5 -38 10 -52 l10 -26 211 6 c128 4 209 2 205 -3
-3 -5 -18 -12 -33 -15 -16 -3 -37 -13 -48 -21 -18 -14 -16 -14 25 -1 24 9 55
22 67 30 12 8 45 15 73 15 27 0 50 2 50 5 0 3 -7 49 -16 102 -8 54 -13 105
-11 114 3 12 -1 15 -14 12 -14 -4 -16 -1 -12 17 4 17 8 19 15 8 6 -8 7 -4 3
12 -3 14 -1 48 5 75 13 59 13 153 -1 175 -6 10 -8 4 -3 -21 3 -20 -2 -81 -12
-135 -20 -115 -20 -119 -4 -202 16 -82 8 -114 -27 -110 -23 3 -29 11 -45 63
-11 38 -18 98 -19 165 -2 96 1 111 30 183 17 43 31 88 30 100 -1 17 -3 16 -10
-8 -16 -53 -92 -219 -117 -253 -17 -23 -31 -32 -45 -30 -43 6 -34 42 55 208 7
14 30 48 51 75 93 122 199 269 211 294 7 14 16 41 20 60 3 19 21 57 38 84 17
27 50 104 73 171 23 66 49 138 58 159 17 36 9 49 -18 29z"/>
<path d="M2106 1398 c-8 -31 -7 -43 2 -34 4 4 5 8 3 9 -2 1 1 12 8 25 6 12 8
22 3 22 -6 0 -12 -10 -16 -22z"/>
<path d="M5 1400 c-7 -12 12 -12 40 0 18 8 17 9 -7 9 -15 1 -30 -3 -33 -9z"/>
<path d="M2010 1380 c-4 -22 -7 -34 -10 -40 -8 -21 -9 -60 -1 -65 12 -7 24 52
18 91 -2 16 -5 22 -7 14z"/>
<path d="M1230 1368 c0 -10 19 -9 45 2 16 7 14 8 -12 7 -18 -1 -33 -5 -33 -9z"/>
<path d="M2730 1345 c-9 -10 -9 -15 -1 -15 6 0 11 5 11 11 0 5 5 7 10 4 6 -3
10 -1 10 4 0 16 -16 13 -30 -4z"/>
<path d="M986 1341 c-3 -4 4 -17 17 -27 l22 -19 -18 21 c-14 17 -15 23 -5 27
9 4 9 6 1 6 -6 1 -14 -3 -17 -8z"/>
<path d="M2070 1333 c-13 -15 -12 -16 4 -10 10 4 20 7 22 7 2 0 4 5 4 10 0 15
-13 12 -30 -7z"/>
<path d="M2212 1330 c1 -8 -8 -35 -21 -58 -31 -60 -22 -62 11 -4 19 34 24 52
17 62 -9 13 -10 13 -7 0z"/>
<path d="M2703 1325 c4 -5 0 -17 -10 -27 -15 -16 -15 -18 0 -18 22 0 67 21 67
32 0 5 -4 6 -10 3 -5 -3 -20 -1 -32 6 -13 6 -20 8 -15 4z"/>
<path d="M1308 1315 c-3 -3 -23 -8 -44 -10 -22 -2 -39 -4 -39 -5 0 -1 -8 -3
-18 -5 -28 -5 -33 -15 -9 -15 11 0 23 4 26 9 3 4 16 6 28 4 13 -2 39 3 58 11
19 8 28 15 19 16 -9 0 -18 -2 -21 -5z"/>
<path d="M2465 1218 c-27 -24 -50 -42 -52 -40 -2 1 -3 -1 -3 -5 0 -5 -29 -37
-63 -73 -85 -88 -67 -74 50 41 54 53 105 98 113 101 8 3 12 8 9 12 -3 3 -28
-13 -54 -36z"/>
<path d="M853 1225 c-3 -9 -3 -19 1 -22 3 -4 6 2 6 11 0 14 6 17 25 14 13 -3
22 -1 19 3 -9 15 -44 10 -51 -6z"/>
<path d="M2350 1211 c-6 -12 -7 -21 -1 -21 10 0 24 30 17 37 -2 3 -9 -5 -16
-16z"/>
<path d="M2985 1220 c-4 -6 -12 -7 -18 -4 -7 4 -9 4 -5 0 8 -9 -72 -86 -90
-86 -7 0 -15 -7 -19 -16 -5 -13 -7 -13 -14 -2 -7 10 -9 10 -9 -3 0 -8 -9 -25
-21 -38 -16 -17 -24 -19 -34 -11 -10 8 -15 8 -21 -1 -4 -7 -3 -9 3 -6 18 11
23 -20 7 -34 -13 -10 -17 -10 -24 0 -10 17 -33 4 -26 -15 3 -7 -1 -20 -9 -28
-8 -7 -11 -17 -7 -20 3 -4 -1 -4 -11 0 -9 3 -14 11 -10 18 4 6 -1 5 -10 -3
-12 -9 -14 -18 -7 -31 7 -13 5 -22 -7 -31 -15 -12 -16 -12 -11 3 4 9 1 19 -7
22 -11 4 -12 0 -5 -19 10 -26 0 -39 -35 -48 -18 -4 -18 -5 2 -6 16 -1 21 -6
17 -16 -4 -8 -10 -12 -15 -9 -5 3 -6 -3 -2 -12 4 -12 3 -15 -5 -10 -7 4 -12
14 -12 22 0 8 -7 14 -15 14 -17 0 -9 -29 13 -46 16 -12 9 -34 -11 -34 -8 0
-12 -17 -12 -52 0 -28 -4 -53 -10 -55 -6 -1 -10 17 -11 42 -1 50 -9 64 -25 48
-8 -8 -7 -18 5 -34 9 -13 16 -27 16 -31 0 -14 -45 2 -68 26 -26 25 -23 46 6
46 25 0 42 14 46 36 3 10 7 27 11 37 9 22 3 22 -26 -4 -19 -16 -21 -22 -9 -29
17 -10 13 -15 -17 -24 -15 -5 -23 -3 -23 4 0 6 5 8 10 5 6 -3 10 -1 10 4 0 12
-30 15 -31 4 -3 -32 -10 -48 -24 -55 -8 -5 -13 -13 -10 -19 3 -5 -2 -6 -12 -3
-10 4 -2 -7 16 -23 l35 -30 -38 -85 c-32 -72 -36 -89 -27 -107 7 -12 9 -25 6
-30 -10 -17 -43 1 -97 51 -29 27 -47 46 -39 42 11 -6 13 -3 7 12 -7 18 -6 18
12 -1 10 -11 17 -26 14 -33 -2 -7 2 -12 9 -10 8 2 13 -3 11 -10 -1 -7 5 -12
15 -10 10 2 17 -2 16 -9 -2 -6 6 -11 17 -10 27 2 25 10 -8 29 -15 9 -36 26
-46 37 -19 21 -19 22 21 100 29 57 36 78 24 74 -29 -11 -33 -15 -21 -23 9 -6
5 -13 -14 -25 -14 -9 -23 -22 -19 -28 3 -5 2 -7 -4 -4 -5 3 -20 -16 -33 -43
l-23 -50 24 -26 c24 -26 129 -99 133 -92 1 1 15 35 31 73 44 108 84 185 96
185 7 0 7 -6 -2 -17 -13 -17 -13 -17 5 -3 17 14 18 13 12 -7 -4 -12 -2 -24 3
-28 7 -3 8 0 5 9 -3 9 -2 16 4 16 6 0 12 -6 15 -12 2 -7 8 1 12 17 29 125 39
155 67 207 40 75 129 158 203 189 52 21 60 29 86 82 18 34 40 62 54 69 14 6
25 17 25 25 0 16 -6 17 -15 3z m-95 -119 c-14 -21 -30 -31 -47 -31 -15 0 -24
2 -22 5 15 14 85 62 88 59 2 -1 -7 -17 -19 -33z m-407 -422 c8 -6 -18 -69 -28
-69 -2 0 -7 5 -11 12 -5 7 -3 8 6 3 10 -6 12 -4 7 9 -4 10 -3 15 3 11 18 -11
11 8 -12 32 -33 36 -33 61 0 32 15 -13 31 -27 35 -30z m-51 -124 c-11 -22 -22
-33 -26 -27 -9 15 15 63 27 55 7 -4 8 1 3 13 -5 14 -4 16 4 8 9 -9 7 -21 -8
-49z m-29 -70 c-9 -16 -10 -16 -16 -1 -5 12 -3 15 5 10 8 -5 9 -1 4 12 -5 14
-4 16 4 7 8 -7 9 -17 3 -28z"/>
<path d="M1188 1208 c5 -5 19 -4 33 1 23 10 22 10 -8 8 -18 0 -29 -5 -25 -9z"/>
<path d="M1964 1208 c-41 -63 -84 -149 -84 -168 0 -12 2 -13 9 -1 7 11 10 11
15 0 3 -8 4 -4 2 8 -2 14 2 23 15 26 11 3 19 14 19 25 0 12 5 24 10 27 17 11
41 78 31 88 -5 5 -12 3 -17 -5z m-37 -108 c-1 -22 -17 -28 -17 -7 0 12 9 27
16 27 2 0 2 -9 1 -20z"/>
<path d="M2155 1184 c-3 -16 -12 -51 -20 -79 -20 -73 -28 -123 -17 -105 13 20
54 201 48 207 -3 3 -8 -8 -11 -23z"/>
<path d="M1834 1186 c-3 -8 -7 -37 -9 -63 -2 -26 -6 -58 -10 -70 -9 -29 1 -30
16 -1 12 22 20 60 20 86 -2 62 -6 75 -17 48z"/>
<path d="M190 1135 c0 -8 5 -15 11 -15 5 0 8 4 5 9 -4 5 0 12 6 14 8 3 6 6 -4
6 -10 1 -18 -6 -18 -14z"/>
<path d="M214 1055 c-4 -8 -11 -12 -17 -8 -6 3 -7 1 -3 -5 5 -9 13 -9 27 -2
11 6 17 15 14 21 -9 13 -15 11 -21 -6z"/>
<path d="M1965 1050 c-4 -6 -11 -7 -17 -4 -7 4 -8 2 -4 -4 4 -7 3 -12 -3 -12
-5 0 -9 -9 -8 -20 1 -18 2 -18 18 -2 9 9 15 19 13 21 -2 2 1 10 7 18 6 7 9 13
6 13 -3 0 -9 -5 -12 -10z"/>
<path d="M1823 1002 c-27 -25 -44 -49 -49 -72 -6 -33 -33 -99 -44 -110 -7 -7
-54 -103 -56 -115 -1 -6 -16 -33 -33 -59 -17 -27 -33 -63 -36 -80 -11 -74 -16
-140 -21 -281 -6 -171 -8 -188 -30 -209 -14 -14 -14 -16 0 -16 34 0 48 56 52
214 2 83 4 176 4 207 -1 49 6 70 56 168 33 65 61 108 67 104 6 -3 7 -1 3 5 -4
6 -2 19 3 29 5 10 12 26 15 36 3 10 9 16 13 14 5 -3 9 6 9 19 1 13 17 45 36
71 33 47 62 103 56 108 -2 2 -22 -13 -45 -33z"/>
<path d="M2250 1015 c-7 -9 -19 -14 -26 -11 -8 3 -13 0 -11 -6 2 -13 -81 -66
-105 -67 -10 -1 -18 -6 -18 -12 0 -5 5 -7 12 -3 7 4 8 3 4 -5 -4 -6 -10 -9
-14 -7 -4 2 -15 -2 -25 -9 -11 -7 -14 -16 -8 -19 5 -4 12 -2 16 4 11 18 23 11
18 -11 -5 -16 -8 -18 -15 -7 -8 10 -9 10 -6 -1 6 -21 28 -26 28 -6 0 32 32 71
78 97 42 23 105 78 90 78 -3 0 -11 -7 -18 -15z"/>
<path d="M285 1009 c-11 -16 -2 -17 25 -2 24 12 24 13 3 13 -12 0 -25 -5 -28
-11z"/>
<path d="M1890 993 c0 -8 -4 -11 -10 -8 -6 3 -7 -1 -4 -10 6 -14 8 -14 25 1
23 21 24 31 4 31 -8 0 -15 -7 -15 -14z"/>
<path d="M54 985 c-4 -8 -10 -12 -15 -9 -5 3 -9 0 -9 -5 0 -18 19 -12 30 9 6
11 8 20 5 20 -3 0 -8 -7 -11 -15z"/>
<path d="M1958 968 c-8 -13 -18 -33 -22 -45 -6 -18 -3 -23 11 -23 12 0 14 3 6
8 -7 4 -9 13 -4 21 5 7 13 11 19 7 7 -4 4 -25 -9 -63 -10 -31 -19 -63 -19 -72
0 -9 -5 -23 -10 -31 -8 -13 -11 -13 -22 -1 -10 11 -10 14 0 18 6 3 10 9 6 14
-3 5 -1 9 5 9 6 0 8 6 5 14 -3 7 2 20 10 29 15 15 12 27 -7 27 -6 0 -8 -3 -4
-6 3 -3 -3 -26 -14 -51 -21 -50 -25 -98 -7 -109 7 -5 8 -2 3 7 -6 11 -5 12 6
1 11 -10 11 -16 1 -32 -6 -10 -9 -27 -6 -37 4 -13 3 -14 -3 -5 -7 9 -13 6 -22
-12 -14 -25 -8 -47 12 -45 9 0 9 2 0 6 -7 2 -13 9 -13 14 0 5 11 4 24 -2 17
-8 23 -18 21 -35 -1 -13 2 -24 6 -24 5 0 9 5 9 11 0 8 4 8 13 0 10 -8 14 -7
14 4 0 8 -7 15 -16 15 -12 0 -13 2 -4 8 10 6 10 12 -1 28 -19 25 -6 135 33
277 20 74 21 97 2 97 -5 0 -15 -10 -23 -22z"/>
<path d="M2107 973 c-4 -3 -7 -13 -7 -21 0 -12 3 -12 15 -2 8 7 15 16 15 21 0
11 -14 12 -23 2z"/>
<path d="M1840 921 c6 -12 6 -22 1 -25 -5 -3 -7 -16 -4 -27 4 -14 0 -25 -11
-31 -17 -10 -22 -33 -7 -42 5 -4 7 4 3 16 -4 17 -2 20 11 15 14 -5 17 0 17 33
0 22 4 40 9 40 4 0 6 -12 4 -27 -4 -23 -2 -25 7 -11 6 10 8 29 4 44 -5 19 -9
22 -15 12 -7 -10 -9 -9 -9 5 0 9 -5 17 -10 17 -7 0 -7 -6 0 -19z"/>
<path d="M2040 863 c-1 -5 -3 -26 -5 -48 -3 -22 -2 -34 1 -27 3 6 10 9 15 6
12 -7 39 14 39 30 0 6 -5 4 -10 -4 -8 -13 -10 -12 -10 3 0 9 -4 17 -10 17 -5
0 -7 7 -4 15 4 8 1 15 -5 15 -6 0 -11 -3 -11 -7z"/>
<path d="M1867 833 c-4 -3 -7 -16 -6 -27 0 -19 1 -19 10 3 10 24 8 36 -4 24z"/>
<path d="M1784 816 c-17 -18 -24 -45 -13 -51 5 -4 8 -3 7 2 -1 4 4 19 11 31
14 26 12 36 -5 18z"/>
<path d="M1831 769 c-7 -16 -10 -33 -7 -36 3 -4 6 0 6 8 0 11 2 11 10 -1 7
-11 10 -5 10 23 0 20 -1 37 -3 37 -1 0 -8 -14 -16 -31z"/>
<path d="M2390 782 c0 -7 -6 -12 -14 -12 -12 0 -46 -40 -46 -55 0 -3 9 -1 20
5 24 13 55 58 46 67 -3 3 -6 1 -6 -5z"/>
<path d="M1867 773 c-4 -3 -7 -14 -7 -24 0 -29 -26 -69 -37 -58 -6 6 -10 5
-10 -6 0 -8 7 -15 14 -15 8 0 12 -4 8 -9 -7 -13 15 -26 25 -15 4 5 11 23 14
39 7 29 7 29 -8 10 -12 -16 -15 -17 -16 -4 0 8 4 19 9 25 9 9 24 64 18 64 -2
0 -7 -3 -10 -7z"/>
<path d="M0 760 c0 -5 4 -10 9 -10 15 0 20 -51 5 -57 -21 -8 -17 -23 6 -23 26
0 41 38 26 65 -17 31 -46 47 -46 25z"/>
<path d="M1763 739 c-13 -5 -23 -16 -23 -26 0 -15 2 -16 10 -3 5 8 10 11 10 7
0 -5 7 -1 16 8 20 20 16 25 -13 14z"/>
<path d="M1734 682 c-19 -11 -30 -25 -28 -35 1 -9 -7 -24 -19 -32 l-22 -16 23
4 c12 2 29 12 36 23 8 11 27 21 43 22 26 2 43 -15 71 -69 1 -4 -4 -9 -13 -13
-9 -3 -13 -2 -10 4 3 6 2 10 -3 10 -5 0 -12 -8 -14 -18 -4 -15 -1 -18 18 -14
33 6 40 37 15 64 -12 12 -21 27 -21 34 0 17 -43 26 -52 11 -4 -7 -8 -8 -8 -4
0 4 -10 3 -22 -3 -14 -7 -10 0 12 19 40 35 38 37 -6 13z"/>
<path d="M2240 679 c0 -5 -4 -8 -9 -4 -5 3 -12 1 -15 -4 -8 -12 14 -8 39 7 18
10 18 11 3 12 -10 0 -18 -5 -18 -11z"/>
<path d="M2230 640 c-60 -32 -70 -35 -70 -20 0 6 3 9 8 9 20 -3 33 2 27 11 -6
9 -42 5 -54 -6 -2 -2 4 -13 14 -24 15 -16 21 -18 33 -7 13 10 14 9 7 -3 -5 -8
4 -5 20 8 17 13 41 32 55 42 34 26 25 24 -40 -10z"/>
<path d="M1770 600 c-8 -6 -10 -10 -5 -10 6 0 2 -5 -7 -11 -22 -12 -23 -29 -3
-29 9 0 20 12 26 26 11 31 9 36 -11 24z"/>
<path d="M2036 591 c-19 -21 -12 -53 10 -44 8 3 13 8 10 10 -3 3 2 12 10 20
14 14 11 33 -5 33 -4 0 -15 -8 -25 -19z"/>
<path d="M2087 583 c3 -16 6 -34 6 -40 0 -16 37 -17 37 -2 0 6 7 9 15 6 8 -4
17 -2 20 4 4 5 11 7 16 3 11 -6 39 13 39 28 0 5 -6 6 -12 1 -19 -11 -37 -12
-44 -2 -9 14 -22 11 -44 -13 l-20 -22 0 32 c0 18 -4 32 -9 32 -5 0 -7 -12 -4
-27z"/>
<path d="M2500 595 c0 -8 5 -15 10 -15 6 0 10 7 10 15 0 8 -4 15 -10 15 -5 0
-10 -7 -10 -15z"/>
<path d="M2550 586 c0 -14 -5 -28 -11 -31 -6 -4 -8 -14 -5 -22 3 -8 2 -12 -3
-9 -10 6 -25 -24 -16 -32 3 -3 5 0 5 7 0 7 4 9 10 6 6 -4 5 -14 -3 -28 -15
-26 -39 -47 -49 -41 -4 2 -10 -1 -14 -7 -4 -8 -3 -9 4 -5 7 4 12 1 12 -8 0 -8
4 -17 9 -20 5 -4 7 3 4 14 -3 11 0 20 6 20 6 0 11 -7 11 -16 0 -8 5 -12 10 -9
6 3 10 19 10 36 0 16 5 29 10 29 6 0 10 -11 10 -24 0 -32 19 -85 42 -118 29
-42 10 -34 -29 12 -19 22 -40 40 -46 39 -8 0 -8 -2 1 -6 6 -2 12 -9 12 -14 0
-6 -4 -8 -9 -4 -5 3 -12 2 -15 -3 -3 -5 1 -9 9 -10 8 -1 22 -3 30 -4 20 -2 14
-22 -8 -26 -22 -4 -64 38 -47 48 8 5 7 9 -6 14 -25 10 -27 2 -7 -32 26 -46 78
-67 86 -34 3 14 6 12 14 -8 6 -14 28 -36 49 -49 46 -29 134 -136 134 -163 0
-10 5 -18 11 -18 13 0 2 53 -12 58 -5 2 -9 10 -9 18 0 8 -4 14 -10 14 -5 0
-10 7 -10 15 0 8 -4 15 -10 15 -5 0 -10 5 -10 12 0 6 -17 27 -39 47 -21 20
-50 54 -65 77 -34 52 -59 169 -50 235 4 27 4 49 0 49 -3 0 -6 -11 -6 -24z"/>
<path d="M1994 585 c4 -11 2 -22 -6 -27 -11 -6 -10 -8 0 -8 7 0 10 -4 7 -10
-3 -5 0 -7 8 -4 16 6 11 50 -6 61 -7 4 -8 0 -3 -12z"/>
<path d="M1659 583 c-1 -5 -3 -19 -4 -32 -1 -13 -7 -26 -13 -30 -6 -3 -13 -20
-17 -36 l-6 -30 22 25 c12 14 29 24 38 22 12 -3 12 0 -4 13 -11 9 -14 13 -6 9
9 -4 12 -3 7 4 -3 6 -1 14 5 17 5 4 8 14 5 22 -3 8 -2 11 3 8 5 -3 12 -1 16 5
4 6 -5 10 -19 10 -14 0 -27 -3 -27 -7z"/>
<path d="M3 574 c4 -4 31 -18 60 -31 29 -12 51 -27 50 -32 -2 -6 4 -8 11 -5
12 4 11 9 -5 25 -10 10 -19 23 -19 27 0 4 -10 9 -22 9 -13 1 -36 5 -53 9 -17
4 -26 3 -22 -2z"/>
<path d="M2480 549 c-13 -24 -4 -41 10 -19 10 16 13 40 5 40 -2 0 -9 -9 -15
-21z"/>
<path d="M1490 522 c0 -17 -7 -37 -15 -46 -8 -8 -11 -17 -7 -20 5 -3 5 -29 0
-58 -5 -29 -6 -87 -2 -128 4 -41 7 -86 8 -100 1 -14 6 -24 14 -23 6 2 12 -2
12 -7 0 -6 -6 -10 -12 -10 -8 0 -13 -15 -13 -39 0 -47 10 -63 11 -18 1 16 9
36 17 42 9 7 14 15 10 19 -4 4 -10 30 -14 59 -4 29 -10 74 -14 100 -5 30 -3
88 5 148 7 54 10 102 7 106 -4 3 -7 -8 -7 -25z"/>
<path d="M1724 526 c-3 -9 -10 -13 -15 -10 -5 3 -9 -5 -8 -18 0 -13 3 -17 6
-10 2 6 10 9 16 5 7 -3 9 -3 5 2 -4 4 0 13 9 20 11 8 13 14 4 19 -6 4 -14 0
-17 -8z"/>
<path d="M1761 528 c-1 -10 6 -18 14 -18 8 0 15 5 15 11 0 5 -4 8 -9 5 -5 -4
-12 0 -14 6 -3 8 -6 6 -6 -4z"/>
<path d="M1928 524 c11 -8 21 -9 28 -3 8 7 14 5 17 -3 4 -8 6 -7 6 4 1 14 -7
17 -34 16 -30 -1 -32 -3 -17 -14z"/>
<path d="M2127 526 c-16 -13 -16 -14 3 -19 20 -5 29 -27 10 -27 -5 0 -7 -6 -4
-13 2 -7 -4 -22 -16 -32 -21 -19 -26 -35 -11 -35 5 0 19 21 32 47 14 28 25 41
27 33 10 -30 31 -43 47 -30 19 16 9 33 -15 25 -19 -6 -30 12 -26 42 2 10 1 12
-1 6 -6 -17 -21 -16 -25 1 -2 12 -6 12 -21 2z"/>
<path d="M0 512 c0 -5 18 -17 39 -27 32 -14 45 -15 68 -6 l28 11 -28 -5 c-17
-3 -42 2 -67 15 -22 11 -40 16 -40 12z"/>
<path d="M1790 507 c-9 -7 -15 -24 -13 -40 1 -15 -2 -25 -7 -22 -4 3 -7 -3 -6
-12 2 -9 9 -19 17 -21 12 -3 12 -2 0 6 -9 7 -10 12 -2 16 6 4 11 18 11 32 0
13 5 24 11 24 5 0 8 4 5 9 -4 5 0 12 6 14 7 3 9 6 3 6 -5 0 -17 -5 -25 -12z"/>
<path d="M2000 488 c1 -30 2 -31 14 -15 16 20 26 22 26 4 0 -14 -31 -47 -43
-47 -4 0 -7 9 -7 20 0 11 -5 20 -12 20 -6 0 -9 -3 -5 -6 3 -3 -3 -14 -14 -25
-11 -11 -17 -24 -14 -29 4 -6 1 -10 -5 -10 -7 0 -9 -7 -6 -16 4 -11 -1 -18
-15 -21 -12 -4 -18 -11 -15 -20 3 -8 1 -23 -4 -34 -6 -10 -7 -19 -3 -19 5 0
14 -14 20 -31 8 -19 16 -28 24 -24 8 6 8 10 -2 16 -10 6 -11 9 -1 9 6 0 12 5
12 11 0 6 -6 9 -14 6 -8 -3 -17 1 -20 9 -8 21 -8 21 10 28 15 6 15 4 3 -10
-12 -15 -12 -17 1 -12 18 6 20 34 3 30 -7 -1 -13 5 -13 13 0 12 4 13 19 6 10
-6 20 -8 22 -6 3 2 4 -14 4 -36 0 -21 -3 -39 -8 -39 -4 0 -5 -4 -2 -10 3 -5 1
-19 -5 -30 -7 -14 -7 -20 0 -20 6 0 16 12 23 28 6 15 17 33 24 40 10 10 10 16
0 26 -9 10 -14 11 -19 2 -10 -14 -11 5 -2 28 8 22 34 20 35 -1 0 -10 7 -2 14
17 17 43 18 53 6 45 -5 -3 -12 -1 -16 5 -3 5 1 10 10 10 8 0 19 8 22 18 4 9
14 23 22 30 14 11 14 11 0 6 -12 -4 -18 3 -23 26 -3 17 -10 29 -16 25 -5 -3
-10 -1 -10 4 0 6 -4 11 -10 11 -5 0 -10 -15 -10 -32z m38 -58 c-14 -22 -24
-19 -15 5 4 8 11 15 17 15 6 0 6 -7 -2 -20z m-52 -5 c4 -8 11 -12 17 -8 6 3 7
1 3 -6 -4 -6 -11 -9 -16 -6 -4 3 -10 -2 -13 -9 -4 -10 2 -16 16 -18 26 -4 28
-22 3 -26 -11 -3 -16 0 -12 7 4 6 2 11 -4 11 -6 0 -13 -6 -16 -14 -3 -8 -12
-12 -19 -9 -12 4 -12 9 1 28 8 12 14 27 13 31 -6 33 16 48 27 19z"/>
<path d="M1740 486 c0 -17 14 -29 23 -20 8 8 -3 34 -14 34 -5 0 -9 -6 -9 -14z"/>
<path d="M1938 480 c5 -13 4 -13 -13 0 -10 8 -16 10 -12 3 4 -6 3 -14 -3 -18
-5 -3 -10 -12 -10 -18 0 -7 5 -4 11 7 7 11 14 14 18 8 3 -6 13 0 23 13 17 23
17 24 -1 22 -13 -1 -17 -6 -13 -17z"/>
<path d="M1677 455 c10 -13 25 -27 34 -30 22 -8 56 -45 40 -45 -7 0 -10 -4 -6
-9 3 -6 15 -8 26 -6 15 3 23 -2 26 -15 5 -19 23 -29 23 -12 -1 10 -40 59 -40
49 0 -15 -30 21 -30 37 0 8 -4 18 -10 21 -6 4 -7 -1 -3 -11 5 -14 3 -15 -15
-5 -12 6 -26 20 -32 31 -6 11 -15 20 -21 20 -5 0 -2 -11 8 -25z"/>
<path d="M2451 466 c-8 -9 -14 -30 -13 -45 0 -17 -8 -37 -18 -46 -20 -18 -17
-45 5 -45 11 0 11 -8 4 -32 -11 -41 -11 -41 1 -33 6 3 10 17 10 30 0 13 5 27
10 30 6 3 10 12 10 18 0 9 -2 9 -8 0 -6 -10 -12 -9 -28 3 -16 13 -16 15 -2 10
13 -4 20 2 24 19 3 13 4 30 1 37 -2 7 2 21 10 30 8 9 13 22 11 29 -2 7 -8 6
-17 -5z"/>
<path d="M1656 433 c2 -7 -7 -23 -19 -34 -12 -12 -16 -19 -9 -15 7 4 19 3 27
-4 10 -8 19 -8 34 0 15 8 21 8 21 0 0 -6 4 -9 10 -5 5 3 2 14 -7 25 -11 13
-19 16 -24 9 -5 -8 -8 -8 -13 0 -4 6 -4 16 0 23 4 6 3 8 -4 4 -5 -3 -12 -3
-15 1 -2 5 -2 2 -1 -4z"/>
<path d="M2135 413 c-10 -21 -24 -42 -32 -46 -7 -5 -10 -13 -7 -19 4 -6 3 -8
-3 -5 -6 4 -18 -2 -28 -13 -19 -21 -7 -28 13 -8 15 15 15 3 1 -24 -9 -17 -13
-18 -21 -7 -7 10 -8 7 -5 -13 2 -15 0 -33 -5 -40 -7 -10 -8 -8 -4 5 7 24 -11
22 -24 -3 -9 -16 -8 -20 5 -20 17 0 20 -16 5 -25 -5 -3 -10 -1 -10 4 0 6 -4
11 -10 11 -5 0 -7 -6 -4 -14 3 -8 -5 -25 -17 -37 -17 -17 -19 -24 -9 -27 8 -3
16 0 18 7 2 6 8 11 13 11 6 0 6 -7 0 -18 -9 -16 1 -26 71 -72 87 -58 123 -68
123 -36 0 11 5 21 12 23 16 6 28 -18 13 -27 -8 -5 -7 -9 5 -13 9 -4 13 -3 10
2 -3 5 -1 12 5 16 5 3 10 12 10 20 0 8 5 26 12 42 13 33 19 88 8 76 -5 -4 -10
-21 -12 -38 -2 -21 -8 -30 -21 -30 -10 0 -21 -5 -25 -10 -10 -14 -39 -17 -47
-5 -3 5 -12 10 -18 10 -7 0 -4 -5 6 -11 15 -9 16 -13 5 -27 -10 -12 -7 -12 15
2 24 17 38 11 20 -8 -5 -4 -9 -12 -9 -17 -1 -5 -2 -11 -3 -14 -2 -12 -41 16
-41 30 0 7 -5 17 -12 21 -7 4 -8 3 -4 -4 4 -7 1 -12 -9 -12 -8 0 -18 7 -21 15
-4 8 -13 15 -20 15 -12 0 -36 40 -29 48 1 1 14 -4 28 -11 15 -8 24 -17 20 -20
-3 -4 -1 -7 6 -7 7 0 11 6 9 13 -3 6 4 21 15 32 11 11 17 14 13 8 -5 -9 -2
-11 10 -6 14 5 12 8 -10 20 -29 15 -32 23 -14 41 10 10 6 12 -20 10 -17 -1
-32 -8 -32 -15 0 -19 -20 -26 -26 -9 -11 29 35 104 74 123 21 9 42 24 49 33
10 13 12 13 18 -2 4 -10 13 -18 20 -18 7 0 18 -7 25 -15 9 -10 9 -15 1 -15 -6
0 -11 -7 -11 -16 0 -9 -6 -14 -12 -11 -7 2 -12 10 -10 16 1 6 -3 11 -9 11 -5
0 -7 5 -3 12 4 6 3 8 -4 5 -18 -12 -1 -45 29 -56 29 -10 29 -11 16 -38 -14
-28 -13 -53 2 -53 5 0 6 12 3 27 -4 23 -2 25 17 20 18 -4 20 -3 11 8 -7 8 -8
20 -4 26 5 8 3 9 -6 4 -10 -6 -12 -4 -7 9 4 10 3 15 -3 11 -6 -3 -7 1 -4 9 3
9 11 13 18 9 6 -4 15 -8 20 -8 5 0 12 -9 17 -20 7 -18 8 -17 8 6 1 15 -6 32
-14 39 -12 10 -15 9 -15 -4 0 -14 -5 -12 -27 9 -15 14 -31 25 -35 25 -5 0 -8
7 -8 15 0 8 -8 15 -17 15 -10 0 -27 7 -37 15 -16 12 -17 17 -6 30 14 17 34 10
23 -8 -4 -7 0 -6 10 2 15 11 17 11 17 -2 0 -8 7 -18 16 -21 8 -3 13 -10 9 -15
-3 -5 0 -13 6 -17 8 -4 9 -3 5 4 -4 7 -1 12 9 12 11 0 15 -5 11 -16 -3 -8 -2
-12 4 -9 6 3 10 2 10 -3 0 -6 9 -8 20 -5 12 3 22 -1 26 -10 3 -9 12 -13 20
-10 10 4 14 -4 14 -31 0 -20 -4 -36 -10 -36 -15 0 -12 -16 5 -34 8 -8 15 -23
16 -33 0 -12 2 -13 6 -5 3 8 0 24 -6 36 -8 15 -9 30 -3 46 5 14 10 29 10 34 0
5 6 12 12 16 8 5 1 10 -19 15 -36 8 -43 28 -7 21 16 -3 27 1 30 11 5 11 -1 14
-22 11 -18 -2 -26 1 -24 10 1 8 -2 11 -7 7 -6 -3 -8 -12 -4 -20 6 -18 2 -18
-31 -4 -14 7 -23 16 -20 20 3 5 -1 6 -8 4 -7 -3 -33 13 -58 35 -24 22 -47 40
-51 40 -4 0 -15 -17 -24 -37z m35 -63 c0 -5 -5 -12 -12 -16 -7 -5 -8 -2 -3 7
5 8 -4 3 -18 -10 -30 -27 -49 -21 -24 7 10 10 17 24 17 31 0 9 5 9 20 1 11 -6
20 -15 20 -20z m-55 -211 c-8 -23 -31 -25 -39 -3 -5 13 -9 14 -21 4 -8 -7 -12
-16 -9 -21 3 -5 0 -9 -6 -9 -6 0 -10 12 -8 28 2 18 9 27 20 27 10 0 25 8 35
18 17 16 18 16 25 -4 5 -12 6 -30 3 -40z m135 -81 c0 -19 -2 -20 -10 -8 -13
19 -13 30 0 30 6 0 10 -10 10 -22z"/>
<path d="M1907 422 c-19 -20 -23 -37 -7 -27 10 6 33 45 27 45 -2 0 -11 -8 -20
-18z"/>
<path d="M2220 422 c0 -8 6 -12 15 -8 8 3 15 0 15 -7 0 -14 49 -39 61 -31 19
11 8 24 -21 24 -27 0 -35 8 -31 32 0 4 -8 6 -19 5 -11 -1 -20 -8 -20 -15z"/>
<path d="M1800 398 c0 -4 5 -8 10 -8 6 0 18 -16 27 -36 16 -32 18 -34 30 -18
18 25 16 33 -6 29 -18 -3 -36 19 -27 34 3 4 -4 7 -15 7 -10 0 -19 -4 -19 -8z"/>
<path d="M1680 335 c0 -16 2 -17 10 -5 9 13 10 13 10 -1 0 -28 -32 -109 -41
-104 -4 3 -5 13 -2 22 5 12 3 14 -7 8 -9 -6 -12 -4 -8 6 4 9 -1 15 -11 16 -10
1 -18 -5 -18 -12 0 -8 4 -12 9 -9 5 4 8 -2 6 -12 -2 -11 3 -19 11 -19 8 0 16
-5 18 -12 3 -7 -4 -10 -19 -6 -22 5 -22 5 -4 -9 17 -13 17 -17 3 -44 -16 -32
-10 -61 18 -84 14 -12 18 -12 25 0 6 10 4 18 -8 24 -9 5 -20 14 -24 20 -10 15
-10 38 0 32 4 -2 9 7 10 20 1 14 15 52 32 85 17 35 27 67 23 77 -6 15 -5 15
11 3 15 -13 19 -13 26 -1 13 22 2 31 -36 28 -27 -2 -34 -6 -34 -23z"/>
<path d="M1817 323 c-12 -11 -8 -25 5 -17 8 5 9 0 6 -14 -4 -12 -2 -20 3 -16
5 3 9 -4 9 -16 0 -12 4 -18 11 -15 6 4 7 14 4 24 -7 16 -13 39 -14 54 -1 9
-15 9 -24 0z"/>
<path d="M1755 298 c-18 -53 -55 -224 -51 -235 3 -8 1 -11 -4 -8 -13 8 -13 2
4 -29 l14 -27 5 28 c3 15 4 42 1 58 -3 27 -3 28 4 5 8 -23 9 -23 14 -5 3 11 9
29 13 40 5 16 5 17 -4 5 -19 -28 -21 -3 -3 56 10 32 21 54 24 49 3 -6 1 -26
-6 -46 -10 -28 -10 -38 1 -47 8 -8 13 -9 13 -2 0 7 6 8 18 1 9 -5 22 -10 27
-11 6 0 17 -12 25 -25 11 -19 12 -27 2 -37 -9 -9 -12 -8 -12 5 0 20 -26 13
-34 -10 -5 -13 -4 -14 8 -4 11 9 16 9 22 0 4 -8 3 -9 -4 -5 -7 4 -12 1 -12 -9
0 -10 -5 -13 -12 -9 -10 6 -10 5 -1 -8 7 -8 10 -17 7 -21 -5 -5 4 -4 35 2 2 1
-2 7 -8 14 -8 11 -5 19 16 38 21 19 25 20 20 6 -4 -11 -3 -16 3 -12 6 3 14 -5
20 -19 12 -34 22 -33 16 1 -3 14 -18 38 -33 53 -50 47 -59 64 -52 90 4 14 7
18 8 9 1 -9 8 -19 16 -23 8 -3 15 -13 15 -23 0 -10 11 -27 25 -37 14 -10 25
-28 26 -40 0 -21 1 -21 9 -1 6 15 1 27 -21 50 -33 35 -36 43 -13 41 24 -2 28
21 5 27 -13 3 -21 -1 -24 -12 -2 -11 -9 -4 -22 22 -12 24 -21 33 -26 25 -13
-21 -21 -1 -9 24 11 22 10 22 -4 4 -10 -12 -13 -28 -10 -40 11 -33 10 -49 -3
-53 -18 -6 -26 38 -13 72 8 21 8 36 -1 57 -12 30 -27 36 -34 16z"/>
<path d="M2455 295 c-3 -8 -7 -23 -11 -32 -3 -10 -2 -14 2 -10 4 4 12 3 18 -3
8 -6 12 -3 13 11 1 11 -2 17 -7 14 -5 -3 -7 4 -5 15 4 23 -3 27 -10 5z"/>
<path d="M922 283 c-24 -9 -42 -17 -40 -19 6 -5 92 18 103 27 13 13 -12 9 -63
-8z"/>
<path d="M2495 281 c-7 -12 1 -17 43 -26 18 -4 32 -13 32 -21 0 -8 7 -14 15
-14 18 0 19 -12 3 -29 -7 -7 -8 -11 -3 -10 16 4 45 -12 39 -22 -3 -5 -1 -9 5
-9 18 0 23 20 7 26 -9 3 -16 13 -16 21 0 13 3 13 15 3 9 -8 15 -8 15 -2 0 6
-10 14 -22 18 -13 4 -35 20 -50 36 -15 16 -32 27 -37 24 -5 -4 -12 -2 -16 4
-8 13 -22 13 -30 1z"/>
<path d="M2894 269 c1 -13 8 -34 14 -46 7 -12 12 -29 12 -37 0 -9 4 -16 9 -16
11 0 -11 96 -26 111 -9 9 -11 6 -9 -12z"/>
<path d="M2386 245 c-3 -9 1 -18 10 -22 19 -7 28 2 21 22 -8 19 -23 19 -31 0z"/>
<path d="M2176 234 c-10 -26 -7 -33 17 -44 20 -10 21 -10 4 4 -13 10 -17 21
-12 35 7 24 0 29 -9 5z"/>
<path d="M2538 233 c-10 -2 -18 -9 -18 -14 0 -5 -10 -7 -23 -4 -18 5 -28 -1
-46 -24 -35 -45 -54 -49 -47 -8 4 18 -2 9 -14 -23 -25 -70 -25 -106 -1 -137
l20 -24 -6 38 c-3 21 -10 41 -16 44 -13 9 -3 45 11 41 7 -1 12 3 12 8 0 6 11
16 25 22 13 6 27 19 30 30 5 13 16 18 45 18 29 0 39 4 43 20 3 11 4 19 4 19
-1 -1 -10 -3 -19 -6z"/>
<path d="M1053 218 c-18 -6 -33 -15 -33 -19 0 -4 17 -1 38 8 60 24 57 31 -5
11z"/>
<path d="M1860 216 c0 -8 8 -14 19 -13 11 0 17 6 14 14 -7 18 -33 17 -33 -1z"/>
<path d="M635 190 l-30 -8 27 -1 c15 0 30 4 33 9 3 6 5 9 3 9 -2 -1 -16 -5
-33 -9z"/>
<path d="M960 185 c-19 -7 -28 -14 -20 -14 8 0 29 6 45 14 39 17 21 18 -25 0z"/>
<path d="M2323 179 c-6 -6 -9 -18 -6 -26 3 -8 0 -25 -8 -39 -11 -21 -10 -27 2
-40 14 -13 15 -12 11 16 -6 40 5 39 17 -2 9 -32 9 -32 10 -6 1 15 -4 30 -10
34 -7 4 -9 21 -6 40 6 38 6 39 -10 23z"/>
<path d="M2495 181 c-3 -6 -1 -10 6 -9 6 2 14 -3 17 -11 3 -9 0 -11 -9 -6 -8
5 -10 4 -6 0 11 -12 38 -15 31 -4 -3 6 0 18 8 27 11 15 11 15 -3 5 -11 -9 -19
-9 -26 -2 -8 8 -13 7 -18 0z"/>
<path d="M1679 168 c7 -10 11 -27 8 -38 -3 -11 -1 -18 4 -14 15 9 10 41 -8 55
-16 13 -17 12 -4 -3z"/>
<path d="M2599 138 c4 -28 6 -29 9 -9 2 13 0 27 -5 32 -6 6 -7 -3 -4 -23z"/>
<path d="M2925 150 c-4 -6 -12 -7 -18 -4 -7 4 -9 3 -4 -1 13 -15 46 -13 40 2
-6 16 -10 16 -18 3z"/>
<path d="M1920 125 c0 -8 8 -15 18 -15 10 0 23 -5 30 -12 6 -6 15 -9 19 -5 9
10 -32 47 -52 47 -8 0 -15 -7 -15 -15z"/>
<path d="M2707 121 c3 -12 9 -21 14 -21 14 0 11 16 -5 29 -12 10 -13 8 -9 -8z"/>
<path d="M1782 113 c-17 -31 -15 -48 4 -29 8 9 14 24 12 34 -3 15 -5 14 -16
-5z"/>
<path d="M2390 113 c0 -14 62 -33 77 -24 12 6 12 10 -2 21 -12 10 -19 10 -27
2 -8 -8 -17 -8 -30 -1 -10 5 -18 6 -18 2z"/>
<path d="M2493 105 c-3 -9 -3 -19 1 -22 3 -4 6 1 6 10 0 8 8 18 18 20 16 4 16
5 -1 6 -10 0 -20 -6 -24 -14z"/>
<path d="M2548 113 c6 -2 10 -9 7 -14 -4 -5 1 -6 9 -3 20 8 11 24 -12 23 -11
0 -12 -2 -4 -6z"/>
<path d="M1503 90 c3 -11 0 -20 -6 -20 -7 0 -5 -5 3 -10 8 -5 11 -10 6 -10 -6
0 -1 -7 10 -16 18 -15 18 -15 -10 -9 -26 5 -27 5 -12 -10 18 -18 31 -14 46 15
9 16 8 18 -6 13 -11 -4 -15 -1 -14 13 4 35 0 54 -11 54 -6 0 -9 -9 -6 -20z"/>
<path d="M2606 103 c-15 -4 -16 -7 -5 -15 10 -7 8 -8 -9 -5 -21 5 -23 3 -18
-16 5 -22 5 -22 -11 -2 -15 19 -15 19 -7 -5 4 -14 8 -33 8 -42 0 -22 3 -22 21
-4 8 7 11 23 8 35 -4 15 -1 21 11 21 9 0 16 7 16 16 0 8 5 12 10 9 6 -3 10 -1
10 4 0 11 -3 12 -34 4z"/>
<path d="M692 53 c-12 -26 -19 -49 -17 -52 3 -2 14 17 26 43 11 26 19 49 17
52 -3 2 -14 -17 -26 -43z"/>
<path d="M2516 86 c3 -8 1 -17 -4 -20 -6 -3 -8 -15 -5 -26 3 -12 0 -20 -6 -20
-7 0 -9 5 -6 10 3 6 1 10 -4 10 -22 0 -10 -28 14 -32 13 -3 24 -2 23 1 -2 19
4 24 13 11 9 -13 10 -13 6 0 -2 8 -9 14 -15 13 -5 -1 -13 5 -16 13 -4 11 -2
15 6 11 8 -3 14 5 14 19 1 14 -4 24 -12 24 -7 0 -11 -6 -8 -14z"/>
<path d="M1995 80 c-7 -11 10 -19 39 -17 18 0 18 1 0 14 -21 16 -31 16 -39 3z"/>
<path d="M2715 80 c3 -5 2 -10 -3 -10 -5 0 -7 -14 -4 -30 3 -20 10 -30 21 -29
10 0 11 2 4 6 -7 2 -13 9 -13 14 0 6 6 7 13 3 10 -6 10 -4 0 7 -15 16 -17 33
-3 24 6 -3 7 1 4 9 -3 9 -10 16 -16 16 -5 0 -6 -4 -3 -10z"/>
<path d="M1746 54 c-4 -14 -5 -28 -3 -31 3 -2 8 8 11 23 4 14 5 28 3 31 -3 2
-8 -8 -11 -23z"/>
<path d="M1953 72 c-17 -10 -27 -59 -14 -66 6 -4 11 -1 11 7 0 8 7 20 15 27
27 22 17 50 -12 32z"/>
<path d="M2423 45 c13 -28 47 -35 43 -8 -2 14 -25 30 -48 32 -3 1 -1 -10 5
-24z"/>
<path d="M1640 45 c0 -9 4 -14 9 -11 5 4 12 0 15 -6 3 -7 5 -4 3 6 -3 24 -27
34 -27 11z"/>
<path d="M2293 48 c-6 -7 -7 -22 -3 -33 7 -18 8 -17 15 8 8 32 3 43 -12 25z"/>
<path d="M2640 53 c0 -16 16 -30 38 -37 26 -9 28 -3 5 24 -17 20 -43 27 -43
13z"/>
<path d="M2066 43 c-13 -14 -5 -33 14 -33 11 0 20 6 20 14 0 15 -24 28 -34 19z"/>
<path d="M2818 36 c-20 -14 -24 -36 -8 -36 6 0 10 7 10 16 0 11 6 14 22 8 20
-6 21 -5 9 10 -7 9 -14 16 -15 16 0 0 -9 -7 -18 -14z"/>
<path d="M951 23 c-1 -7 -7 -10 -14 -7 -7 2 -24 0 -38 -5 -20 -8 -14 -10 34
-10 35 -1 57 3 57 10 0 6 -6 9 -14 6 -8 -3 -17 -1 -20 6 -3 9 -5 9 -5 0z"/>
<path d="M1285 20 c-3 -5 -16 -10 -27 -10 -12 0 -19 -3 -16 -6 9 -9 78 7 72
17 -7 12 -21 11 -29 -1z"/>
</g>
</svg>
