<?xml version="1.0" standalone="no"?>
<!DOCTYPE svg PUBLIC "-//W3C//DTD SVG 20010904//EN"
 "http://www.w3.org/TR/2001/REC-SVG-20010904/DTD/svg10.dtd">
<svg version="1.0" xmlns="http://www.w3.org/2000/svg"
 width="300.000000pt" height="400.000000pt" viewBox="0 0 300.000000 400.000000"
 preserveAspectRatio="xMidYMid meet">
<metadata>
Created by potrace 1.10, written by Peter Selinger 2001-2011
</metadata>
<g transform="translate(0.000000,400.000000) scale(0.100000,-0.100000)"
fill="#dddddd" stroke="none">
<path d="M439 3997 c-2 -2 -5 -98 -9 -225 -1 -45 -6 -84 -10 -87 -4 -2 -5 -17
-2 -32 5 -28 5 -28 -17 -9 -20 18 -22 18 -39 3 -24 -22 -38 -22 -17 -1 11 12
13 20 6 27 -6 6 -11 22 -11 36 0 24 -1 24 -15 5 -17 -22 -20 -38 -5 -29 6 3
10 1 10 -5 0 -6 -13 -16 -30 -21 -16 -6 -30 -16 -30 -22 0 -6 -3 -7 -7 -4 -3
4 2 16 11 26 18 19 17 20 -23 19 -45 0 -63 -14 -34 -26 10 -4 18 -13 19 -19 1
-7 2 -20 3 -28 0 -10 12 -15 30 -15 36 0 48 -26 24 -52 -16 -18 -17 -18 -40 8
-13 15 -23 31 -23 36 0 4 -9 8 -20 8 -11 0 -20 -7 -20 -15 0 -8 5 -15 10 -15
6 0 10 -8 10 -17 0 -14 2 -15 9 -4 7 11 13 10 30 -6 29 -27 25 -73 -6 -74 -13
-1 -27 -3 -33 -4 -5 -1 -13 -3 -17 -4 -5 -1 2 -6 15 -12 24 -9 22 -29 -4 -29
-12 0 -19 19 -15 43 2 13 -11 8 -24 -9 -11 -16 -12 -16 -18 0 -4 9 -2 16 4 16
6 0 7 5 3 11 -4 8 -9 7 -16 -2 -7 -11 -11 -11 -15 -1 -2 6 -13 12 -24 12 -10
0 -19 7 -19 15 0 8 -6 12 -14 9 -8 -3 -16 -1 -19 3 -3 5 5 9 19 8 14 0 29 -6
33 -14 6 -9 11 -10 15 -2 4 6 18 8 31 5 13 -3 26 0 30 7 5 7 4 10 -3 5 -15 -9
-65 12 -57 24 3 5 15 10 26 10 20 0 26 15 9 25 -20 13 -11 37 13 33 13 -1 32
5 41 15 16 15 16 17 1 17 -9 0 -25 -5 -36 -10 -16 -9 -18 -8 -15 12 3 13 5 27
5 31 1 5 5 6 10 3 5 -4 7 11 4 34 -3 22 -1 46 5 53 16 19 26 154 12 162 -7 4
-17 2 -23 -4 -9 -9 -8 -11 5 -6 11 4 18 2 18 -4 0 -6 -9 -11 -21 -11 -13 0
-18 -4 -13 -12 5 -8 2 -9 -9 -5 -10 4 -23 10 -31 13 -13 5 -26 -37 -27 -91 0
-15 -2 -16 -8 -6 -7 11 -12 7 -24 -15 -8 -16 -24 -38 -36 -48 -18 -16 -21 -31
-21 -93 0 -60 3 -73 16 -73 15 0 15 -2 0 -25 -17 -26 -21 -50 -7 -41 5 4 7 -3
4 -14 -4 -16 0 -20 21 -20 15 0 29 -7 32 -15 4 -8 19 -15 34 -15 31 0 45 -13
35 -31 -5 -7 -15 -5 -30 5 -20 13 -24 13 -29 1 -3 -8 -1 -17 5 -20 9 -6 -13
-35 -28 -36 -16 -2 -43 -20 -43 -29 0 -13 33 -13 46 0 12 12 66 -2 72 -19 3
-8 0 -11 -6 -7 -17 10 -23 -11 -8 -27 16 -16 11 -27 -11 -27 -7 0 -13 7 -13
15 0 14 -29 35 -50 35 -6 0 -8 -5 -4 -12 5 -8 2 -9 -9 -5 -28 10 -19 -9 9 -22
35 -16 25 -25 -12 -11 -29 11 -29 11 -9 -8 11 -11 25 -17 30 -15 6 2 1 -2 -9
-11 -10 -8 -22 -13 -26 -11 -4 2 -7 -19 -8 -47 -1 -37 4 -55 16 -66 16 -13 16
-13 -1 -8 -14 5 -17 -1 -17 -43 0 -38 5 -52 25 -69 14 -12 30 -22 35 -22 14 0
8 23 -10 37 -8 7 -10 13 -5 13 11 2 32 6 54 11 9 3 17 -8 21 -28 7 -31 -2 -46
-13 -23 -3 6 -4 5 -3 -2 4 -20 46 -23 46 -4 0 9 7 16 15 16 21 0 19 46 -1 54
-9 4 -14 9 -11 13 4 3 2 12 -3 19 -6 6 -10 16 -9 20 1 5 1 16 0 24 -1 13 -2
13 -11 0 -8 -13 -10 -12 -10 3 0 9 -5 17 -11 17 -8 0 -8 4 0 14 9 11 8 14 -5
12 -18 -1 -28 40 -12 50 4 3 8 1 8 -4 0 -6 8 -8 18 -5 14 3 18 11 14 28 -4 21
-1 23 30 20 34 -2 62 11 52 26 -3 5 -1 9 5 9 5 0 13 -4 16 -10 3 -5 13 -10 21
-10 11 0 12 4 4 19 -7 14 -7 22 1 27 26 16 50 -50 25 -70 -17 -14 -30 -66 -16
-66 5 0 10 9 10 20 0 14 6 19 22 17 20 -2 22 2 21 49 0 29 -4 57 -7 63 -4 6
-2 11 4 11 16 0 24 -28 23 -89 -1 -31 -2 -56 -4 -56 -1 0 -2 -26 -4 -58 -1
-32 -8 -63 -15 -70 -10 -10 -12 -8 -6 7 7 19 6 20 -14 1 -11 -10 -18 -25 -16
-32 3 -7 -3 -17 -14 -23 -13 -7 -20 -6 -23 3 -3 9 -8 9 -18 -2 -8 -8 -9 -11
-2 -7 20 11 27 -16 8 -30 -10 -7 -21 -11 -25 -9 -4 2 -7 -2 -7 -10 0 -10 5
-11 16 -6 18 10 36 -5 36 -28 0 -8 6 -16 13 -19 7 -2 10 2 6 12 -3 9 -1 16 4
16 14 0 42 29 42 43 0 7 -9 1 -20 -13 -17 -23 -19 -23 -26 -6 -4 11 -2 21 7
27 12 7 12 9 0 9 -11 0 -11 3 -1 15 16 20 26 19 35 -2 17 -42 15 -70 -8 -82
-12 -6 -14 -9 -5 -7 15 4 16 2 6 -19 -10 -22 -12 -23 -33 -9 -23 15 -41 8 -25
-10 6 -8 3 -12 -11 -12 -16 0 -26 23 -16 41 1 2 -8 12 -20 20 -20 14 -26 14
-58 1 -38 -16 -48 -32 -14 -23 12 3 22 0 26 -9 3 -8 11 -14 19 -14 8 0 14 -7
14 -15 0 -8 -7 -15 -15 -15 -24 0 -18 -19 15 -49 21 -18 29 -33 24 -44 -8 -22
-24 -22 -25 1 0 11 -2 12 -6 4 -3 -7 0 -19 7 -27 6 -8 8 -19 4 -26 -4 -7 -2
-10 7 -7 8 3 14 11 14 19 0 9 9 13 25 11 19 -2 22 0 12 10 -6 6 -12 21 -12 31
0 16 2 17 15 7 20 -17 31 -5 15 16 -12 13 -11 17 1 25 21 13 27 11 25 -8 0
-11 5 -17 13 -15 30 7 -2 -350 -40 -443 -9 -23 -13 -26 -16 -12 -6 24 -22 21
-34 -5 -9 -22 -9 -21 -4 3 3 18 0 29 -10 33 -8 3 -14 9 -14 13 4 15 -13 43
-26 43 -19 0 -51 -32 -57 -58 -6 -20 -3 -22 15 -16 22 7 22 6 3 -15 -17 -19
-18 -21 -2 -21 9 0 15 -4 12 -9 -4 -5 -3 -16 0 -24 6 -16 20 -17 41 -4 6 4 14
3 18 -3 10 -16 22 -12 28 10 3 11 11 20 19 19 10 0 10 -2 1 -6 -7 -2 -13 -13
-13 -24 0 -10 6 -19 13 -19 6 -1 1 -10 -12 -20 -15 -13 -18 -20 -9 -20 21 0
38 -108 35 -221 -2 -52 -7 -101 -11 -108 -4 -6 -9 -44 -10 -84 -2 -40 -8 -85
-15 -100 -6 -16 -11 -42 -11 -58 0 -20 -5 -29 -16 -29 -12 0 -14 -5 -8 -17 11
-24 11 -202 1 -196 -5 3 -7 -3 -6 -13 1 -11 -3 -39 -10 -63 -7 -24 -14 -67
-16 -95 -8 -99 -21 -160 -33 -152 -4 2 -8 -8 -9 -22 -7 -81 -17 -124 -29 -129
-8 -3 -11 -9 -8 -14 3 -5 0 -9 -6 -9 -6 0 -9 -4 -6 -9 4 -5 2 -20 -4 -33 -9
-21 -10 -20 -9 12 2 72 0 86 -12 70 -7 -11 -9 -1 -7 38 2 28 0 52 -4 52 -4 0
-8 -24 -10 -52 -2 -38 1 -57 12 -66 8 -8 10 -11 4 -8 -7 3 -17 -1 -24 -9 -9
-11 -9 -15 -1 -15 8 0 9 -6 2 -18 -12 -23 -12 -191 0 -214 6 -12 6 -18 -1 -18
-11 0 -9 -28 4 -48 4 -7 3 -18 -2 -25 -6 -7 -11 -120 -12 -284 l-1 -273 527 0
527 0 -7 51 c-5 33 -3 49 3 45 5 -4 13 -27 17 -51 6 -42 8 -45 37 -45 17 0 36
8 43 18 13 16 13 16 14 0 0 -17 51 -18 920 -18 l920 0 0 700 c0 400 -4 700 -9
700 -9 0 -43 -17 -71 -35 -8 -5 -26 -11 -39 -13 -14 -2 -33 -8 -43 -13 -12 -7
-36 -5 -77 6 -74 19 -193 19 -256 0 -27 -8 -53 -11 -58 -8 -6 4 -7 1 -2 -7 5
-9 2 -10 -13 -6 -29 10 -137 -65 -272 -185 -86 -77 -101 -95 -83 -97 12 -2 26
-9 32 -16 9 -11 -1 -16 -49 -25 -37 -8 -60 -17 -60 -25 0 -8 -13 -16 -30 -19
-38 -8 -81 -52 -104 -108 -10 -24 -15 -27 -19 -15 -4 9 -1 16 6 16 7 1 1 10
-12 20 -24 21 -47 27 -36 11 6 -10 -75 -26 -97 -19 -7 3 -27 -1 -44 -8 -18 -8
-59 -14 -92 -16 -33 -1 -58 -6 -56 -10 3 -4 -7 -9 -23 -10 -15 0 -32 -2 -38
-3 -5 -2 -16 -3 -23 -4 -7 0 -11 -5 -8 -9 2 -4 -6 -9 -20 -10 -13 -1 -24 2
-24 6 0 11 -54 9 -62 -3 -4 -6 -13 -2 -22 10 -13 17 -15 18 -16 3 0 -24 -13
-29 -49 -18 -19 5 -31 5 -31 -1 0 -5 -11 -7 -25 -5 -14 3 -23 1 -20 -5 4 -5
-1 -9 -9 -9 -9 0 -16 6 -16 14 0 10 -11 14 -40 12 -26 -2 -41 2 -45 11 -3 9
-12 12 -25 8 -11 -3 -20 -2 -20 3 0 6 -9 8 -20 5 -14 -4 -20 0 -20 11 0 9 -8
16 -17 16 -13 0 -19 9 -20 34 -4 49 32 71 119 71 l66 0 -21 20 c-45 42 -94 68
-172 92 -73 23 -98 25 -295 27 -118 1 -220 1 -227 -2 -6 -2 -10 -12 -8 -23 2
-11 0 -17 -6 -14 -5 4 -9 -4 -9 -17 0 -37 -16 -55 -37 -42 -14 9 -23 6 -45
-15 -16 -14 -29 -33 -29 -41 -1 -8 -5 3 -9 25 -5 27 -4 42 4 47 8 6 8 8 -1 8
-21 0 -32 -34 -28 -95 l3 -60 -14 55 c-7 30 -11 73 -8 95 3 22 7 54 9 70 7 64
45 117 128 179 24 18 54 59 83 112 25 46 52 84 60 84 7 0 16 12 20 28 51 238
107 371 181 427 25 19 57 35 72 35 32 0 179 28 194 37 6 3 7 1 3 -5 -5 -8 0
-12 13 -12 11 0 60 -13 109 -30 98 -33 123 -36 120 -17 -2 6 3 11 10 9 6 -1
12 4 12 12 0 8 5 18 12 22 7 5 8 3 3 -6 -5 -8 5 -4 23 8 26 19 52 60 40 65
-124 64 -225 110 -224 102 1 -5 5 -16 10 -23 4 -8 10 -33 13 -58 3 -35 0 -48
-17 -66 l-21 -23 -20 24 c-21 26 -25 56 -8 67 6 3 9 14 6 24 -3 11 1 21 10 24
10 4 11 11 4 23 -16 30 -25 113 -12 113 6 0 20 9 31 20 23 23 54 16 47 -11 -3
-11 -1 -22 5 -25 5 -3 12 3 15 15 8 31 47 22 48 -11 0 -3 4 -10 9 -15 5 -5 6
-2 1 5 -5 10 -2 13 10 10 17 -3 26 -30 29 -90 1 -22 4 -24 15 -15 11 9 13 9 8
1 -4 -7 0 -15 9 -18 8 -3 12 -11 9 -17 -4 -6 -13 -8 -21 -5 -8 3 -14 1 -14 -3
0 -15 33 -22 42 -9 6 10 8 10 8 1 0 -7 10 -13 23 -12 21 0 21 1 2 8 -19 8 -19
8 3 15 17 6 22 13 17 24 -18 44 -18 51 4 47 32 -6 81 14 75 30 -3 8 -15 16
-27 18 -16 3 -13 5 9 6 20 0 34 -5 38 -14 9 -25 24 -17 31 16 8 36 3 45 -16
27 -11 -11 -21 -11 -49 -1 -29 10 -34 18 -7 14 4 0 7 4 7 10 0 7 8 18 18 26 9
8 11 12 5 8 -8 -4 -13 0 -13 10 0 9 -7 27 -16 40 -9 14 -18 55 -21 92 -6 82
-21 99 -97 115 -48 10 -57 10 -90 -10 -25 -15 -36 -17 -36 -8 0 14 55 67 62
60 3 -2 13 14 24 36 10 22 24 40 31 40 6 0 9 8 6 18 -8 34 20 45 82 32 49 -10
60 -17 101 -67 35 -44 44 -63 42 -86 -3 -27 -7 -31 -38 -35 -19 -2 -37 -8 -38
-13 -2 -5 -8 -7 -13 -3 -5 3 -9 -17 -9 -45 0 -27 5 -53 10 -56 11 -7 50 -8 85
-3 16 2 21 -4 25 -36 l5 -40 29 57 c25 51 28 65 23 120 -5 65 -16 92 -76 192
-55 92 -81 127 -125 167 -40 36 -40 36 -12 31 27 -6 28 -4 24 25 -2 17 0 34 6
37 7 3 7 7 -1 11 -7 3 -13 12 -13 20 0 9 -4 12 -10 9 -5 -3 -10 1 -10 9 0 8 4
18 10 21 5 3 10 21 10 38 0 22 3 28 9 18 8 -12 13 -12 40 0 17 8 34 22 37 32
3 9 10 14 16 11 8 -5 9 5 5 31 -4 23 -2 44 5 52 5 7 8 24 6 38 -4 19 -1 25 13
25 12 0 16 5 13 15 -4 8 -1 15 5 15 6 0 11 -8 11 -18 0 -25 77 -24 91 1 7 12
17 16 30 12 13 -4 19 -2 19 9 0 10 -6 13 -15 10 -18 -7 -20 7 -2 25 6 8 0 6
-15 -4 -16 -9 -28 -22 -29 -29 0 -6 -4 -2 -9 9 -8 19 -8 19 -18 -5 -7 -17 -11
-19 -11 -8 -1 23 -19 32 -36 18 -8 -6 -19 -9 -25 -5 -6 4 -17 1 -25 -5 -12
-10 -15 -10 -15 1 0 19 -36 40 -55 33 -8 -3 -15 -1 -15 5 0 18 -25 7 -32 -14
-3 -11 -6 7 -6 40 0 79 5 93 58 153 l46 52 39 -41 39 -42 -31 5 c-28 4 -34 0
-47 -25 -8 -17 -12 -36 -9 -43 2 -7 -3 -11 -13 -11 -9 1 -19 -3 -21 -9 -2 -7
5 -10 22 -7 14 3 25 9 25 14 0 14 38 11 42 -3 4 -10 9 -8 21 3 9 9 13 19 10
23 -3 3 2 8 11 12 9 3 14 9 12 13 -3 4 6 8 19 9 29 2 69 -43 62 -70 -6 -21 4
-23 21 -6 9 9 15 8 27 -8 8 -10 14 -23 14 -29 0 -5 -6 -2 -13 8 -9 12 -16 14
-21 7 -4 -6 4 -19 17 -29 15 -13 25 -16 30 -8 6 10 48 -48 48 -67 0 -5 2 -7 5
-5 2 3 -7 35 -20 72 -24 65 -24 67 -5 57 11 -6 21 -15 21 -20 2 -13 6 -29 9
-35 1 -3 3 -9 4 -14 0 -5 5 -13 10 -18 5 -5 6 -3 2 5 -5 8 0 12 13 12 11 0 24
-8 30 -17 5 -10 13 -14 18 -9 4 5 2 11 -4 13 -7 3 -13 11 -13 19 0 9 4 13 9 9
6 -3 9 4 8 15 -1 17 -3 19 -12 7 -5 -8 -20 -17 -32 -21 -21 -7 -22 -5 -14 16
5 13 14 22 20 21 6 -2 11 1 11 6 0 5 9 13 20 16 15 5 19 12 15 26 -4 11 -2 26
5 34 9 10 7 16 -7 24 -10 6 -13 10 -8 11 17 0 38 -17 32 -27 -7 -10 9 -40 17
-32 3 3 2 20 -3 37 -10 33 4 47 16 16 3 -9 9 -12 12 -7 3 4 15 13 26 19 11 6
20 22 21 35 2 76 5 89 17 86 6 -1 13 10 15 25 4 31 32 28 32 -4 0 -10 3 -17 8
-15 4 3 8 -9 9 -26 2 -18 6 -33 11 -35 11 -3 4 -60 -11 -90 -7 -15 -17 -22
-29 -19 -9 3 -19 0 -21 -7 -3 -8 -8 -8 -19 1 -8 7 -18 10 -21 6 -4 -3 -7 -1
-7 7 0 10 -3 10 -15 0 -27 -22 -17 -36 27 -36 23 0 44 -6 46 -13 3 -9 7 -9 18
0 8 6 11 15 8 20 -3 5 2 9 11 9 11 0 15 -6 11 -17 -3 -10 -7 -33 -8 -50 -2
-34 -11 -42 -24 -21 -5 7 -11 5 -21 -8 -14 -18 -14 -18 -31 4 -10 13 -21 20
-25 16 -12 -13 -8 -44 7 -50 9 -3 12 -12 8 -22 -5 -15 -4 -15 11 -3 15 12 17
11 17 -8 0 -14 -4 -20 -11 -15 -17 10 11 -39 30 -53 12 -9 18 -9 23 0 5 8 8 6
8 -5 0 -28 -11 -48 -28 -48 -15 0 -15 -2 0 -17 16 -15 19 -15 44 1 14 10 29
27 31 37 3 10 10 19 15 19 5 0 6 5 3 11 -5 7 -16 2 -31 -12 l-24 -22 0 27 c0
16 4 25 10 21 6 -4 18 -1 26 6 23 19 32 0 38 -83 6 -76 6 -78 -16 -77 -13 0
-17 3 -10 6 7 2 12 22 12 44 l0 39 -26 -16 c-19 -13 -22 -19 -12 -26 10 -7 9
-12 -6 -23 -19 -15 -19 -15 3 -36 17 -16 25 -19 31 -10 5 9 9 8 14 -5 4 -9 2
-22 -4 -28 -5 -5 -10 -15 -10 -21 0 -5 5 -3 10 5 8 13 11 12 24 -5 9 -11 14
-25 12 -31 -7 -18 8 -34 23 -25 11 7 10 13 -4 35 -11 17 -13 26 -5 26 7 0 9 8
5 20 -9 28 20 37 46 14 l21 -19 -23 -5 c-13 -3 -25 -13 -27 -21 -4 -22 22 -51
49 -53 27 -2 52 12 43 25 -3 5 -2 14 2 20 4 8 12 3 20 -12 7 -13 13 -19 14
-13 0 18 34 51 48 47 15 -6 16 31 1 60 -9 16 -9 22 0 25 6 2 11 8 11 12 0 17
-51 60 -70 60 -11 0 -20 5 -20 12 0 9 -3 9 -12 0 -9 -9 -14 -7 -24 6 -12 14
-15 15 -23 3 -8 -12 -12 -12 -25 2 -9 8 -13 23 -10 31 4 11 1 16 -10 16 -18 0
-22 -25 -6 -35 6 -4 7 -12 1 -22 -4 -9 -6 -24 -4 -33 3 -10 0 -21 -6 -25 -8
-4 -11 5 -9 28 1 19 -4 42 -10 50 -7 8 -10 22 -6 31 4 10 1 16 -8 16 -8 0 -20
11 -26 25 -15 32 -15 38 -2 30 22 -14 8 16 -15 31 -26 17 -35 67 -15 79 6 3
10 1 10 -6 0 -8 4 -9 13 0 9 7 17 7 23 1 7 -7 20 -2 38 15 26 24 30 25 45 11
10 -9 23 -16 29 -16 7 0 12 -5 12 -10 0 -6 3 -9 8 -9 31 5 55 -43 31 -65 -9
-8 -10 -8 -5 2 5 8 0 12 -13 12 -12 0 -21 -5 -21 -11 0 -5 -4 -8 -8 -5 -5 3
-7 -9 -5 -27 2 -18 3 -42 3 -54 0 -13 5 -23 10 -23 6 0 10 7 10 15 0 13 4 14
22 4 17 -9 23 -9 26 0 3 8 9 6 18 -6 11 -15 15 -15 23 -4 6 10 10 10 16 1 6
-9 10 -9 16 1 8 11 11 11 20 -4 9 -16 11 -16 27 -1 15 15 15 18 -4 33 -26 21
-27 48 -2 54 13 4 18 0 16 -10 -2 -9 3 -18 11 -21 9 -3 11 0 6 9 -6 11 -5 11
4 3 10 -9 10 -17 1 -34 -16 -30 0 -46 29 -28 11 7 21 18 21 25 0 7 7 13 16 13
10 0 14 7 12 23 -2 12 -9 21 -15 20 -6 -1 -17 5 -25 15 -12 15 -11 16 5 3 9
-7 17 -10 17 -5 0 5 -14 17 -31 26 -17 10 -27 22 -24 28 10 16 35 11 36 -7 0
-12 2 -13 6 -5 3 7 -1 19 -7 27 -14 17 -8 19 42 15 40 -2 65 8 65 26 0 15 -1
15 -12 0 -7 -9 -22 -16 -35 -16 -20 0 -21 2 -9 16 12 15 11 16 -10 9 -16 -5
-21 -4 -17 4 4 5 -2 19 -14 31 -24 24 -25 30 -5 30 8 0 15 3 14 8 -1 4 2 17 6
29 9 27 37 41 33 15 -1 -9 1 -23 6 -30 4 -7 5 -16 1 -20 -3 -4 -11 2 -17 13
-11 19 -11 19 -19 0 -14 -35 -10 -43 21 -41 17 0 30 4 30 9 0 4 5 5 10 2 6 -3
10 0 10 8 0 20 25 28 40 14 10 -9 11 -9 5 3 -6 10 -1 8 13 -4 18 -15 22 -16
22 -4 0 16 -19 34 -57 56 -27 15 -36 15 -28 2 3 -5 1 -18 -4 -27 -10 -17 -11
-16 -12 2 -1 11 -1 24 0 28 1 4 -5 10 -13 13 -12 5 -13 9 -3 25 15 25 27 24
20 0 -4 -16 -1 -19 17 -14 15 4 26 -1 36 -16 9 -12 31 -28 50 -36 19 -8 34
-18 34 -22 0 -11 -20 -40 -20 -29 0 4 -12 -6 -27 -23 -15 -17 -34 -31 -42 -31
-11 0 -11 -3 3 -13 16 -12 16 -14 2 -26 -17 -15 -22 -36 -6 -26 13 8 13 -1 -2
-26 -11 -18 -10 -23 11 -40 13 -10 18 -19 12 -19 -7 0 -9 -5 -6 -11 4 -6 -2
-13 -14 -16 -23 -6 -28 -22 -8 -25 51 -6 107 -2 103 9 -3 8 11 14 40 19 35 5
42 9 34 19 -9 11 -7 12 9 8 21 -5 34 -36 20 -50 -6 -6 -1 -19 11 -33 11 -13
20 -33 20 -45 0 -13 6 -28 14 -34 7 -6 11 -22 8 -36 -3 -19 0 -25 12 -25 13 0
15 4 8 18 -12 24 1 67 20 67 32 0 28 13 -6 19 -37 7 -72 36 -43 36 10 0 14 6
11 15 -4 8 -13 15 -20 15 -12 0 -12 3 -2 14 11 13 15 13 25 -1 11 -15 13 -14
19 1 5 14 9 15 16 4 6 -8 8 -1 6 22 -2 23 -8 35 -18 35 -8 0 -20 6 -26 14 -9
11 -12 12 -19 1 -5 -8 -4 -11 2 -7 14 9 24 -16 13 -33 -6 -10 -11 -8 -19 8 -6
11 -11 29 -11 39 -1 30 -24 52 -51 47 -13 -2 -17 -1 -9 2 36 16 40 26 18 43
-18 15 -19 20 -8 40 13 25 7 35 -29 46 -15 4 -21 3 -17 -3 3 -5 -3 -12 -15
-15 -16 -4 -18 -3 -8 9 6 7 9 20 6 28 -7 18 18 42 28 26 3 -5 1 -10 -4 -10 -6
0 -11 -5 -11 -11 0 -5 4 -8 9 -4 5 3 12 1 16 -4 3 -6 13 -7 22 -4 14 5 10 11
-17 35 l-34 28 -23 -22 c-13 -12 -23 -20 -24 -17 -5 28 -4 47 4 42 5 -3 7 0 5
8 -3 10 -18 13 -47 11 -34 -3 -46 0 -57 16 -32 46 -154 -1 -138 -52 8 -25 24
-37 38 -29 5 3 6 1 2 -6 -4 -6 -11 -9 -16 -6 -4 3 -10 0 -12 -6 -2 -5 -11 -7
-21 -4 -9 4 -15 10 -12 15 2 4 -7 5 -21 2 -22 -4 -25 -2 -20 15 4 13 -1 26
-14 38 -19 17 -19 20 -5 42 9 13 13 33 10 43 -4 12 -2 20 5 20 8 0 10 10 7 26
-4 22 -2 25 16 20 12 -3 27 0 33 5 24 20 48 6 50 -28 2 -47 11 -63 33 -63 27
0 44 31 25 45 -11 7 -3 10 33 11 29 0 48 5 51 14 3 8 0 10 -8 5 -9 -5 -11 -4
-6 4 11 17 28 2 21 -19 -8 -24 26 -45 43 -28 9 9 12 9 12 -1 0 -7 4 -10 9 -7
5 4 12 0 15 -6 3 -7 3 -2 0 11 -3 13 -7 31 -8 39 -3 21 -26 28 -36 12 -6 -9
-11 -7 -19 7 -7 14 -18 19 -33 16 -20 -4 -24 0 -23 24 1 72 58 101 100 51 14
-16 26 -33 26 -36 6 -29 5 -52 -1 -52 -14 0 -4 -32 14 -45 13 -10 14 -14 4
-18 -10 -4 -10 -6 0 -6 10 -1 10 -6 2 -21 -16 -30 -3 -42 25 -24 23 15 25 15
31 -1 4 -9 2 -20 -3 -24 -6 -3 -13 -16 -17 -28 -8 -26 13 -43 26 -19 16 28 28
17 13 -11 -13 -24 -13 -30 0 -42 12 -12 18 -13 27 -3 18 18 28 15 28 -8 0 -11
-4 -20 -10 -20 -21 0 -9 -20 15 -26 34 -8 73 -64 46 -64 -5 0 -13 10 -17 22
-6 21 -7 21 -20 3 -19 -26 -18 -30 11 -43 14 -6 25 -18 25 -27 0 -16 18 -20
35 -7 6 4 12 37 13 73 4 62 3 67 -20 72 l-23 7 23 15 c21 15 22 23 22 127 0
99 -2 110 -14 92 -17 -22 -21 -19 -30 20 -6 22 -4 27 7 23 19 -7 45 39 30 54
-18 18 -73 1 -73 -22 0 -13 -7 -19 -22 -19 -17 0 -19 3 -10 9 8 4 12 19 10 32
-3 21 1 24 42 25 25 2 48 3 53 3 4 1 7 19 7 41 0 22 -3 39 -7 38 -5 -2 -8 2
-8 7 0 6 3 9 8 7 4 -1 7 7 7 18 0 19 -9 19 -339 20 -265 0 -341 -2 -345 -12
-5 -10 -7 -10 -12 0 -4 9 -47 12 -163 12 -130 0 -161 -3 -181 -17 -21 -15 -23
-15 -17 0 5 14 -13 16 -174 17 -115 0 -179 -3 -179 -10 0 -13 -37 -13 -45 -1
-3 6 -100 10 -220 11 -169 0 -215 -2 -215 -12 0 -7 -9 -24 -20 -38 -19 -24
-20 -24 -20 -3 0 56 14 53 -321 53 -170 -1 -310 -2 -310 -3z m1261 -17 c0 -5
-7 -10 -15 -10 -10 0 -15 -10 -15 -30 0 -16 -4 -30 -8 -30 -12 0 -32 22 -32
35 0 5 4 4 9 -3 6 -10 11 -5 21 17 12 29 40 43 40 21z m37 -12 c-3 -8 -6 -5
-6 6 -1 11 2 17 5 13 3 -3 4 -12 1 -19z m-559 -56 c-4 -2 -8 -10 -8 -18 0 -8
-6 -13 -12 -11 -7 1 -13 -5 -13 -13 0 -18 24 -24 44 -11 12 8 12 12 2 25 -12
14 -9 16 19 16 30 0 32 -2 26 -26 -4 -15 -9 -40 -12 -58 -4 -27 -3 -26 10 9 9
22 16 49 16 60 0 17 2 17 14 5 21 -22 25 -56 6 -52 -8 2 -11 0 -7 -5 8 -8 12
-9 38 -12 6 0 9 -8 6 -15 -4 -9 -1 -13 6 -10 16 6 80 -83 67 -91 -6 -4 -10
-14 -10 -23 0 -9 -12 -29 -27 -45 -16 -17 -23 -27 -16 -23 6 3 24 -5 40 -20
15 -14 23 -23 17 -20 -6 3 -26 -10 -45 -30 -18 -19 -38 -33 -45 -30 -6 2 -11
-2 -11 -9 0 -18 24 -6 56 29 68 72 43 -22 -26 -101 -35 -40 -52 -67 -47 -75 4
-7 4 -10 -1 -6 -4 4 -19 -2 -33 -12 -13 -11 -30 -20 -37 -20 -21 0 -25 40 -7
59 9 10 28 31 42 47 l25 29 -31 -28 c-17 -15 -34 -24 -39 -20 -4 5 -5 3 -2 -3
3 -6 -2 -20 -13 -32 -14 -14 -16 -22 -7 -25 9 -4 9 -6 -1 -6 -18 -1 -31 40
-21 67 5 13 9 31 8 40 -1 10 -4 8 -8 -7 -7 -25 -36 -50 -46 -39 -4 3 -9 50
-12 104 -5 72 -3 95 5 90 8 -5 12 0 12 13 0 10 -5 21 -12 23 -13 5 -16 22 -19
140 -2 93 15 143 46 132 10 -4 15 0 15 15 0 12 5 21 10 21 6 0 9 3 9 8 -4 24
3 23 20 -3 10 -16 14 -31 9 -33z m546 39 c3 -5 -1 -11 -9 -15 -9 -3 -15 0 -15
9 0 16 16 20 24 6z m153 -8 c-4 -3 -10 -3 -14 0 -3 4 0 7 7 7 7 0 10 -3 7 -7z
m108 -3 c-3 -5 -1 -10 5 -10 6 0 9 -4 6 -8 -7 -12 -49 -8 -53 5 -4 10 11 18
40 22 5 0 5 -3 2 -9z m102 3 c-4 -3 -10 -3 -14 0 -3 4 0 7 7 7 7 0 10 -3 7 -7z
m58 -3 c-3 -5 -15 -10 -26 -10 -11 0 -17 5 -14 10 3 6 15 10 26 10 11 0 17 -4
14 -10z m145 0 c0 -5 -4 -10 -10 -10 -5 0 -10 5 -10 10 0 6 5 10 10 10 6 0 10
-4 10 -10z m679 -12 c11 -15 11 -18 -1 -18 -7 0 -14 10 -15 21 -1 12 -1 20 0
18 2 -2 9 -12 16 -21z m-2478 -15 c12 -16 12 -17 -2 -6 -9 7 -20 9 -24 5 -5
-4 -5 -1 -1 6 9 16 11 15 27 -5z m1378 -25 c-14 -25 -16 -23 -11 13 3 21 7 27
13 18 4 -7 3 -21 -2 -31z m791 32 c0 -5 -7 -10 -16 -10 -8 0 -12 5 -9 10 3 6
10 10 16 10 5 0 9 -4 9 -10z m76 1 c-4 -5 -1 -12 4 -14 6 -3 5 -4 -2 -3 -15 3
-23 26 -8 26 6 0 9 -4 6 -9z m121 2 c-4 -3 -10 -3 -14 0 -3 4 0 7 7 7 7 0 10
-3 7 -7z m-549 -16 c25 -16 11 -25 -23 -14 -21 6 -31 13 -24 18 14 8 29 7 47
-4z m-468 -22 c0 -9 -6 -12 -15 -9 -8 4 -15 10 -15 15 0 5 7 9 15 9 8 0 15 -7
15 -15z m60 5 c0 -5 -4 -10 -10 -10 -5 0 -10 5 -10 10 0 6 5 10 10 10 6 0 10
-4 10 -10z m289 -2 c-15 -10 -13 -15 14 -41 22 -21 26 -31 17 -37 -14 -8 -5
-50 11 -50 11 0 4 -49 -10 -63 -6 -6 -12 0 -17 19 -4 16 -9 34 -13 39 -3 6 -4
20 -2 33 2 15 -4 25 -21 31 -13 6 -17 10 -9 10 9 1 11 9 7 28 -5 17 -3 29 6
34 20 13 35 10 17 -3z m437 -16 c-3 -6 -16 -8 -27 -5 -21 6 -21 7 -4 20 20 14
42 3 31 -15z m-1232 -2 c5 -5 16 -6 25 -4 9 3 0 -4 -19 -15 -43 -25 -60 -26
-60 -5 0 9 -9 18 -20 21 -11 3 -17 9 -14 14 6 11 74 1 88 -11z m370 11 c7 -11
-22 -23 -36 -15 -6 4 -5 10 3 15 18 11 26 11 33 0z m183 -18 c6 4 14 0 17 -9
9 -23 25 -8 20 19 -4 20 -4 21 5 2 5 -11 10 -25 10 -30 1 -14 -37 -17 -44 -4
-4 5 -16 9 -29 9 -30 0 -39 10 -25 27 10 11 14 10 24 -3 6 -10 17 -14 22 -11z
m489 -9 c-4 -9 -9 -15 -11 -12 -3 3 -3 13 1 22 4 9 9 15 11 12 3 -3 3 -13 -1
-22z m-922 0 c4 -9 1 -23 -5 -30 -9 -11 -8 -18 1 -29 10 -12 10 -15 -4 -15 -9
0 -16 -7 -16 -15 0 -8 -7 -15 -15 -15 -8 0 -15 -9 -15 -21 0 -13 4 -18 13 -13
6 4 5 -1 -5 -11 -21 -22 -38 -12 -38 23 0 48 -3 59 -19 58 -9 0 -19 -5 -22
-10 -9 -11 -26 0 -40 26 -10 19 -9 20 10 15 11 -3 21 -1 21 4 0 5 7 9 15 9 8
0 15 -4 15 -8 0 -4 8 -8 19 -8 12 0 17 5 13 15 -4 11 1 13 21 9 15 -3 24 -1
21 3 -6 11 4 29 16 29 4 0 11 -7 14 -16z m-187 -11 c-4 -3 -7 0 -7 7 0 7 3 10
7 7 3 -4 3 -10 0 -14z m520 0 c-4 -3 -2 -12 5 -20 6 -7 7 -17 3 -21 -4 -4 -10
-1 -12 6 -3 6 -8 10 -12 8 -4 -3 -13 -1 -21 5 -13 7 -12 9 3 9 9 0 17 5 17 10
0 6 5 10 12 10 6 0 8 -3 5 -7z m207 -2 c3 -5 -1 -12 -10 -15 -27 -11 -37 -7
-24 9 14 17 26 19 34 6z m-129 -13 c24 4 36 -12 15 -20 -15 -5 6 -31 27 -33
23 -1 43 -13 43 -26 0 -6 -5 -7 -11 -3 -7 4 -28 8 -47 10 -19 1 -38 8 -42 15
-4 6 -12 9 -17 6 -5 -3 -8 7 -7 21 1 38 5 49 10 36 3 -6 16 -9 29 -6z m331
-15 c-10 -10 -19 5 -10 18 6 11 8 11 12 0 2 -7 1 -15 -2 -18z m108 -31 c8 -26
13 -48 11 -50 -1 -2 -19 6 -39 16 -34 19 -35 20 -14 27 19 6 20 8 6 12 -10 2
-18 8 -18 13 0 5 -3 15 -6 23 -4 11 1 13 20 10 19 -4 28 -16 40 -51z m51 48
c3 -5 1 -10 -4 -10 -6 0 -11 -9 -11 -20 0 -11 -4 -20 -8 -20 -5 0 -7 14 -4 30
4 30 16 39 27 20z m192 -32 c-3 -7 -5 -2 -5 12 0 14 2 19 5 13 2 -7 2 -19 0
-25z m-1080 5 c-4 -3 -7 0 -7 7 0 7 3 10 7 7 3 -4 3 -10 0 -14z m1038 7 c-3
-5 -2 -10 4 -10 5 0 12 5 14 10 3 6 4 5 3 -2 -4 -19 -32 -32 -52 -24 -18 7
-17 9 6 21 30 17 33 18 25 5z m285 1 c0 5 5 9 12 9 6 0 3 -8 -7 -20 -12 -13
-23 -17 -33 -11 -8 5 -23 6 -33 4 -12 -4 -19 0 -19 9 0 12 8 14 40 8 22 -4 40
-3 40 1z m-768 -13 c-17 -17 -15 -25 8 -31 11 -3 20 -11 19 -19 0 -11 -2 -11
-6 1 -4 10 -7 11 -13 1 -5 -7 -3 -21 3 -31 16 -25 -1 -38 -19 -15 -8 11 -14
14 -14 8 0 -10 -5 -10 -20 -2 -15 8 -18 17 -13 40 3 19 1 30 -5 30 -6 0 -9 7
-6 15 4 9 19 15 42 15 28 0 33 -3 24 -12z m176 -10 c-2 -6 -10 -14 -16 -16 -7
-2 -10 2 -6 12 7 18 28 22 22 4z m182 6 c0 -8 -19 -13 -24 -6 -3 5 1 9 9 9 8
0 15 -2 15 -3z m-800 -40 c0 -7 -19 -23 -41 -35 -36 -18 -41 -19 -35 -4 3 9 6
20 6 24 0 4 9 17 21 30 16 17 24 20 35 10 8 -6 14 -18 14 -25z m230 26 c0 -5
-2 -10 -4 -10 -3 0 -8 5 -11 10 -3 6 -1 10 4 10 6 0 11 -4 11 -10z m-190 -4
c0 -3 -4 -8 -10 -11 -5 -3 -10 -1 -10 4 0 6 5 11 10 11 6 0 10 -2 10 -4z
m1230 -21 c0 -8 -9 -15 -20 -15 -20 0 -26 11 -13 23 12 13 33 7 33 -8z m-2380
-11 c0 -2 -9 -4 -21 -4 -11 0 -18 4 -14 10 5 8 35 3 35 -6z m990 12 c0 -2 -8
-10 -17 -17 -16 -13 -17 -12 -4 4 13 16 21 21 21 13z m207 -2 c-3 -3 -12 -4
-19 -1 -8 3 -5 6 6 6 11 1 17 -2 13 -5z m590 -21 c-4 -3 -7 0 -7 7 0 7 3 10 7
7 3 -4 3 -10 0 -14z m503 7 c0 -5 -2 -10 -4 -10 -3 0 -8 5 -11 10 -3 6 -1 10
4 10 6 0 11 -4 11 -10z m-2664 -27 c-10 -10 -19 5 -10 18 6 11 8 11 12 0 2 -7
1 -15 -2 -18z m1259 17 c3 -5 4 -10 1 -10 -3 0 -8 5 -11 10 -3 6 -4 10 -1 10
3 0 8 -4 11 -10z m354 -120 c4 0 8 -7 8 -16 0 -14 -2 -14 -14 2 -7 10 -13 27
-13 37 0 16 -3 17 -14 8 -10 -9 -16 -9 -21 -1 -4 6 -4 14 -1 17 3 4 6 0 6 -8
0 -8 7 -1 15 15 9 16 13 31 10 34 -3 3 -5 -1 -5 -8 0 -7 -2 -11 -5 -8 -3 3 0
18 7 34 12 27 13 25 16 -39 2 -37 6 -67 11 -67z m71 121 c0 -23 -37 -87 -48
-83 -6 2 -12 8 -12 13 0 6 5 7 12 3 8 -5 9 -2 5 10 -4 10 -1 19 9 23 9 3 14
13 11 24 -3 12 0 19 9 19 8 0 14 -4 14 -9z m455 -12 c5 -6 3 -9 -7 -9 -8 0
-21 -6 -27 -13 -8 -10 -7 -14 4 -14 8 0 15 4 15 9 0 4 5 8 10 8 7 0 7 -6 0
-20 -6 -11 -8 -21 -5 -21 3 -1 10 -2 15 -3 6 0 15 -8 21 -16 7 -11 8 -3 4 28
-5 33 -4 42 8 42 9 0 17 -14 21 -34 4 -19 13 -39 21 -46 8 -7 13 -16 10 -20
-3 -5 -1 -11 5 -15 16 -10 11 -25 -9 -25 -10 0 -24 7 -31 15 -7 8 -17 15 -22
15 -6 0 -8 -7 -4 -15 3 -8 2 -15 -2 -15 -14 1 -42 27 -43 41 0 9 -2 10 -5 3
-7 -16 -44 -5 -44 13 0 9 -6 13 -14 10 -16 -6 -96 30 -96 44 0 5 14 15 30 24
17 9 30 13 30 10 0 -14 6 -21 28 -32 13 -7 25 -13 26 -13 2 0 3 6 4 13 4 53 6
57 27 51 11 -3 24 -10 30 -15z m-579 -26 c-4 -4 -11 -1 -16 7 -16 25 -11 35 7
17 9 -9 13 -20 9 -24z m179 20 c-4 -10 -10 -26 -12 -35 -6 -21 -23 -24 -23 -4
0 8 -3 16 -7 19 -5 2 -2 2 5 1 6 -2 12 5 12 16 0 12 7 20 16 20 11 0 14 -5 9
-17z m-253 -15 c-6 -6 -15 -8 -19 -4 -4 4 -1 11 7 16 19 12 27 3 12 -12z m274
-4 c-4 -9 -9 -15 -11 -12 -3 3 -3 13 1 22 4 9 9 15 11 12 3 -3 3 -13 -1 -22z
m-1770 4 c4 -6 2 -14 -4 -16 -7 -2 -17 -13 -23 -24 -8 -15 -8 -19 0 -14 7 5
11 -6 10 -31 -1 -37 -1 -37 -11 -11 -9 25 -13 27 -46 22 -20 -3 -41 -8 -47
-11 -5 -3 7 11 29 31 21 20 43 33 50 29 6 -3 8 -3 4 2 -8 9 9 35 23 35 4 0 11
-5 15 -12z m1377 -18 c3 -14 -2 -28 -16 -41 l-22 -20 -3 28 c-2 15 1 29 7 31
6 2 11 10 11 18 0 21 16 9 23 -16z m485 -9 c-2 -24 -6 -27 -27 -23 -15 3 -20
7 -13 9 6 3 12 15 12 29 0 17 4 22 15 18 9 -4 14 -17 13 -33z m879 32 c-4 -3
-10 -3 -14 0 -3 4 0 7 7 7 7 0 10 -3 7 -7z m-1459 -42 c6 -17 -15 -38 -43 -43
-32 -6 -38 11 -13 38 21 23 49 26 56 5z m195 -4 c4 3 7 2 7 -4 0 -22 -15 -23
-33 -1 -15 19 -18 19 -13 4 5 -15 4 -17 -8 -7 -15 13 -26 -4 -26 -40 0 -10 -6
-19 -14 -19 -8 0 -16 -6 -19 -12 -2 -7 -4 -1 -4 15 0 19 10 37 34 58 32 28 37
29 52 15 10 -9 21 -13 24 -9z m314 6 c-4 -3 -7 0 -7 7 0 7 3 10 7 7 3 -4 3
-10 0 -14z m1043 -13 c0 -5 -4 -10 -9 -10 -6 0 -13 5 -16 10 -3 6 1 10 9 10 9
0 16 -4 16 -10z m-1315 -10 c3 -5 -1 -10 -9 -10 -9 0 -16 5 -16 10 0 6 4 10 9
10 6 0 13 -4 16 -10z m-1275 -10 c0 -5 -2 -10 -4 -10 -3 0 -8 5 -11 10 -3 6
-1 10 4 10 6 0 11 -4 11 -10z m1070 -11 c10 -17 8 -24 -11 -40 -24 -21 -39
-24 -39 -9 0 6 5 10 11 10 5 0 7 4 4 10 -6 9 11 50 20 50 2 0 9 -9 15 -21z
m360 7 c0 -2 -8 -10 -17 -17 -16 -13 -17 -12 -4 4 13 16 21 21 21 13z m348
-11 c4 -4 -3 -4 -15 -1 -27 9 -31 -10 -9 -40 14 -19 15 -19 22 0 7 18 8 18 20
1 14 -18 34 -13 34 10 0 9 6 12 15 9 8 -4 15 -14 15 -24 0 -10 4 -20 9 -22 14
-5 25 -58 12 -58 -6 0 -11 7 -11 16 0 8 -4 13 -9 10 -10 -7 -71 16 -71 26 0 4
-8 8 -17 8 -15 0 -16 -2 -3 -10 8 -5 11 -10 6 -10 -5 0 -3 -7 5 -16 10 -13 10
-17 0 -24 -8 -4 -11 -12 -8 -18 8 -12 -36 -10 -45 3 -5 6 -8 5 -8 -2 0 -7 -4
-13 -8 -13 -5 0 -9 14 -9 30 0 17 5 30 11 30 6 0 5 4 -2 9 -10 6 -11 17 -2 53
10 40 15 46 36 43 14 -1 28 -6 32 -10z m-1795 -1 c3 -3 3 -12 0 -20 -4 -11 -9
-12 -19 -3 -8 6 -11 15 -8 20 6 10 18 12 27 3z m1265 -14 c-2 7 6 16 16 18 19
4 19 3 2 -13 -9 -10 -15 -24 -12 -32 8 -20 -2 -33 -19 -27 -8 4 -12 10 -9 15
3 5 0 9 -6 9 -6 0 -9 4 -5 9 3 5 1 12 -4 16 -6 3 -8 -4 -6 -16 2 -12 -2 -30
-9 -40 -11 -16 -15 -17 -30 -6 -16 12 -16 14 4 40 12 15 18 27 13 28 -4 0 1 4
12 9 14 5 26 2 38 -8 15 -13 18 -13 15 -2z m909 3 c-4 -3 -7 0 -7 7 0 7 3 10
7 7 3 -4 3 -10 0 -14z m300 10 c-4 -3 -10 -3 -14 0 -3 4 0 7 7 7 7 0 10 -3 7
-7z m-2802 -13 c-3 -5 -14 -10 -23 -9 -14 0 -13 2 3 9 27 11 27 11 20 0z m262
3 c-4 -3 -10 -3 -14 0 -3 4 0 7 7 7 7 0 10 -3 7 -7z m2603 -44 c0 -18 -10 -8
-25 24 l-16 32 21 -24 c11 -13 20 -27 20 -32z m-1160 31 c0 -5 -2 -10 -4 -10
-3 0 -8 5 -11 10 -3 6 -1 10 4 10 6 0 11 -4 11 -10z m-40 -10 c0 -5 -4 -10
-10 -10 -5 0 -10 5 -10 10 0 6 5 10 10 10 6 0 10 -4 10 -10z m127 4 c-3 -3
-12 -4 -19 -1 -8 3 -5 6 6 6 11 1 17 -2 13 -5z m-1430 -21 c-4 -3 -7 0 -7 7 0
7 3 10 7 7 3 -4 3 -10 0 -14z m2547 -4 c-6 -11 -24 -2 -24 11 0 5 7 7 15 4 8
-4 12 -10 9 -15z m-2807 4 c-4 -3 -10 -3 -14 0 -3 4 0 7 7 7 7 0 10 -3 7 -7z
m2171 -28 c-3 -3 -9 2 -12 12 -6 14 -5 15 5 6 7 -7 10 -15 7 -18z m-1908 8 c0
-5 -5 -15 -10 -23 -8 -12 -10 -11 -10 8 0 12 5 22 10 22 6 0 10 -3 10 -7z
m997 -10 c-4 -3 -7 0 -7 7 0 7 3 10 7 7 3 -4 3 -10 0 -14z m493 9 c0 -4 -9 -8
-20 -9 -11 -1 -20 2 -20 8 0 5 9 9 20 9 11 0 20 -4 20 -8z m534 -14 c-5 -7 -1
-9 9 -5 11 4 14 2 11 -8 -3 -7 -14 -15 -25 -18 -15 -4 -19 -2 -15 10 3 8 6 21
6 29 0 9 5 12 10 9 6 -4 7 -11 4 -17z m-29 2 c-3 -5 -11 -10 -16 -10 -6 0 -7
5 -4 10 3 6 11 10 16 10 6 0 7 -4 4 -10z m-662 -17 c-9 -3 -9 -10 3 -28 9 -14
11 -25 5 -29 -13 -8 -34 31 -27 50 3 8 11 14 18 13 10 0 10 -2 1 -6z m768 -20
c10 -11 10 -14 2 -9 -8 4 -13 2 -13 -8 0 -8 6 -17 13 -19 6 -3 2 -6 -10 -6
-14 -1 -23 5 -23 13 0 8 -3 21 -6 30 -8 22 20 21 37 -1z m-2164 1 c-3 -4 3
-14 13 -23 27 -22 34 -69 12 -80 -24 -12 -42 -3 -42 22 0 12 -4 28 -9 36 -12
19 -2 51 17 51 8 0 13 -3 9 -6z m1364 -1 c6 -40 5 -74 -1 -62 -14 27 -21 69
-10 69 5 0 10 -3 11 -7z m640 -23 c5 0 9 -4 9 -10 0 -5 -6 -10 -14 -10 -8 0
-16 -4 -18 -10 -2 -6 -8 -6 -18 1 -13 8 -13 11 3 23 9 7 18 19 18 27 1 8 3 7
6 -3 2 -10 9 -18 14 -18z m-1954 3 c-4 -3 -7 0 -7 7 0 7 3 10 7 7 3 -4 3 -10
0 -14z m1280 11 c-3 -3 -12 -4 -19 -1 -8 3 -5 6 6 6 11 1 17 -2 13 -5z m633 2
c0 -3 -5 -8 -12 -12 -7 -4 -8 -3 -4 4 7 12 16 16 16 8z m120 -28 c0 -6 -6 -5
-15 2 -8 7 -15 14 -15 16 0 2 7 1 15 -2 8 -4 15 -11 15 -16z m-2133 -5 c-4 -3
-7 0 -7 7 0 7 3 10 7 7 3 -4 3 -10 0 -14z m1208 7 c3 -5 4 -10 1 -10 -3 0 -8
5 -11 10 -3 6 -4 10 -1 10 3 0 8 -4 11 -10z m282 3 c-4 -3 -10 -3 -14 0 -3 4
0 7 7 7 7 0 10 -3 7 -7z m1200 1 c-3 -3 -12 -4 -19 -1 -8 3 -5 6 6 6 11 1 17
-2 13 -5z m-1634 -31 c-6 -10 -8 -33 -6 -51 3 -31 2 -32 -20 -21 -12 6 -23 13
-25 14 -5 4 18 47 36 68 19 21 27 16 15 -10z m467 7 c0 -5 -2 -10 -4 -10 -3 0
-8 5 -11 10 -3 6 -1 10 4 10 6 0 11 -4 11 -10z m593 -14 c7 4 2 -4 -10 -17
-12 -12 -26 -19 -30 -15 -4 5 -2 11 5 13 6 3 12 12 13 21 0 11 2 12 6 4 2 -6
10 -9 16 -6z m62 4 c3 -5 4 -10 1 -10 -3 0 -8 5 -11 10 -3 6 -4 10 -1 10 3 0
8 -4 11 -10z m312 3 c-4 -3 -10 -3 -14 0 -3 4 0 7 7 7 7 0 10 -3 7 -7z m-2505
-63 c-4 -16 18 -41 29 -34 5 3 7 10 4 15 -4 5 -2 9 4 9 23 0 20 -20 -6 -33
-47 -24 -73 -30 -73 -16 0 7 3 9 7 6 7 -8 33 11 33 25 0 5 -9 4 -19 -2 -26
-13 -34 -13 -25 1 4 7 7 25 6 41 -1 28 0 29 21 15 12 -9 21 -21 19 -27z m2178
30 c0 -5 -6 -10 -14 -10 -8 0 -16 -6 -19 -12 -4 -10 -7 -10 -18 0 -11 10 -10
12 4 12 9 0 17 5 17 10 0 6 7 10 15 10 8 0 15 -4 15 -10z m-120 -10 c8 -5 11
-12 8 -16 -10 -9 -38 3 -38 16 0 12 10 13 30 0z m-2103 -14 c5 -4 2 -6 -6 -4
-8 2 -17 -8 -22 -24 -5 -21 -4 -28 7 -28 8 0 14 -7 14 -15 0 -8 -7 -15 -16
-15 -8 0 -13 4 -9 9 3 5 0 13 -6 17 -13 8 -30 -15 -22 -31 3 -5 0 -5 -7 1 -14
14 -4 55 13 51 7 -1 12 9 12 24 0 18 4 25 17 24 10 -1 21 -5 25 -9z m860 -3
c-4 -3 -7 0 -7 7 0 7 3 10 7 7 3 -4 3 -10 0 -14z m26 -8 c-7 -21 -12 -19 -10
4 0 11 5 18 9 15 4 -3 5 -11 1 -19z m1652 15 c3 -5 4 -10 1 -10 -3 0 -8 5 -11
10 -3 6 -4 10 -1 10 3 0 8 -4 11 -10z m-305 -15 c-7 -9 -15 -13 -17 -11 -7 7
7 26 19 26 6 0 6 -6 -2 -15z m-2100 -5 c0 -5 -5 -10 -11 -10 -5 0 -7 5 -4 10
3 6 8 10 11 10 2 0 4 -4 4 -10z m2451 -21 c10 -19 9 -20 -10 -9 -12 6 -21 18
-21 26 0 19 16 10 31 -17z m-421 9 c0 -13 -24 -22 -28 -10 -2 7 -9 9 -14 6 -6
-4 -8 -3 -5 2 7 11 47 13 47 2z m93 -7 c3 -13 1 -18 -9 -14 -7 2 -10 11 -7 19
7 19 10 18 16 -5z m-2136 -18 c-4 -3 -7 0 -7 7 0 7 3 10 7 7 3 -4 3 -10 0 -14z
m990 11 c-3 -3 -12 -4 -19 -1 -8 3 -5 6 6 6 11 1 17 -2 13 -5z m693 -4 c0 -5
-4 -10 -10 -10 -5 0 -10 5 -10 10 0 6 5 10 10 10 6 0 10 -4 10 -10z m-705 -54
c8 -3 15 -14 15 -24 0 -22 -27 -49 -38 -38 -4 4 2 14 12 22 19 14 19 14 -4 36
l-23 22 5 -22 c5 -19 4 -20 -13 -11 -17 9 -18 12 -5 25 8 8 13 22 10 32 -3 9
2 5 10 -9 8 -15 22 -29 31 -33z m1412 47 c-4 -3 -10 -3 -14 0 -3 4 0 7 7 7 7
0 10 -3 7 -7z m-1538 -20 c-35 -44 -49 -55 -63 -50 -19 7 -22 28 -3 25 7 -2
11 5 9 16 -3 16 -1 18 10 8 11 -9 19 -8 34 3 25 19 29 19 13 -2z m28 -1 c-17
-19 -23 -42 -11 -42 4 0 13 8 20 18 12 15 13 13 4 -12 -6 -16 -9 -35 -6 -43 9
-22 -10 -14 -23 10 -6 12 -10 16 -8 8 3 -16 -26 -51 -43 -51 -5 0 -10 -4 -10
-10 0 -5 -6 -7 -14 -4 -18 7 -27 -8 -15 -26 5 -10 9 -10 9 -3 0 6 9 10 20 8
11 -2 20 0 20 6 0 5 5 9 10 9 6 0 10 -9 10 -19 0 -23 16 -37 23 -19 2 7 -3 23
-11 36 -8 12 -12 25 -9 28 3 3 8 -4 12 -15 7 -23 35 -29 35 -8 1 6 7 -1 14
-18 8 -17 10 -35 5 -41 -5 -6 -6 -13 -3 -16 9 -9 -44 -15 -58 -7 -7 5 -10 9
-6 9 5 0 -2 11 -14 25 l-22 26 -16 -33 c-14 -31 -50 -51 -50 -29 0 6 8 11 18
11 16 1 16 1 -1 11 -14 8 -17 22 -15 72 1 34 3 54 6 44 2 -9 8 -14 14 -11 6 4
14 0 19 -7 6 -10 9 -8 9 9 0 12 5 22 11 22 5 0 7 -4 4 -10 -3 -5 -1 -10 5 -10
6 0 15 12 21 28 10 25 47 72 57 72 3 0 -2 -8 -11 -18z m-923 0 c3 -5 -1 -9 -9
-9 -8 0 -15 4 -15 9 0 4 4 8 9 8 6 0 12 -4 15 -8z m1090 -15 c-2 -15 1 -18 18
-14 27 8 58 -20 37 -34 -16 -10 -32 -7 -27 5 2 4 -12 14 -29 21 -36 15 -44 41
-14 41 13 0 18 -6 15 -19z m1293 -4 c-4 -3 -7 0 -7 7 0 7 3 10 7 7 3 -4 3 -10
0 -14z m-197 -7 c0 -3 -4 -8 -10 -11 -5 -3 -10 -1 -10 4 0 6 5 11 10 11 6 0
10 -2 10 -4z m-1213 -58 c-3 -8 -6 -5 -6 6 -1 11 2 17 5 13 3 -3 4 -12 1 -19z
m119 -3 c1 -8 -2 -15 -8 -15 -6 0 -8 -9 -5 -20 3 -12 0 -20 -8 -20 -10 0 -14
38 -5 48 2 2 6 14 9 29 2 10 15 -6 17 -22z m54 -14 c0 -15 -5 -18 -22 -13 -19
5 -20 7 -5 10 9 2 15 8 12 13 -4 5 -1 9 4 9 6 0 11 -9 11 -19z m-1408 -31 c3
-16 1 -30 -3 -30 -12 0 -31 39 -24 50 11 19 23 10 27 -20z m1235 -7 c-4 -3 -7
0 -7 7 0 7 3 10 7 7 3 -4 3 -10 0 -14z m50 0 c-4 -3 -10 -3 -14 0 -3 4 0 7 7
7 7 0 10 -3 7 -7z m903 -4 c0 -5 5 -7 12 -3 7 4 8 3 4 -4 -4 -7 -3 -12 3 -12
5 0 13 5 16 10 11 18 35 11 35 -11 0 -11 5 -17 10 -14 6 3 10 -4 10 -17 0 -22
-1 -22 -24 7 -20 25 -26 28 -40 16 -9 -8 -16 -9 -16 -3 0 6 -9 14 -20 17 -11
4 -18 11 -15 16 8 12 25 11 25 -2z m-920 -25 c0 -8 -4 -12 -10 -9 -5 3 -10 13
-10 21 0 8 5 12 10 9 6 -3 10 -13 10 -21z m-1229 -33 c7 11 9 11 9 -3 0 -10 7
-18 15 -18 8 0 12 -6 9 -14 -3 -8 -1 -17 5 -21 6 -3 11 -15 11 -27 0 -17 -2
-18 -15 -8 -8 7 -15 21 -15 31 0 20 -15 26 -25 9 -3 -5 -13 -6 -21 -3 -13 5
-13 7 -2 14 10 7 8 9 -7 10 -18 0 -19 1 -2 8 10 4 18 10 18 14 -2 21 2 29 6
13 4 -15 7 -16 14 -5z m1266 2 c-4 -3 -7 0 -7 7 0 7 3 10 7 7 3 -4 3 -10 0
-14z m-57 -18 c0 -14 -4 -25 -10 -25 -8 0 -8 23 -1 48 4 12 11 -3 11 -23z
m897 -2 c-4 -3 -7 0 -7 7 0 7 3 10 7 7 3 -4 3 -10 0 -14z m-979 -16 c6 3 12 0
12 -6 0 -6 -11 -10 -24 -9 -14 1 -22 6 -19 12 4 5 1 6 -6 2 -7 -5 -10 -14 -8
-20 4 -9 -3 -11 -21 -8 -15 3 -21 7 -14 9 6 3 12 11 12 18 0 19 22 25 40 10 8
-7 21 -10 28 -8z m132 13 c0 -5 -7 -10 -16 -10 -8 0 -12 5 -9 10 3 6 10 10 16
10 5 0 9 -4 9 -10z m-90 -15 c0 -8 -2 -15 -4 -15 -2 0 -6 7 -10 15 -3 8 -1 15
4 15 6 0 10 -7 10 -15z m1015 -5 c3 -5 2 -10 -4 -10 -5 0 -13 5 -16 10 -3 6
-2 10 4 10 5 0 13 -4 16 -10z m40 -10 c-3 -5 -12 -10 -18 -10 -7 0 -6 4 3 10
19 12 23 12 15 0z m-2224 -23 c-10 -9 -11 -8 -5 6 3 10 9 15 12 12 3 -3 0 -11
-7 -18z m206 -4 c-4 -3 -7 0 -7 7 0 7 3 10 7 7 3 -4 3 -10 0 -14z m30 -15 c-3
-8 -6 -5 -6 6 -1 11 2 17 5 13 3 -3 4 -12 1 -19z m838 -20 c-1 -13 -6 -31 -10
-40 -4 -10 -3 -18 3 -18 5 0 12 9 15 21 3 12 10 18 16 15 5 -4 12 -2 16 4 4 6
11 8 16 4 6 -3 9 2 7 11 -2 12 5 19 21 21 21 4 22 2 10 -12 -8 -9 -9 -18 -3
-22 9 -6 9 -12 5 -41 0 -4 -17 -11 -37 -14 -20 -3 -45 -14 -55 -23 -18 -16
-20 -16 -39 1 -11 10 -20 25 -20 34 1 13 3 13 15 -3 12 -16 15 -17 15 -4 0 9
3 24 7 34 5 13 3 15 -7 9 -13 -8 -8 6 13 33 13 17 16 15 12 -10z m170 -8 c3
-5 1 -10 -4 -10 -6 0 -11 5 -11 10 0 6 2 10 4 10 3 0 8 -4 11 -10z m-218 -27
c-4 -3 -7 0 -7 7 0 7 3 10 7 7 3 -4 3 -10 0 -14z m213 -13 c0 -5 -7 -7 -15 -4
-8 4 -12 10 -9 15 6 11 24 2 24 -11z m0 -31 c0 -5 -4 -9 -10 -9 -5 0 -10 4
-10 10 0 5 -8 7 -17 4 -14 -5 -15 -4 -4 4 15 11 41 5 41 -9z m-1145 1 c-3 -5
-1 -10 6 -10 10 0 10 -3 1 -12 -10 -10 -15 -10 -22 2 -6 9 -5 17 3 22 16 10
19 10 12 -2z m142 -71 c2 -40 1 -40 -16 -23 -16 17 -16 21 -3 42 8 12 15 22
16 22 0 0 2 -19 3 -41z m537 -8 c-2 -3 -12 3 -22 13 -16 17 -16 18 5 5 12 -7
20 -15 17 -18z m-599 -1 c3 -5 4 -10 1 -10 -3 0 -8 5 -11 10 -3 6 -4 10 -1 10
3 0 8 -4 11 -10z m660 -10 c3 -5 1 -10 -4 -10 -6 0 -11 5 -11 10 0 6 2 10 4
10 3 0 8 -4 11 -10z m-698 -22 c-3 -8 -6 -5 -6 6 -1 11 2 17 5 13 3 -3 4 -12
1 -19z m615 -349 c-9 -31 -10 -30 -7 16 4 65 7 76 12 44 2 -15 0 -42 -5 -60z
m678 45 c0 -8 -4 -12 -10 -9 -5 3 -10 10 -10 16 0 5 5 9 10 9 6 0 10 -7 10
-16z m-242 -17 c2 -12 -3 -17 -17 -17 -15 0 -21 6 -21 21 0 25 33 22 38 -4z
m197 3 c3 -5 -1 -10 -10 -10 -9 0 -13 5 -10 10 3 6 8 10 10 10 2 0 7 -4 10
-10z m20 -20 c-3 -5 -14 -10 -23 -9 -14 0 -13 2 3 9 27 11 27 11 20 0z m-316
-43 c1 8 11 9 37 1 20 -5 47 -7 60 -4 14 4 24 2 24 -4 0 -6 5 -8 12 -4 8 5 9
-7 4 -47 -4 -30 -8 -62 -8 -71 1 -10 -4 -18 -9 -18 -6 0 -7 -5 -3 -12 4 -7 3
-8 -5 -4 -6 4 -14 1 -17 -7 -3 -8 -11 -14 -17 -13 -29 4 -36 18 -32 71 2 32 0
53 -6 50 -8 -6 -13 9 -10 28 1 5 -3 6 -9 2 -5 -3 -10 -1 -10 5 0 6 -4 9 -9 6
-9 -6 -22 17 -20 37 0 7 4 3 9 -8 5 -11 9 -15 9 -8z m-772 -154 c-4 -3 -7 0
-7 7 0 7 3 10 7 7 3 -4 3 -10 0 -14z m-33 -62 c3 -5 -1 -11 -9 -14 -9 -4 -12
-1 -8 9 6 16 10 17 17 5z m886 -29 c0 -15 -2 -15 -10 -2 -13 20 -13 33 0 25 6
-3 10 -14 10 -23z m-928 -4 c-7 -7 -12 -8 -12 -2 0 14 12 26 19 19 2 -3 -1
-11 -7 -17z m-42 -27 c0 -6 -4 -13 -10 -16 -5 -3 -10 1 -10 9 0 9 5 16 10 16
6 0 10 -4 10 -9z m84 -9 c3 -5 -1 -9 -9 -9 -8 0 -12 4 -9 9 3 4 7 8 9 8 2 0 6
-4 9 -8z m951 -32 c-3 -5 -12 -10 -18 -10 -7 0 -6 4 3 10 19 12 23 12 15 0z
m-1011 -12 c-3 -4 -12 -8 -20 -8 -8 0 -14 4 -14 8 0 4 9 8 19 8 11 0 17 -4 15
-8z m96 -76 c0 -8 -1 -13 -3 -11 -1 2 -9 12 -16 22 -12 15 -12 17 3 11 9 -3
16 -13 16 -22z m577 -9 c-4 -3 -7 0 -7 7 0 7 3 10 7 7 3 -4 3 -10 0 -14z
m-700 -30 c-4 -3 -7 0 -7 7 0 7 3 10 7 7 3 -4 3 -10 0 -14z m3 -27 c0 -3 -5
-8 -12 -12 -7 -4 -8 -3 -4 4 7 12 16 16 16 8z m-30 -80 c0 -3 -5 -8 -12 -12
-7 -4 -8 -3 -4 4 7 12 16 16 16 8z m100 0 c0 -3 -5 -8 -12 -12 -7 -4 -8 -3 -4
4 7 12 16 16 16 8z m-143 -413 c-4 -3 -7 0 -7 7 0 7 3 10 7 7 3 -4 3 -10 0
-14z m-10 -200 c-4 -3 -10 -3 -14 0 -3 4 0 7 7 7 7 0 10 -3 7 -7z m-90 -270
c-4 -3 -7 0 -7 7 0 7 3 10 7 7 3 -4 3 -10 0 -14z m319 -60 c-3 -3 -13 -3 -22
1 -15 6 -15 8 2 27 l19 21 3 -22 c2 -12 1 -24 -2 -27z m-88 20 c-2 -9 -13 -18
-25 -19 -22 -4 -22 -3 -6 16 21 24 36 26 31 3z m-241 -40 c-4 -3 -7 0 -7 7 0
7 3 10 7 7 3 -4 3 -10 0 -14z m336 -7 c3 -7 -5 -30 -17 -50 l-22 -37 -19 23
c-28 32 -45 65 -38 72 13 12 91 6 96 -8z m1699 -8 c-7 -7 -12 -8 -12 -2 0 14
12 26 19 19 2 -3 -1 -11 -7 -17z m-1809 -28 c-6 -24 -5 -23 -38 -8 -14 6 -25
17 -25 25 0 17 5 17 26 -4 16 -16 16 -16 9 6 -6 20 -5 22 13 12 14 -7 18 -17
15 -31z m-294 -17 c-1 -37 -3 -42 -8 -23 -7 24 -3 70 5 70 2 0 4 -21 3 -47z
m59 17 c-9 -28 -25 -46 -33 -39 -2 2 3 19 10 37 18 41 38 44 23 2z m629 -2
c-3 -8 -6 -5 -6 6 -1 11 2 17 5 13 3 -3 4 -12 1 -19z m1292 13 c17 -11 7 -41
-14 -41 -9 0 -29 -7 -44 -15 -29 -14 -29 -14 -27 16 3 43 47 64 85 40z m-1664
-41 c3 -5 4 -10 1 -10 -3 0 -8 5 -11 10 -3 6 -4 10 -1 10 3 0 8 -4 11 -10z
m-255 -14 c0 -3 -5 -8 -12 -12 -7 -4 -8 -3 -4 4 7 12 16 16 16 8z m347 -28
c-3 -8 -6 -5 -6 6 -1 11 2 17 5 13 3 -3 4 -12 1 -19z m1373 5 c-8 -3 -30 -14
-47 -25 -38 -23 -43 -18 -11 12 12 11 33 20 47 19 16 0 20 -3 11 -6z m-1726
-27 c-6 -15 -34 -31 -34 -19 0 5 30 32 37 33 1 0 0 -6 -3 -14z m1903 -23 c-4
-3 -10 -3 -14 0 -3 4 0 7 7 7 7 0 10 -3 7 -7z m-1231 -92 c5 -42 -4 -52 -26
-26 -8 10 -10 28 -5 51 8 46 25 33 31 -25z m-699 7 c-3 -7 -5 -2 -5 12 0 14 2
19 5 13 2 -7 2 -19 0 -25z m336 -43 c-3 -9 -8 -14 -10 -11 -3 3 -2 9 2 15 9
16 15 13 8 -4z m-366 -22 c-4 -3 -7 0 -7 7 0 7 3 10 7 7 3 -4 3 -10 0 -14z
m1588 -40 c-3 -25 -14 -53 -23 -63 -17 -20 -85 -200 -78 -207 2 -2 12 17 22
44 10 26 28 62 41 79 13 17 23 35 23 40 1 19 39 58 58 59 20 1 20 0 -4 -54
-34 -77 -112 -205 -151 -248 -32 -34 -35 -35 -88 -31 -36 3 -63 12 -78 25 -33
30 -67 36 -67 11 0 -10 4 -17 9 -14 5 3 19 -10 30 -30 21 -35 23 -36 71 -32
27 3 47 2 45 -2 -5 -9 -130 -60 -145 -60 -6 0 -10 9 -10 20 0 13 -5 18 -15 14
-11 -5 -15 1 -15 21 0 14 -4 24 -9 21 -13 -9 -21 19 -23 82 -1 36 -3 45 -5 25
-2 -18 -9 -33 -14 -33 -20 0 -21 33 -5 106 18 82 21 144 4 84 -10 -38 -24 -57
-34 -47 -3 3 1 16 10 29 19 26 21 55 5 60 -19 6 18 66 52 83 24 13 33 14 45 4
8 -7 13 -18 10 -26 -3 -8 -2 -12 3 -9 10 6 21 -26 21 -61 0 -13 8 -24 20 -27
11 -3 29 -9 40 -12 19 -5 20 -1 20 70 0 67 2 76 18 76 10 0 23 5 29 11 18 18
34 1 27 -29 -4 -15 -15 -42 -26 -61 -30 -53 5 -19 44 42 46 72 59 85 93 89 51
6 58 0 50 -49z m-845 -18 c17 -30 34 -55 37 -55 3 0 -7 21 -23 48 l-27 47 26
-23 c27 -25 37 -58 27 -86 -4 -13 -16 -2 -53 48 -26 37 -42 66 -36 66 5 0 7 5
3 12 -4 6 -3 8 4 4 6 -3 25 -31 42 -61z m-60 2 c0 -17 -1 -17 -25 0 -27 20
-32 39 -12 46 15 5 36 -22 37 -46z m-60 18 c0 -9 -9 -15 -21 -15 -18 0 -19 2
-9 15 7 8 16 15 21 15 5 0 9 -7 9 -15z m168 -5 c7 -11 11 -20 9 -20 -2 0 -12
9 -22 20 -10 11 -14 20 -9 20 5 0 15 -9 22 -20z m112 -21 c0 -9 18 -28 40 -43
28 -19 40 -33 40 -51 0 -33 -16 -40 -34 -13 -9 12 -16 18 -16 13 -1 -6 -7 1
-15 15 -8 14 -14 19 -15 12 0 -23 -34 4 -58 47 -26 45 -24 48 18 26 28 -15 29
-15 24 13 -3 20 -2 23 6 12 5 -8 10 -22 10 -31z m1037 -6 c-4 -3 -10 -3 -14 0
-3 4 0 7 7 7 7 0 10 -3 7 -7z m-1226 -25 c11 -21 11 -22 -4 -9 -10 7 -17 17
-17 22 0 15 9 10 21 -13z m-414 5 c-4 -3 -10 -3 -14 0 -3 4 0 7 7 7 7 0 10 -3
7 -7z m253 -22 c0 -12 -20 -25 -27 -18 -7 7 6 27 18 27 5 0 9 -4 9 -9z m787
-53 c-3 -8 -6 -5 -6 6 -1 11 2 17 5 13 3 -3 4 -12 1 -19z m-830 -5 c-4 -3 -7
0 -7 7 0 7 3 10 7 7 3 -4 3 -10 0 -14z m529 -5 c75 -55 105 -89 102 -111 -5
-34 -45 -22 -96 29 -46 47 -70 58 -52 23 14 -24 10 -31 -9 -19 -12 7 -12 16
-1 54 7 25 16 46 19 46 4 0 21 -10 37 -22z m-97 -104 c-12 -13 -25 -22 -27
-19 -3 3 5 13 16 24 12 10 23 27 23 37 1 18 2 18 6 1 3 -11 -5 -29 -18 -43z
m-562 19 c-4 -3 -7 0 -7 7 0 7 3 10 7 7 3 -4 3 -10 0 -14z m40 -1 c9 -6 8 -11
-5 -19 -15 -9 -18 -7 -18 8 0 21 5 23 23 11z m-340 -89 c-4 -3 -10 -3 -14 0
-3 4 0 7 7 7 7 0 10 -3 7 -7z m-40 -20 c-4 -3 -7 0 -7 7 0 7 3 10 7 7 3 -4 3
-10 0 -14z m60 0 c-4 -3 -7 0 -7 7 0 7 3 10 7 7 3 -4 3 -10 0 -14z m390 0 c-4
-3 -7 0 -7 7 0 7 3 10 7 7 3 -4 3 -10 0 -14z m47 -1 c3 -5 -1 -9 -9 -9 -8 0
-15 4 -15 9 0 4 4 8 9 8 6 0 12 -4 15 -8z m573 -14 c-3 -8 -6 -5 -6 6 -1 11 2
17 5 13 3 -3 4 -12 1 -19z m-359 -25 c29 -39 71 -102 60 -93 -3 3 -25 30 -47
60 -23 30 -49 58 -59 62 -15 6 -15 7 0 7 9 1 30 -16 46 -36z m104 5 c-7 -7
-12 -8 -12 -2 0 14 12 26 19 19 2 -3 -1 -11 -7 -17z m-395 -10 c-3 -8 -6 -5
-6 6 -1 11 2 17 5 13 3 -3 4 -12 1 -19z m-384 -63 c3 -17 2 -24 0 -16 -3 8
-14 30 -25 50 l-20 36 21 -20 c11 -11 22 -34 24 -50z m821 31 c-3 -15 -8 -25
-11 -23 -2 3 -1 17 3 31 3 15 8 25 11 23 2 -3 1 -17 -3 -31z m1423 7 c-4 -3
-7 0 -7 7 0 7 3 10 7 7 3 -4 3 -10 0 -14z m-2317 -41 c0 -5 -6 -17 -14 -27
-13 -18 -14 -18 -9 8 5 24 23 39 23 19z m30 -12 c0 -5 -2 -10 -4 -10 -3 0 -8
5 -11 10 -3 6 -1 10 4 10 6 0 11 -4 11 -10z m467 -17 c-4 -3 -7 0 -7 7 0 7 3
10 7 7 3 -4 3 -10 0 -14z m140 0 c-4 -3 -7 0 -7 7 0 7 3 10 7 7 3 -4 3 -10 0
-14z m-596 -22 c-10 -6 -9 -12 4 -25 9 -9 12 -16 6 -16 -18 0 -31 36 -19 48 7
7 14 9 17 6 3 -3 0 -9 -8 -13z m1416 2 c-4 -3 -7 0 -7 7 0 7 3 10 7 7 3 -4 3
-10 0 -14z m-590 -40 c-3 -10 -5 -2 -5 17 0 19 2 27 5 18 2 -10 2 -26 0 -35z
m1310 -10 c-4 -3 -7 0 -7 7 0 7 3 10 7 7 3 -4 3 -10 0 -14z"/>
<path d="M1277 3663 c-4 -3 -7 -11 -7 -17 0 -6 5 -5 12 2 6 6 9 14 7 17 -3 3
-9 2 -12 -2z"/>
<path d="M1305 3660 c4 -6 11 -8 16 -5 14 9 11 15 -7 15 -8 0 -12 -5 -9 -10z"/>
<path d="M1142 3608 c1 -13 5 -28 10 -34 4 -6 5 -26 1 -45 -5 -26 -8 -29 -13
-14 -4 11 -9 14 -13 8 -4 -6 1 -19 11 -30 14 -17 19 -18 30 -7 7 8 8 14 2 14
-19 0 -10 37 11 46 20 9 21 11 4 27 -10 10 -14 24 -10 34 3 10 3 14 -1 10 -4
-4 -13 -2 -20 4 -10 8 -13 5 -12 -13z"/>
<path d="M1210 3603 c0 -14 7 -19 23 -19 17 1 21 -4 19 -19 -2 -10 -10 -24
-18 -30 -9 -7 -11 -15 -4 -25 7 -12 10 -11 16 5 5 11 14 26 21 33 6 7 10 19 7
27 -4 8 1 18 10 21 9 3 16 10 16 15 0 6 -9 5 -20 -1 -15 -8 -20 -8 -20 2 0 10
-3 9 -9 -1 -8 -12 -12 -12 -25 -2 -14 12 -16 11 -16 -6z"/>
<path d="M1285 3581 c-3 -5 -1 -12 5 -16 5 -3 10 1 10 9 0 18 -6 21 -15 7z"/>
<path d="M1317 3575 c-4 -8 -2 -17 3 -20 6 -4 10 3 10 14 0 25 -6 27 -13 6z"/>
<path d="M1283 3533 c4 -3 10 -3 14 0 3 4 0 7 -7 7 -7 0 -10 -3 -7 -7z"/>
<path d="M1260 3399 c0 -5 5 -7 10 -4 6 3 10 8 10 11 0 2 -4 4 -10 4 -5 0 -10
-5 -10 -11z"/>
<path d="M1200 3373 c0 -4 5 -15 10 -23 8 -13 10 -13 10 2 0 9 -4 20 -10 23
-5 3 -10 3 -10 -2z"/>
<path d="M1453 3773 c4 -3 10 -3 14 0 3 4 0 7 -7 7 -7 0 -10 -3 -7 -7z"/>
<path d="M1590 3740 c0 -5 5 -10 10 -10 6 0 10 5 10 10 0 6 -4 10 -10 10 -5 0
-10 -4 -10 -10z"/>
<path d="M1410 3660 c0 -7 3 -10 7 -7 3 4 3 10 0 14 -4 3 -7 0 -7 -7z"/>
<path d="M1393 3633 c4 -3 10 -3 14 0 3 4 0 7 -7 7 -7 0 -10 -3 -7 -7z"/>
<path d="M2123 3503 c4 -3 10 -3 14 0 3 4 0 7 -7 7 -7 0 -10 -3 -7 -7z"/>
<path d="M1565 3570 c-4 -6 -3 -16 3 -22 13 -13 23 4 13 21 -7 10 -10 10 -16
1z"/>
<path d="M1433 3255 c0 -8 4 -15 9 -15 4 0 8 4 8 9 0 6 -4 12 -8 15 -5 3 -9
-1 -9 -9z"/>
<path d="M1222 310 c0 -14 2 -19 5 -12 2 6 2 18 0 25 -3 6 -5 1 -5 -13z"/>
<path d="M1326 277 c-15 -11 -15 -15 -4 -24 23 -18 108 -52 108 -43 0 23 -23
56 -47 68 -33 15 -35 15 -57 -1z"/>
<path d="M1510 260 c0 -7 3 -10 7 -7 3 4 3 10 0 14 -4 3 -7 0 -7 -7z"/>
<path d="M1495 219 c-4 -11 -4 -23 -1 -26 3 -4 6 1 6 9 0 9 5 18 12 20 9 3 9
6 1 11 -7 4 -14 -1 -18 -14z"/>
<path d="M930 490 c0 -7 3 -10 7 -7 3 4 3 10 0 14 -4 3 -7 0 -7 -7z"/>
<path d="M1083 3993 c4 -3 10 -3 14 0 3 4 0 7 -7 7 -7 0 -10 -3 -7 -7z"/>
<path d="M2701 3854 c0 -11 3 -14 6 -6 3 7 2 16 -1 19 -3 4 -6 -2 -5 -13z"/>
<path d="M2640 3809 c0 -5 5 -7 10 -4 6 3 10 8 10 11 0 2 -4 4 -10 4 -5 0 -10
-5 -10 -11z"/>
<path d="M406 3801 c-4 -7 -5 -15 -2 -18 9 -9 19 4 14 18 -4 11 -6 11 -12 0z"/>
<path d="M2705 3790 c-3 -5 3 -10 15 -10 12 0 18 5 15 10 -3 6 -10 10 -15 10
-5 0 -12 -4 -15 -10z"/>
<path d="M263 3755 c-10 -10 -9 -14 2 -19 17 -6 26 5 17 21 -5 8 -11 7 -19 -2z"/>
<path d="M197 3746 c-3 -8 -1 -16 5 -18 8 -3 7 -11 -2 -27 -11 -21 -10 -23 5
-18 9 4 30 7 46 7 17 0 28 4 25 9 -3 4 -17 6 -31 3 -19 -3 -25 0 -25 14 0 11
-4 25 -9 32 -7 11 -9 11 -14 -2z"/>
<path d="M320 3750 c0 -7 3 -10 7 -7 3 4 3 10 0 14 -4 3 -7 0 -7 -7z"/>
<path d="M2473 3753 c4 -3 10 -3 14 0 3 4 0 7 -7 7 -7 0 -10 -3 -7 -7z"/>
<path d="M304 3718 c-4 -7 -3 -8 4 -4 12 7 16 16 8 16 -3 0 -8 -5 -12 -12z"/>
<path d="M390 3720 c0 -7 3 -10 7 -7 3 4 3 10 0 14 -4 3 -7 0 -7 -7z"/>
<path d="M2605 3720 c-10 -16 3 -29 25 -23 24 6 26 19 4 27 -21 8 -22 8 -29
-4z"/>
<path d="M2488 3704 c-3 -5 -2 -18 2 -28 5 -16 8 -17 12 -4 7 16 -7 45 -14 32z"/>
<path d="M2007 3613 c-12 -11 -8 -65 4 -58 5 4 8 12 6 18 -2 7 0 20 5 30 8 16
-2 24 -15 10z"/>
<path d="M2785 3610 c3 -5 8 -10 11 -10 2 0 4 5 4 10 0 6 -5 10 -11 10 -5 0
-7 -4 -4 -10z"/>
<path d="M2043 3603 c4 -3 10 -3 14 0 3 4 0 7 -7 7 -7 0 -10 -3 -7 -7z"/>
<path d="M2023 3583 c4 -3 10 -3 14 0 3 4 0 7 -7 7 -7 0 -10 -3 -7 -7z"/>
<path d="M2037 3555 c-8 -20 -4 -29 11 -24 5 2 6 13 2 23 -6 19 -7 19 -13 1z"/>
<path d="M1486 3551 c-4 -7 -5 -15 -2 -18 9 -9 19 4 14 18 -4 11 -6 11 -12 0z"/>
<path d="M1997 3506 c-4 -10 -1 -13 9 -9 15 6 19 23 5 23 -5 0 -11 -7 -14 -14z"/>
<path d="M201 3491 c-12 -11 -18 -22 -13 -25 5 -3 20 6 32 19 28 29 13 34 -19
6z"/>
<path d="M1590 3466 c0 -9 5 -16 10 -16 6 0 10 4 10 9 0 6 -4 13 -10 16 -5 3
-10 -1 -10 -9z"/>
<path d="M1620 3460 c0 -7 3 -10 7 -7 3 4 3 10 0 14 -4 3 -7 0 -7 -7z"/>
<path d="M2 3430 c-2 -20 2 -30 12 -30 18 0 27 35 13 49 -17 17 -23 13 -25
-19z"/>
<path d="M1557 3434 c-13 -14 -7 -32 11 -30 9 2 17 9 17 16 0 15 -18 24 -28
14z"/>
<path d="M1905 3430 c3 -5 8 -10 11 -10 3 0 2 5 -1 10 -3 6 -8 10 -11 10 -3 0
-2 -4 1 -10z"/>
<path d="M115 3420 c3 -5 8 -10 11 -10 2 0 4 5 4 10 0 6 -5 10 -11 10 -5 0 -7
-4 -4 -10z"/>
<path d="M1620 3415 c0 -8 2 -15 4 -15 2 0 6 7 10 15 3 8 1 15 -4 15 -6 0 -10
-7 -10 -15z"/>
<path d="M1930 3414 c0 -9 -9 -18 -20 -21 -17 -4 -18 -8 -8 -27 7 -11 11 -36
9 -53 -2 -25 2 -33 13 -33 9 0 16 5 16 10 0 6 -4 10 -10 10 -5 0 -10 7 -10 16
0 8 5 12 11 8 7 -4 7 1 -1 16 -13 25 -6 54 13 47 11 -3 36 19 37 33 0 3 -11 7
-25 8 -17 1 -25 -3 -25 -14z"/>
<path d="M2610 3414 c0 -8 5 -12 10 -9 6 3 10 10 10 16 0 5 -4 9 -10 9 -5 0
-10 -7 -10 -16z"/>
<path d="M2875 3420 c3 -5 8 -10 11 -10 3 0 2 5 -1 10 -3 6 -8 10 -11 10 -3 0
-2 -4 1 -10z"/>
<path d="M1467 3400 c-18 -22 -22 -35 -8 -26 5 3 11 -1 15 -9 7 -19 35 -20 42
-1 6 15 -12 56 -24 56 -4 0 -15 -9 -25 -20z"/>
<path d="M1990 3400 c0 -7 3 -10 7 -7 3 4 3 10 0 14 -4 3 -7 0 -7 -7z"/>
<path d="M2008 3387 c-3 -19 -2 -25 4 -19 6 6 8 18 6 28 -3 14 -5 12 -10 -9z"/>
<path d="M2894 3378 c-4 -7 -3 -8 4 -4 12 7 16 16 8 16 -3 0 -8 -5 -12 -12z"/>
<path d="M2273 3373 c4 -3 10 -3 14 0 3 4 0 7 -7 7 -7 0 -10 -3 -7 -7z"/>
<path d="M60 3320 c0 -7 3 -10 7 -7 3 4 3 10 0 14 -4 3 -7 0 -7 -7z"/>
<path d="M2176 3295 c-8 -23 -8 -25 8 -25 8 0 13 7 12 15 -3 23 -13 27 -20 10z"/>
<path d="M1640 3284 c0 -8 5 -12 10 -9 6 4 8 11 5 16 -9 14 -15 11 -15 -7z"/>
<path d="M1707 3293 c-4 -3 -7 -13 -7 -22 1 -13 3 -13 11 2 11 19 8 33 -4 20z"/>
<path d="M2991 3274 c0 -11 3 -14 6 -6 3 7 2 16 -1 19 -3 4 -6 -2 -5 -13z"/>
<path d="M1943 3270 c-13 -5 -23 -6 -23 -2 0 4 -4 0 -9 -8 -11 -15 7 -32 47
-44 18 -6 22 -4 22 13 0 11 -5 23 -10 26 -6 4 -8 11 -5 16 7 11 7 11 -22 -1z"/>
<path d="M2785 3270 c4 -6 11 -8 16 -5 14 9 11 15 -7 15 -8 0 -12 -5 -9 -10z"/>
<path d="M1790 3254 c0 -8 5 -12 10 -9 6 4 22 0 35 -9 20 -13 23 -13 19 -2 -3
8 -19 19 -35 25 -24 8 -29 7 -29 -5z"/>
<path d="M2230 3260 c0 -7 3 -10 7 -7 3 4 3 10 0 14 -4 3 -7 0 -7 -7z"/>
<path d="M2554 3248 c-4 -7 -3 -8 4 -4 12 7 16 16 8 16 -3 0 -8 -5 -12 -12z"/>
<path d="M2800 3240 c0 -7 3 -10 7 -7 3 4 3 10 0 14 -4 3 -7 0 -7 -7z"/>
<path d="M2625 3230 c3 -5 -1 -10 -9 -10 -9 0 -16 -5 -16 -11 0 -5 -5 -7 -12
-3 -7 5 -8 3 -3 -5 4 -7 16 -10 27 -8 19 5 19 5 2 -14 -9 -10 -12 -19 -6 -19
5 0 8 -9 5 -20 -6 -24 -16 -25 -33 -5 -22 26 -33 17 -27 -21 5 -29 4 -34 -8
-24 -10 8 -15 8 -21 -1 -4 -8 -3 -9 4 -5 8 5 12 0 12 -13 0 -16 8 -22 39 -27
22 -4 42 -13 45 -21 3 -8 2 -12 -2 -9 -4 2 -17 -1 -28 -7 -19 -11 -20 -15 -7
-44 16 -41 35 -43 27 -3 -6 25 -3 30 20 36 17 4 26 13 26 25 0 10 0 22 1 26 0
4 -5 9 -12 12 -8 2 -10 -2 -6 -12 5 -14 3 -15 -13 -4 -11 6 -16 13 -10 15 5 2
10 13 10 25 -1 22 -1 22 -15 3 -12 -16 -15 -17 -15 -4 0 20 47 52 55 38 3 -6
3 -10 -1 -10 -13 0 30 -29 44 -30 20 0 -9 49 -38 63 -13 7 -25 18 -28 26 -3 9
0 11 8 6 8 -5 11 -1 8 12 -2 11 3 27 11 36 12 15 10 17 -13 17 -16 0 -25 -4
-21 -10z m-45 -104 c0 -3 -4 -8 -10 -11 -5 -3 -10 -1 -10 4 0 6 5 11 10 11 6
0 10 -2 10 -4z"/>
<path d="M1800 3221 c0 -5 6 -26 14 -47 7 -22 11 -45 9 -51 -3 -7 0 -13 5 -13
16 0 24 -63 10 -72 -10 -6 -10 -8 1 -8 8 0 20 -8 27 -17 10 -15 15 -16 25 -5
18 17 34 15 19 -3 -10 -12 -9 -15 7 -15 19 0 43 18 43 32 0 4 -5 8 -11 8 -5 0
-7 -6 -3 -12 5 -10 4 -10 -6 -1 -21 19 -2 34 36 27 28 -5 34 -3 34 10 0 10 -4
15 -9 12 -14 -9 -22 23 -11 44 12 22 -11 45 -36 36 -13 -5 -14 -3 -6 7 16 19
11 55 -8 52 -8 -2 -24 -4 -34 -4 -20 -1 -20 -1 0 -16 15 -12 15 -14 2 -9 -14
5 -16 -1 -14 -35 3 -35 0 -41 -16 -41 -11 0 -16 4 -13 10 3 5 0 8 -7 5 -9 -3
-18 12 -29 45 -14 46 -14 50 0 50 14 0 14 1 1 10 -19 12 -30 13 -30 1z m130
-76 c0 -8 -2 -15 -4 -15 -2 0 -6 7 -10 15 -3 8 -1 15 4 15 6 0 10 -7 10 -15z
m-50 -88 c0 -5 -7 -4 -15 3 -8 7 -15 20 -15 29 1 13 3 13 15 -3 8 -11 15 -24
15 -29z m51 6 c-8 -15 -10 -15 -11 -2 0 17 10 32 18 25 2 -3 -1 -13 -7 -23z"/>
<path d="M1893 3223 c4 -3 10 -3 14 0 3 4 0 7 -7 7 -7 0 -10 -3 -7 -7z"/>
<path d="M2689 3209 c-11 -11 -17 -24 -14 -29 4 -6 0 -10 -7 -10 -7 -1 -3 -9
11 -20 30 -26 45 -26 31 -1 -14 27 -13 34 6 27 12 -4 15 -2 10 9 -3 8 -1 15 4
15 16 0 12 17 -5 24 -9 3 -24 -3 -36 -15z"/>
<path d="M2764 3218 c-4 -7 -3 -8 4 -4 12 7 16 16 8 16 -3 0 -8 -5 -12 -12z"/>
<path d="M220 3200 c0 -6 -6 -10 -12 -9 -26 3 -39 -1 -33 -11 4 -6 16 -8 28
-4 12 4 30 7 39 6 11 0 15 5 11 14 -6 16 -33 19 -33 4z"/>
<path d="M2005 3200 c-7 -12 2 -12 30 0 19 8 19 9 -2 9 -12 1 -25 -3 -28 -9z"/>
<path d="M2841 3194 c0 -11 3 -14 6 -6 3 7 2 16 -1 19 -3 4 -6 -2 -5 -13z"/>
<path d="M1845 3190 c3 -5 10 -10 16 -10 5 0 9 5 9 10 0 6 -7 10 -16 10 -8 0
-12 -4 -9 -10z"/>
<path d="M2350 3190 c0 -7 3 -10 7 -7 3 4 3 10 0 14 -4 3 -7 0 -7 -7z"/>
<path d="M2972 3164 c-19 -13 -26 -14 -40 -3 -14 12 -14 10 1 -8 12 -14 15
-23 8 -28 -14 -8 -14 -35 0 -35 5 0 7 4 4 10 -4 6 1 7 11 3 13 -5 15 -2 10 15
-4 11 -2 23 4 27 6 4 10 3 9 -2 -3 -18 1 -33 10 -33 5 0 9 16 8 35 -1 19 -1
35 -2 35 0 0 -11 -7 -23 -16z"/>
<path d="M143 3163 c4 -3 10 -3 14 0 3 4 0 7 -7 7 -7 0 -10 -3 -7 -7z"/>
<path d="M1860 3156 c0 -8 5 -18 10 -21 6 -3 10 1 10 9 0 8 -4 18 -10 21 -5 3
-10 -1 -10 -9z"/>
<path d="M305 3150 c3 -5 8 -10 11 -10 3 0 2 5 -1 10 -3 6 -8 10 -11 10 -3 0
-2 -4 1 -10z"/>
<path d="M2000 3150 c0 -7 3 -10 7 -7 3 4 3 10 0 14 -4 3 -7 0 -7 -7z"/>
<path d="M2433 3153 c4 -3 10 -3 14 0 3 4 0 7 -7 7 -7 0 -10 -3 -7 -7z"/>
<path d="M200 3135 c-7 -9 -10 -19 -6 -22 8 -9 38 9 44 25 5 17 -23 15 -38 -3z"/>
<path d="M1679 3138 c7 -10 23 -17 35 -17 20 1 20 2 1 6 -11 3 -27 10 -35 17
-13 10 -13 9 -1 -6z"/>
<path d="M2830 3140 c0 -7 3 -10 7 -7 3 4 3 10 0 14 -4 3 -7 0 -7 -7z"/>
<path d="M150 3126 c0 -9 4 -16 9 -16 5 0 12 -8 14 -17 4 -17 5 -17 6 0 0 10
-6 25 -14 33 -13 14 -15 14 -15 0z"/>
<path d="M254 3128 c-4 -7 -3 -8 4 -4 12 7 16 16 8 16 -3 0 -8 -5 -12 -12z"/>
<path d="M2053 3123 c4 -3 10 -3 14 0 3 4 0 7 -7 7 -7 0 -10 -3 -7 -7z"/>
<path d="M2019 3105 c-10 -33 3 -54 26 -44 16 6 17 8 3 8 -11 1 -18 11 -20 29
-3 23 -4 24 -9 7z"/>
<path d="M1786 3093 c-6 -14 -5 -15 5 -6 7 7 10 15 7 18 -3 3 -9 -2 -12 -12z"/>
<path d="M1645 3063 c-11 -25 -12 -40 -5 -47 7 -7 10 -3 10 11 0 12 5 25 12
29 7 4 8 3 4 -5 -8 -12 18 -61 33 -61 4 0 8 14 8 30 0 17 -6 30 -12 30 -22 0
-36 25 -23 38 9 9 9 12 0 12 -6 0 -19 -17 -27 -37z m42 -50 c-4 -3 -7 0 -7 7
0 7 3 10 7 7 3 -4 3 -10 0 -14z"/>
<path d="M1720 3080 c0 -5 5 -10 10 -10 6 0 10 5 10 10 0 6 -4 10 -10 10 -5 0
-10 -4 -10 -10z"/>
<path d="M1753 3083 c4 -3 10 -3 14 0 3 4 0 7 -7 7 -7 0 -10 -3 -7 -7z"/>
<path d="M2447 3071 c3 -12 9 -21 14 -21 14 0 11 16 -5 29 -12 10 -13 8 -9 -8z"/>
<path d="M185 3060 c3 -5 12 -7 20 -3 21 7 19 13 -6 13 -11 0 -18 -4 -14 -10z"/>
<path d="M1730 3051 c0 -6 5 -13 10 -16 6 -3 10 1 10 9 0 9 -4 16 -10 16 -5 0
-10 -4 -10 -9z"/>
<path d="M2015 3030 c-3 -5 3 -10 15 -10 12 0 18 5 15 10 -3 6 -10 10 -15 10
-5 0 -12 -4 -15 -10z"/>
<path d="M1440 3010 c0 -7 3 -10 7 -7 3 4 3 10 0 14 -4 3 -7 0 -7 -7z"/>
<path d="M1996 3007 c3 -10 9 -15 12 -12 3 3 0 11 -7 18 -10 9 -11 8 -5 -6z"/>
<path d="M2400 3004 c0 -8 5 -12 10 -9 6 3 10 10 10 16 0 5 -4 9 -10 9 -5 0
-10 -7 -10 -16z"/>
<path d="M2037 2993 c4 -9 2 -14 -3 -10 -6 3 -16 2 -24 -3 -9 -5 -19 -5 -27 2
-8 7 -13 7 -13 0 0 -5 7 -15 15 -22 10 -8 15 -9 15 -2 0 7 7 9 17 5 11 -4 13
-8 5 -11 -12 -4 -7 -22 7 -22 4 0 17 9 30 21 21 20 21 22 5 40 -21 23 -36 25
-27 2z"/>
<path d="M2470 2999 c0 -5 5 -7 11 -4 6 4 21 -3 35 -16 20 -18 24 -20 24 -6 0
17 -29 37 -54 37 -9 0 -16 -5 -16 -11z"/>
<path d="M2440 2990 c0 -7 3 -10 7 -7 3 4 3 10 0 14 -4 3 -7 0 -7 -7z"/>
<path d="M1915 2970 c3 -5 8 -10 11 -10 2 0 4 5 4 10 0 6 -5 10 -11 10 -5 0
-7 -4 -4 -10z"/>
<path d="M1882 2948 c-1 -16 -7 -28 -13 -28 -5 0 -7 5 -3 12 5 7 3 8 -7 2 -8
-5 -17 -9 -21 -9 -3 0 -10 -4 -15 -8 -4 -5 1 -8 12 -7 36 4 45 0 45 -19 0 -28
11 -52 21 -45 5 3 9 13 9 23 0 9 9 27 20 39 29 31 25 37 -9 12 l-30 -20 -4 37
c-3 27 -4 30 -5 11z"/>
<path d="M20 2938 c0 -15 4 -29 9 -33 17 -10 20 10 5 35 l-13 25 -1 -27z"/>
<path d="M1618 2953 c7 -3 16 -2 19 1 4 3 -2 6 -13 5 -11 0 -14 -3 -6 -6z"/>
<path d="M2443 2941 c-10 -15 -9 -22 1 -30 16 -14 26 -4 26 26 0 28 -11 30
-27 4z"/>
<path d="M2507 2939 c4 -13 8 -18 11 -10 2 7 -1 18 -6 23 -8 8 -9 4 -5 -13z"/>
<path d="M2140 2929 c0 -11 5 -17 10 -14 6 3 10 13 10 21 0 8 -4 14 -10 14 -5
0 -10 -9 -10 -21z"/>
<path d="M2358 2943 c7 -3 16 -2 19 1 4 3 -2 6 -13 5 -11 0 -14 -3 -6 -6z"/>
<path d="M1504 2931 c-8 -8 -4 -22 4 -17 5 3 22 -4 39 -14 27 -16 33 -17 43
-4 10 11 9 14 -6 14 -18 1 -18 1 -1 14 17 13 14 14 -28 13 -26 -1 -48 -4 -51
-6z"/>
<path d="M1960 2933 c0 -15 29 -49 30 -35 0 7 -7 20 -15 28 -8 9 -15 11 -15 7z"/>
<path d="M2049 2922 c-8 -10 -14 -23 -12 -29 2 -6 -1 -14 -6 -18 -7 -4 -11 4
-11 21 l0 26 -19 -23 c-24 -30 -16 -51 18 -45 14 2 29 5 33 5 4 1 10 10 13 22
7 20 8 20 27 3 16 -16 21 -16 29 -4 5 8 7 21 4 28 -3 8 -5 18 -5 23 0 4 -7 6
-15 3 -8 -4 -13 -9 -10 -13 2 -4 -2 -8 -9 -8 -8 0 -12 6 -9 14 7 19 -10 16
-28 -5z"/>
<path d="M2549 2923 c-1 -5 -1 -12 0 -16 1 -5 -3 -6 -8 -3 -14 9 -23 -11 -16
-34 9 -28 22 -25 29 6 5 19 11 24 26 19 14 -4 20 -2 20 8 0 20 -48 38 -51 20z"/>
<path d="M90 2910 c0 -6 -10 -15 -22 -20 -15 -6 -17 -9 -7 -9 9 -1 24 8 34 19
10 11 13 20 7 20 -7 0 -12 -5 -12 -10z"/>
<path d="M2338 2895 c-3 -14 -2 -28 3 -31 4 -2 6 -11 3 -19 -4 -9 2 -18 12
-22 11 -4 26 -13 34 -21 11 -12 15 -12 18 -2 3 8 -5 21 -16 31 -18 14 -19 18
-7 23 8 3 15 10 15 17 0 6 -6 9 -14 6 -9 -4 -16 3 -20 19 -8 31 -22 31 -28 -1z"/>
<path d="M2398 2901 c12 -12 22 -29 22 -38 0 -14 2 -14 14 2 14 20 11 49 -5
39 -5 -2 -19 0 -31 7 l-23 11 23 -21z"/>
<path d="M0 2900 c0 -5 5 -10 10 -10 6 0 10 5 10 10 0 6 -4 10 -10 10 -5 0
-10 -4 -10 -10z"/>
<path d="M1660 2900 c0 -7 3 -10 7 -7 3 4 3 10 0 14 -4 3 -7 0 -7 -7z"/>
<path d="M1790 2907 c0 -2 9 -14 20 -27 16 -18 20 -19 20 -7 0 9 -9 21 -20 27
-11 6 -20 9 -20 7z"/>
<path d="M2501 2894 c0 -11 3 -14 6 -6 3 7 2 16 -1 19 -3 4 -6 -2 -5 -13z"/>
<path d="M1520 2891 c0 -26 43 -81 63 -81 18 0 19 2 7 10 -10 6 -11 10 -2 10
6 0 12 7 12 16 0 11 6 14 23 8 12 -4 25 -12 29 -18 5 -6 8 -2 8 10 0 13 -10
25 -25 32 -31 14 -38 15 -31 3 3 -5 -4 -11 -17 -15 -12 -3 -24 -1 -25 4 -5 15
-42 33 -42 21z"/>
<path d="M1940 2885 c0 -8 4 -15 10 -15 5 0 7 7 4 15 -4 8 -8 15 -10 15 -2 0
-4 -7 -4 -15z"/>
<path d="M27 2874 c-4 -4 -7 -16 -7 -26 0 -11 -4 -16 -10 -13 -18 11 -11 -71
7 -86 10 -8 14 -9 10 -2 -4 6 -2 15 4 19 8 5 8 9 -1 14 -19 12 -1 32 21 25 14
-5 19 -2 19 12 -1 23 -33 66 -43 57z"/>
<path d="M137 2853 c-4 -3 -7 -11 -7 -17 0 -6 5 -5 12 2 6 6 9 14 7 17 -3 3
-9 2 -12 -2z"/>
<path d="M1505 2850 c3 -5 10 -10 16 -10 5 0 9 5 9 10 0 6 -7 10 -16 10 -8 0
-12 -4 -9 -10z"/>
<path d="M1960 2850 c0 -7 3 -10 7 -7 3 4 3 10 0 14 -4 3 -7 0 -7 -7z"/>
<path d="M2304 2848 c-4 -7 -3 -8 4 -4 7 4 12 9 12 12 0 8 -9 4 -16 -8z"/>
<path d="M1891 2808 c-1 -16 4 -28 9 -28 12 0 12 8 0 35 -8 18 -9 17 -9 -7z"/>
<path d="M1951 2813 c-8 -14 -12 -15 -25 -4 -9 7 -16 9 -16 4 0 -13 33 -38 50
-38 8 0 21 4 29 9 9 6 12 5 8 0 -8 -14 10 -40 20 -30 4 5 2 11 -5 13 -6 3 -10
9 -6 14 3 5 -2 12 -10 15 -9 3 -16 12 -16 20 0 19 -17 18 -29 -3z"/>
<path d="M2310 2812 c0 -7 20 -20 64 -40 5 -3 7 1 4 8 -2 7 -13 15 -23 16 -11
2 -21 8 -23 13 -4 13 -22 15 -22 3z"/>
<path d="M1850 2800 c0 -5 7 -10 15 -10 8 0 15 5 15 10 0 6 -7 10 -15 10 -8 0
-15 -4 -15 -10z"/>
<path d="M145 2790 c-3 -5 1 -10 10 -10 9 0 13 5 10 10 -3 6 -8 10 -10 10 -2
0 -7 -4 -10 -10z"/>
<path d="M2044 2788 c-4 -7 -3 -8 4 -4 12 7 16 16 8 16 -3 0 -8 -5 -12 -12z"/>
<path d="M183 2773 c4 -3 10 -3 14 0 3 4 0 7 -7 7 -7 0 -10 -3 -7 -7z"/>
<path d="M2315 2771 c-3 -5 -1 -12 5 -16 5 -3 10 1 10 9 0 18 -6 21 -15 7z"/>
<path d="M153 2763 c4 -3 10 -3 14 0 3 4 0 7 -7 7 -7 0 -10 -3 -7 -7z"/>
<path d="M1885 2762 c-2 -2 -1 -10 2 -18 4 -12 0 -14 -21 -8 -16 4 -26 2 -26
-5 0 -6 6 -8 14 -5 7 3 16 -2 20 -11 3 -9 2 -13 -4 -10 -5 3 -9 -9 -8 -30 2
-52 29 -63 53 -23 14 25 15 30 3 26 -8 -4 -20 -3 -27 1 -11 7 20 12 71 12 11
0 15 6 11 15 -3 8 0 14 6 14 6 0 11 7 11 15 0 8 -5 15 -11 15 -5 0 -7 -4 -4
-10 3 -5 0 -10 -8 -10 -8 0 -17 9 -20 19 -3 13 -13 19 -32 18 -14 -1 -28 -4
-30 -5z m50 -42 c-3 -5 -12 -10 -18 -10 -7 0 -6 4 3 10 19 12 23 12 15 0z"/>
<path d="M2050 2759 c0 -5 -5 -7 -11 -4 -6 4 -5 -2 2 -14 8 -11 16 -16 20 -10
7 13 26 -10 24 -31 -2 -28 14 -48 35 -43 30 8 27 51 -5 63 -14 5 -29 18 -33
27 -8 20 -32 29 -32 12z m57 -56 c-4 -3 -10 -3 -14 0 -3 4 0 7 7 7 7 0 10 -3
7 -7z"/>
<path d="M2280 2760 c0 -7 3 -10 7 -7 3 4 3 10 0 14 -4 3 -7 0 -7 -7z"/>
<path d="M2235 2730 c3 -5 8 -10 11 -10 2 0 4 5 4 10 0 6 -5 10 -11 10 -5 0
-7 -4 -4 -10z"/>
<path d="M80 2720 c0 -7 3 -10 7 -7 3 4 3 10 0 14 -4 3 -7 0 -7 -7z"/>
<path d="M19 2702 c-19 -22 -1 -46 22 -31 9 6 10 9 2 9 -6 0 -10 9 -8 20 5 25
3 25 -16 2z"/>
<path d="M55 2710 c3 -5 8 -10 11 -10 3 0 2 5 -1 10 -3 6 -8 10 -11 10 -3 0
-2 -4 1 -10z"/>
<path d="M2290 2701 c0 -11 5 -23 10 -26 6 -3 10 3 10 14 0 11 -4 23 -10 26
-5 3 -10 -3 -10 -14z"/>
<path d="M2223 2683 c0 -7 3 -11 5 -8 3 3 11 0 18 -6 15 -12 34 -4 34 15 0 8
-11 13 -28 12 -16 -1 -29 -7 -29 -13z"/>
<path d="M100 2680 c0 -5 5 -10 12 -10 18 0 3 -10 -22 -15 -27 -5 -52 -25 -31
-25 7 0 9 -4 6 -10 -3 -5 -1 -10 4 -10 6 0 11 6 11 14 0 21 32 30 42 11 5 -8
13 -13 18 -10 5 3 11 1 15 -5 3 -5 1 -10 -4 -10 -6 0 -11 -5 -11 -10 0 -7 7
-7 21 0 11 7 18 14 15 17 -3 3 2 11 11 18 28 21 6 37 -25 17 -14 -9 -23 -12
-20 -7 7 12 -11 39 -30 43 -6 1 -12 -2 -12 -8z"/>
<path d="M1939 2678 c-7 -21 -6 -79 1 -83 6 -3 10 -16 10 -29 0 -33 20 -49 36
-28 7 9 18 17 25 17 14 0 31 52 24 75 -6 18 -46 22 -57 6 -4 -5 -10 2 -13 17
-6 22 -22 37 -26 25z m57 -78 c8 0 14 -2 14 -4 0 -2 2 -11 5 -18 4 -9 -2 -14
-15 -14 -13 0 -20 7 -20 18 0 10 -5 18 -11 18 -5 0 -7 5 -3 12 6 9 9 9 12 0 2
-7 10 -12 18 -12z"/>
<path d="M1990 2669 c0 -5 5 -7 10 -4 6 3 10 8 10 11 0 2 -4 4 -10 4 -5 0 -10
-5 -10 -11z"/>
<path d="M250 2650 c0 -7 3 -10 7 -7 3 4 3 10 0 14 -4 3 -7 0 -7 -7z"/>
<path d="M1824 2635 c-9 -21 5 -33 16 -15 7 10 10 11 10 3 0 -7 5 -13 10 -13
17 0 11 19 -10 30 -16 9 -22 8 -26 -5z"/>
<path d="M2078 2618 c-7 -16 7 -46 17 -37 3 4 2 16 -3 29 -7 18 -10 20 -14 8z"/>
<path d="M180 2585 c0 -8 4 -15 10 -15 5 0 7 7 4 15 -4 8 -8 15 -10 15 -2 0
-4 -7 -4 -15z"/>
<path d="M70 2566 c0 -19 4 -22 25 -18 21 3 23 7 14 23 -14 27 -39 24 -39 -5z"/>
<path d="M21 2544 c-24 -31 -28 -74 -6 -74 9 0 12 6 8 16 -4 12 -2 15 8 12 24
-8 40 17 29 46 -12 32 -14 32 -39 0z m29 7 c0 -5 -7 -12 -16 -15 -14 -5 -15
-4 -4 9 14 17 20 19 20 6z"/>
<path d="M198 2408 c-10 -6 -7 -10 10 -14 13 -4 21 -12 18 -19 -3 -8 4 -12 20
-11 26 1 34 16 8 16 -13 0 -14 3 -5 14 9 11 6 15 -13 18 -14 3 -31 1 -38 -4z"/>
<path d="M1660 2290 c0 -6 -5 -8 -11 -4 -6 3 -5 -6 3 -22 8 -16 13 -39 12 -52
-1 -12 3 -25 9 -29 6 -4 7 4 3 21 -8 31 8 35 24 6 6 -11 16 -18 21 -14 6 3 20
-2 31 -13 20 -16 21 -17 15 0 -4 9 -2 17 3 17 6 0 10 5 10 11 0 5 -4 8 -9 5
-12 -8 -64 42 -56 54 3 5 0 7 -9 4 -9 -3 -12 -12 -9 -22 5 -12 2 -11 -13 4
-11 10 -16 22 -11 25 5 4 4 9 -2 13 -6 4 -11 2 -11 -4z"/>
<path d="M80 2260 c0 -5 5 -10 10 -10 6 0 10 5 10 10 0 6 -4 10 -10 10 -5 0
-10 -4 -10 -10z"/>
<path d="M1610 2250 c0 -7 3 -10 7 -7 3 4 3 10 0 14 -4 3 -7 0 -7 -7z"/>
<path d="M1740 2245 c7 -9 15 -13 17 -11 7 7 -7 26 -19 26 -6 0 -6 -6 2 -15z"/>
<path d="M140 2239 c0 -5 5 -7 10 -4 6 3 10 8 10 11 0 2 -4 4 -10 4 -5 0 -10
-5 -10 -11z"/>
<path d="M144 2208 c-4 -7 -3 -8 4 -4 12 7 16 16 8 16 -3 0 -8 -5 -12 -12z"/>
<path d="M183 2213 c4 -3 10 -3 14 0 3 4 0 7 -7 7 -7 0 -10 -3 -7 -7z"/>
<path d="M1815 2210 c3 -5 8 -10 11 -10 2 0 4 5 4 10 0 6 -5 10 -11 10 -5 0
-7 -4 -4 -10z"/>
<path d="M1175 2179 c4 -13 14 -29 21 -37 8 -7 14 -19 14 -25 0 -7 5 -5 10 4
15 26 -3 74 -29 77 -20 3 -22 0 -16 -19z"/>
<path d="M1816 2166 c7 -11 22 -20 33 -21 18 -1 18 0 3 20 -8 11 -23 21 -33
21 -15 0 -15 -3 -3 -20z"/>
<path d="M1877 2160 c3 -11 12 -20 19 -20 17 0 18 12 2 28 -18 18 -27 15 -21
-8z"/>
<path d="M1060 2102 c0 -12 19 -26 26 -19 2 2 -2 10 -11 17 -9 8 -15 8 -15 2z"/>
<path d="M1388 1893 c7 -3 16 -2 19 1 4 3 -2 6 -13 5 -11 0 -14 -3 -6 -6z"/>
<path d="M1435 1880 c3 -5 8 -10 11 -10 2 0 4 5 4 10 0 6 -5 10 -11 10 -5 0
-7 -4 -4 -10z"/>
<path d="M917 1700 c24 -62 32 -94 25 -99 -8 -5 -7 -15 3 -34 11 -21 22 -70
30 -127 0 -3 3 -10 7 -15 3 -6 16 -39 28 -75 18 -53 137 -349 144 -357 2 -2
31 -7 66 -12 56 -7 66 -6 84 11 12 11 33 22 48 25 54 11 41 31 -46 73 -81 38
-105 60 -120 108 -10 30 19 30 51 0 13 -12 23 -16 23 -10 0 6 -4 14 -10 17 -5
3 -14 14 -19 24 -8 13 -6 18 6 18 9 0 36 -29 61 -63 26 -35 61 -71 79 -81 18
-10 35 -24 38 -33 7 -22 -12 -92 -27 -101 -7 -5 -8 -9 -3 -9 6 0 3 -4 -5 -10
-28 -18 0 -22 70 -10 56 9 71 15 69 28 -1 10 3 30 10 46 16 41 9 54 -28 48
-18 -2 -31 0 -29 4 5 18 -54 92 -122 153 -70 63 -83 81 -55 81 20 0 19 5 -11
37 -14 15 -24 23 -22 18 2 -6 -1 -12 -7 -13 -21 -7 -35 -25 -28 -36 4 -7 1 -6
-9 1 -12 11 -18 9 -33 -7 -12 -14 -25 -18 -39 -14 -17 5 -19 4 -8 -7 11 -12
18 -11 42 3 17 9 30 13 30 8 0 -6 -4 -10 -10 -10 -5 0 -10 -6 -10 -14 0 -8 -4
-18 -10 -21 -5 -3 -7 0 -4 9 4 11 0 13 -15 9 -12 -3 -21 -10 -21 -15 0 -5 6
-6 13 -2 9 5 9 4 0 -6 -9 -10 -18 -9 -45 8 -18 12 -27 22 -20 22 6 0 12 7 12
15 0 8 -4 15 -9 15 -4 0 -19 20 -32 45 -13 25 -27 45 -31 45 -17 0 -6 28 12
33 20 5 20 7 -9 51 -17 28 -31 67 -35 99 -13 102 -29 141 -73 181 l-42 38 36
-92z"/>
<path d="M1200 1727 c0 -7 7 -22 15 -33 13 -17 14 -16 4 14 -11 33 -19 41 -19
19z"/>
<path d="M1532 1598 c57 -81 76 -103 60 -73 -14 28 -101 145 -107 145 -3 0 18
-33 47 -72z"/>
<path d="M1420 1539 c28 -57 53 -120 56 -141 4 -21 12 -38 19 -38 7 0 15 -7
19 -15 3 -9 0 -15 -10 -15 -8 0 -13 4 -10 8 3 5 -1 9 -9 9 -23 0 -18 -13 10
-25 19 -9 25 -9 26 1 0 6 4 2 9 -10 5 -13 17 -23 26 -23 12 0 10 7 -10 31 -33
39 -54 79 -71 135 -14 46 -79 169 -95 179 -6 3 13 -40 40 -96z"/>
<path d="M2960 1591 c0 -10 22 -31 32 -31 17 0 7 28 -12 33 -11 3 -20 2 -20
-2z"/>
<path d="M2921 1564 c5 -6 6 -14 2 -16 -4 -3 -2 -3 5 -2 6 2 12 2 12 0 0 -3 3
-11 6 -19 7 -20 -57 -42 -94 -31 -15 4 -30 7 -34 6 -5 -1 -8 3 -8 9 0 5 -5 7
-10 4 -6 -4 -8 -10 -5 -15 3 -5 1 -11 -5 -15 -5 -3 -10 3 -10 14 0 23 -15 28
-26 10 -3 -6 0 -15 7 -20 7 -4 10 -11 6 -15 -3 -4 -13 -1 -22 6 -12 10 -15 10
-15 -3 0 -8 3 -17 8 -20 4 -2 3 -3 -3 -2 -5 1 -23 -3 -38 -10 -27 -11 -24 -12
55 -30 46 -11 89 -19 95 -18 7 0 11 -3 8 -7 -8 -14 26 -20 47 -9 11 6 17 13
14 16 -3 3 -12 1 -20 -6 -11 -9 -15 -8 -19 3 -7 18 12 26 35 15 11 -6 29 -3
52 8 33 15 36 20 36 60 0 35 -3 43 -19 43 -11 0 -23 11 -30 28 -7 16 -18 29
-26 29 -11 0 -12 -4 -4 -13z m-81 -78 c0 -2 -7 -6 -15 -10 -8 -3 -15 -1 -15 4
0 6 7 10 15 10 8 0 15 -2 15 -4z"/>
<path d="M2881 1527 c-9 -12 -8 -16 3 -20 19 -7 27 4 17 21 -6 10 -10 10 -20
-1z"/>
<path d="M617 1504 c-4 -4 -1 -14 6 -22 10 -13 9 -15 -6 -9 -10 4 -16 3 -13
-2 3 -4 -18 -11 -46 -14 -57 -7 -85 -23 -37 -21 16 0 32 4 36 7 3 4 17 7 31 7
13 0 37 9 52 20 25 18 31 19 61 6 21 -8 42 -10 54 -5 20 8 7 14 -22 10 -7 -1
-23 4 -35 11 -28 15 -71 21 -81 12z"/>
<path d="M790 1490 c-9 -6 -10 -10 -3 -10 6 0 15 5 18 10 8 12 4 12 -15 0z"/>
<path d="M1600 1496 c0 -2 7 -9 15 -16 9 -7 15 -8 15 -2 0 5 -7 12 -15 16 -8
3 -15 4 -15 2z"/>
<path d="M1895 1490 c-3 -5 3 -10 15 -10 12 0 18 5 15 10 -3 6 -10 10 -15 10
-5 0 -12 -4 -15 -10z"/>
<path d="M1943 1483 c4 -3 10 -3 14 0 3 4 0 7 -7 7 -7 0 -10 -3 -7 -7z"/>
<path d="M863 1463 c4 -3 10 -3 14 0 3 4 0 7 -7 7 -7 0 -10 -3 -7 -7z"/>
<path d="M930 1458 c0 -9 5 -20 11 -23 17 -11 20 0 4 21 -13 17 -14 17 -15 2z"/>
<path d="M1060 1460 c0 -7 3 -10 7 -7 3 4 3 10 0 14 -4 3 -7 0 -7 -7z"/>
<path d="M1933 1463 c4 -3 10 -3 14 0 3 4 0 7 -7 7 -7 0 -10 -3 -7 -7z"/>
<path d="M1873 1443 c4 -3 10 -3 14 0 3 4 0 7 -7 7 -7 0 -10 -3 -7 -7z"/>
<path d="M1880 1420 c0 -4 10 -10 23 -14 31 -8 39 -7 33 3 -7 11 -56 21 -56
11z"/>
<path d="M2000 1352 c-18 -17 -32 -22 -51 -18 l-27 5 37 -86 c20 -48 42 -88
48 -90 8 -3 7 9 -4 36 -9 23 -20 41 -25 41 -9 0 3 17 35 49 12 13 17 30 15 52
l-3 34 -25 -23z"/>
<path d="M1400 1360 c0 -5 5 -10 11 -10 5 0 7 5 4 10 -3 6 -8 10 -11 10 -2 0
-4 -4 -4 -10z"/>
<path d="M1910 1360 c0 -7 3 -10 7 -7 3 4 3 10 0 14 -4 3 -7 0 -7 -7z"/>
<path d="M1219 1343 c-13 -17 -13 -17 6 -3 11 8 22 16 24 17 2 2 0 3 -6 3 -6
0 -17 -8 -24 -17z"/>
<path d="M1390 1329 c0 -4 -12 -10 -27 -12 -17 -3 -11 -4 14 -4 26 1 49 -5 61
-16 10 -9 23 -17 28 -17 5 0 1 5 -8 11 -10 5 -18 15 -18 20 0 6 6 7 13 3 9 -5
9 -3 -1 7 -13 15 -62 20 -62 8z m47 -6 c-4 -3 -10 -3 -14 0 -3 4 0 7 7 7 7 0
10 -3 7 -7z"/>
<path d="M1800 1330 c0 -5 5 -10 11 -10 5 0 7 5 4 10 -3 6 -8 10 -11 10 -2 0
-4 -4 -4 -10z"/>
<path d="M1835 1330 c3 -5 8 -10 11 -10 3 0 2 5 -1 10 -3 6 -8 10 -11 10 -3 0
-2 -4 1 -10z"/>
<path d="M2250 1310 c-13 -8 -13 -10 2 -10 9 0 20 5 23 10 8 13 -5 13 -25 0z"/>
<path d="M1703 1293 c4 -3 10 -3 14 0 3 4 0 7 -7 7 -7 0 -10 -3 -7 -7z"/>
<path d="M1823 1293 c4 -3 10 -3 14 0 3 4 0 7 -7 7 -7 0 -10 -3 -7 -7z"/>
<path d="M1634 1272 l-32 -17 62 -57 c33 -31 63 -54 66 -52 2 3 -10 16 -27 29
-39 31 -58 79 -37 96 12 10 18 8 30 -7 14 -18 15 -18 4 4 -13 26 -24 27 -66 4z"/>
<path d="M1830 1271 c0 -5 6 -14 14 -20 12 -10 13 -8 9 8 -5 21 -23 30 -23 12z"/>
<path d="M2010 1270 c0 -7 3 -10 7 -7 3 4 3 10 0 14 -4 3 -7 0 -7 -7z"/>
<path d="M1807 1194 c-4 -4 -7 -22 -7 -40 0 -24 5 -33 23 -38 38 -10 51 -8 38
7 -6 8 -9 16 -6 18 2 3 -6 17 -18 33 -12 15 -26 24 -30 20z"/>
<path d="M1892 1146 c6 -19 14 -33 19 -31 10 7 0 42 -16 55 -11 9 -12 5 -3
-24z"/>
<path d="M670 1151 l-35 -7 45 -6 c160 -20 335 -72 399 -119 41 -29 43 -30 36
-7 -12 39 -36 54 -125 78 -47 13 -123 33 -169 46 -87 25 -94 26 -151 15z"/>
<path d="M2065 1120 c-4 -6 -11 -8 -16 -4 -6 3 -20 -3 -32 -14 -12 -10 -30
-24 -41 -29 -17 -9 -16 -11 9 -17 16 -4 33 -2 41 5 18 15 57 69 50 69 -3 0 -8
-5 -11 -10z"/>
<path d="M333 1113 c4 -3 10 -3 14 0 3 4 0 7 -7 7 -7 0 -10 -3 -7 -7z"/>
<path d="M85 1048 c-1 -13 -4 -41 -7 -63 l-7 -40 14 40 c15 45 19 85 8 85 -5
0 -8 -10 -8 -22z"/>
<path d="M933 893 c4 -3 10 -3 14 0 3 4 0 7 -7 7 -7 0 -10 -3 -7 -7z"/>
</g>
</svg>
